<svg xmlns="http://www.w3.org/2000/svg" xml:space="preserve" width="1024" height="460">
  <rect width="100%" height="100%" fill="transparent"/>
  <path fill="none" stroke="#000" stroke-width="10" d="M367.66 102.93h240.9" vector-effect="non-scaling-stroke"/>
  <rect width="214" height="44" x="-107" y="-22" fill="#0052cc" rx="0" ry="0" transform="matrix(1.1 0 0 1.1 132.88 96.17)" vector-effect="non-scaling-stroke"/>
  <g transform="matrix(1.1 0 0 1.1 105.89 323.28)">
    <linearGradient id="a" x1="-19.8223" x2="51.3846" y1="-83.5454" y2="-154.7523" gradientTransform="matrix(1 0 0 -1 94 153)" gradientUnits="userSpaceOnUse">
      <stop offset="0%" stop-color="#ff29d8"/>
      <stop offset="100%" stop-color="#2068ff"/>
    </linearGradient>
    <path fill="url(#a)" d="M106.817 275.038h3.501c1.296 0 2.352-1.053 2.352-2.349v-3.504c0-1.296-1.056-2.353-2.352-2.353h-3.501c-1.296 0-2.352 1.057-2.352 2.353v3.504c0 1.296 1.056 2.349 2.352 2.349z" transform="translate(-108.57 -270.94)" vector-effect="non-scaling-stroke"/>
  </g>
  <g transform="matrix(1.1 0 0 1.1 118.25 323.28)">
    <linearGradient id="b" x1="-14.228" x2="56.9791" y1="-77.9502" y2="-149.1573" gradientTransform="matrix(1 0 0 -1 94 153)" gradientUnits="userSpaceOnUse">
      <stop offset="0%" stop-color="#ff29d8"/>
      <stop offset="100%" stop-color="#2068ff"/>
    </linearGradient>
    <path fill="url(#b)" d="M118.007 275.038h3.501c1.299 0 2.352-1.053 2.352-2.349v-3.504c0-1.296-1.053-2.353-2.352-2.353h-3.501c-1.299 0-2.355 1.057-2.355 2.353v3.504c0 1.296 1.056 2.349 2.355 2.349z" transform="translate(-119.76 -270.94)" vector-effect="non-scaling-stroke"/>
  </g>
  <g transform="matrix(1.1 0 0 1.1 118.25 230.37)">
    <linearGradient id="c" x1="27.8125" x2="99.0191" y1="-35.9097" y2="-107.1162" gradientTransform="matrix(1 0 0 -1 94 153)" gradientUnits="userSpaceOnUse">
      <stop offset="0%" stop-color="#ff29d8"/>
      <stop offset="100%" stop-color="#2068ff"/>
    </linearGradient>
    <path fill="url(#c)" d="M121.508 182.752h-3.501c-1.299 0-2.355 1.057-2.355 2.352v3.504c0 1.297 1.056 2.353 2.355 2.353h3.501c1.299 0 2.352-1.056 2.352-2.353v-3.504c0-1.295-1.053-2.352-2.352-2.352z" transform="translate(-119.76 -186.86)" vector-effect="non-scaling-stroke"/>
  </g>
  <g transform="matrix(1.1 0 0 1.1 105.89 230.37)">
    <linearGradient id="d" x1="22.2178" x2="93.4234" y1="-41.5044" y2="-112.71" gradientTransform="matrix(1 0 0 -1 94 153)" gradientUnits="userSpaceOnUse">
      <stop offset="0%" stop-color="#ff29d8"/>
      <stop offset="100%" stop-color="#2068ff"/>
    </linearGradient>
    <path fill="url(#d)" d="M110.318 182.752h-3.501c-1.296 0-2.352 1.057-2.352 2.352v3.504c0 1.297 1.056 2.353 2.352 2.353h3.501c1.296 0 2.352-1.056 2.352-2.353v-3.504c0-1.295-1.056-2.352-2.352-2.352z" transform="translate(-108.57 -186.86)" vector-effect="non-scaling-stroke"/>
  </g>
  <g transform="matrix(1.1 0 0 1.1 93.53 230.37)">
    <linearGradient id="e" x1="16.6216" x2="87.8274" y1="-47.1006" y2="-118.3064" gradientTransform="matrix(1 0 0 -1 94 153)" gradientUnits="userSpaceOnUse">
      <stop offset="0%" stop-color="#ff29d8"/>
      <stop offset="100%" stop-color="#2068ff"/>
    </linearGradient>
    <path fill="url(#e)" d="M99.128 182.752h-3.504c-1.296 0-2.352 1.057-2.352 2.352v3.504c0 1.297 1.056 2.353 2.352 2.353h3.504c1.296 0 2.349-1.056 2.349-2.353v-3.504c0-1.295-1.053-2.352-2.349-2.352z" transform="translate(-97.37 -186.86)" vector-effect="non-scaling-stroke"/>
  </g>
  <g transform="matrix(1.1 0 0 1.1 76.56 230.37)">
    <linearGradient id="f" x1="8.9346" x2="80.1458" y1="-54.7905" y2="-126.0018" gradientTransform="matrix(1 0 0 -1 94 153)" gradientUnits="userSpaceOnUse">
      <stop offset="0%" stop-color="#ff29d8"/>
      <stop offset="100%" stop-color="#2068ff"/>
    </linearGradient>
    <path fill="url(#f)" d="M82 182.752c-.332 0-.6.27-.6.601v7.008c0 .331.269.601.6.601.331 0 .6-.27.6-.601v-7.008c0-.332-.269-.601-.6-.601z" transform="translate(-82 -186.86)" vector-effect="non-scaling-stroke"/>
  </g>
  <g transform="matrix(1.1 0 0 1.1 71.82 230.37)">
    <linearGradient id="g" x1="6.7939" x2="78.0054" y1="-56.9312" y2="-128.1426" gradientTransform="matrix(1 0 0 -1 94 153)" gradientUnits="userSpaceOnUse">
      <stop offset="0%" stop-color="#ff29d8"/>
      <stop offset="100%" stop-color="#2068ff"/>
    </linearGradient>
    <path fill="url(#g)" d="M77.718 182.752c-.331 0-.6.27-.6.601v7.008c0 .331.269.601.6.601.332 0 .6-.27.6-.601v-7.008c0-.332-.268-.601-.6-.601z" transform="translate(-77.72 -186.86)" vector-effect="non-scaling-stroke"/>
  </g>
  <g transform="matrix(1.1 0 0 1.1 67.09 230.37)">
    <linearGradient id="h" x1="4.6543" x2="75.8656" y1="-59.0713" y2="-130.2825" gradientTransform="matrix(1 0 0 -1 94 153)" gradientUnits="userSpaceOnUse">
      <stop offset="0%" stop-color="#ff29d8"/>
      <stop offset="100%" stop-color="#2068ff"/>
    </linearGradient>
    <path fill="url(#h)" d="M73.438 182.752c-.332 0-.6.27-.6.601v7.008c0 .331.269.601.6.601.331 0 .6-.27.6-.601v-7.008c0-.332-.269-.601-.6-.601z" transform="translate(-73.44 -186.86)" vector-effect="non-scaling-stroke"/>
  </g>
  <g transform="matrix(1.1 0 0 1.1 62.37 230.37)">
    <linearGradient id="i" x1="2.5137" x2="73.7261" y1="-61.2134" y2="-132.4258" gradientTransform="matrix(1 0 0 -1 94 153)" gradientUnits="userSpaceOnUse">
      <stop offset="0%" stop-color="#ff29d8"/>
      <stop offset="100%" stop-color="#2068ff"/>
    </linearGradient>
    <path fill="url(#i)" d="M69.155 182.752c-.331 0-.6.27-.6.601v7.008c0 .331.269.601.6.601.331 0 .6-.27.6-.601v-7.008c0-.332-.269-.601-.6-.601z" transform="translate(-69.16 -186.86)" vector-effect="non-scaling-stroke"/>
  </g>
  <g transform="matrix(1.1 0 0 1.1 57.63 230.37)">
    <linearGradient id="j" x1=".373" x2="71.585" y1="-63.354" y2="-134.566" gradientTransform="matrix(1 0 0 -1 94 153)" gradientUnits="userSpaceOnUse">
      <stop offset="0%" stop-color="#ff29d8"/>
      <stop offset="100%" stop-color="#2068ff"/>
    </linearGradient>
    <path fill="url(#j)" d="M64.875 182.752c-.331 0-.6.27-.6.601v7.008c0 .331.269.601.6.601.331 0 .6-.27.6-.601v-7.008c0-.332-.269-.601-.6-.601z" transform="translate(-64.88 -186.86)" vector-effect="non-scaling-stroke"/>
  </g>
  <g transform="matrix(1.1 0 0 1.1 105.89 253.6)">
    <linearGradient id="k" x1="11.7085" x2="82.9169" y1="-52.0137" y2="-123.222" gradientTransform="matrix(1 0 0 -1 94 153)" gradientUnits="userSpaceOnUse">
      <stop offset="0%" stop-color="#ff29d8"/>
      <stop offset="100%" stop-color="#2068ff"/>
    </linearGradient>
    <path fill="url(#k)" d="M106.817 211.979h3.501c1.296 0 2.352-1.057 2.352-2.353v-3.501c0-1.299-1.056-2.355-2.352-2.355h-3.501c-1.296 0-2.352 1.057-2.352 2.355v3.501c0 1.296 1.056 2.353 2.352 2.353z" transform="translate(-108.57 -207.87)" vector-effect="non-scaling-stroke"/>
  </g>
  <g transform="matrix(1.1 0 0 1.1 93.53 253.6)">
    <linearGradient id="l" x1="6.1128" x2="77.3213" y1="-57.6104" y2="-128.8188" gradientTransform="matrix(1 0 0 -1 94 153)" gradientUnits="userSpaceOnUse">
      <stop offset="0%" stop-color="#ff29d8"/>
      <stop offset="100%" stop-color="#2068ff"/>
    </linearGradient>
    <path fill="url(#l)" d="M95.624 211.979h3.504c1.296 0 2.349-1.057 2.349-2.353v-3.501c0-1.299-1.053-2.355-2.349-2.355h-3.504c-1.296 0-2.352 1.057-2.352 2.355v3.501c0 1.296 1.056 2.353 2.352 2.353z" transform="translate(-97.37 -207.87)" vector-effect="non-scaling-stroke"/>
  </g>
  <g transform="matrix(1.1 0 0 1.1 118.25 253.6)">
    <linearGradient id="m" x1="17.3022" x2="88.5115" y1="-46.4194" y2="-117.6287" gradientTransform="matrix(1 0 0 -1 94 153)" gradientUnits="userSpaceOnUse">
      <stop offset="0%" stop-color="#ff29d8"/>
      <stop offset="100%" stop-color="#2068ff"/>
    </linearGradient>
    <path fill="url(#m)" d="M118.007 211.979h3.501c1.299 0 2.352-1.057 2.352-2.353v-3.501c0-1.299-1.053-2.355-2.352-2.355h-3.501c-1.299 0-2.355 1.057-2.355 2.355v3.501c0 1.296 1.056 2.353 2.355 2.353z" transform="translate(-119.76 -207.87)" vector-effect="non-scaling-stroke"/>
  </g>
  <g transform="matrix(1.1 0 0 1.1 76.56 253.6)">
    <linearGradient id="n" x1="-1.5762" x2="69.6299" y1="-65.2983" y2="-136.5044" gradientTransform="matrix(1 0 0 -1 94 153)" gradientUnits="userSpaceOnUse">
      <stop offset="0%" stop-color="#ff29d8"/>
      <stop offset="100%" stop-color="#2068ff"/>
    </linearGradient>
    <path fill="url(#n)" d="M82 211.979c.331 0 .6-.269.6-.6v-7.006c0-.332-.269-.601-.6-.601-.332 0-.6.269-.6.601v7.006c0 .331.268.6.6.6z" transform="translate(-82 -207.88)" vector-effect="non-scaling-stroke"/>
  </g>
  <g transform="matrix(1.1 0 0 1.1 71.82 253.6)">
    <linearGradient id="o" x1="-3.7168" x2="67.4893" y1="-67.439" y2="-138.645" gradientTransform="matrix(1 0 0 -1 94 153)" gradientUnits="userSpaceOnUse">
      <stop offset="0%" stop-color="#ff29d8"/>
      <stop offset="100%" stop-color="#2068ff"/>
    </linearGradient>
    <path fill="url(#o)" d="M77.718 211.979c.332 0 .6-.269.6-.6v-7.006c0-.332-.269-.601-.6-.601-.331 0-.6.269-.6.601v7.006c.001.331.269.6.6.6z" transform="translate(-77.72 -207.88)" vector-effect="non-scaling-stroke"/>
  </g>
  <g transform="matrix(1.1 0 0 1.1 67.09 253.6)">
    <linearGradient id="p" x1="-5.8564" x2="65.3502" y1="-69.5791" y2="-140.7858" gradientTransform="matrix(1 0 0 -1 94 153)" gradientUnits="userSpaceOnUse">
      <stop offset="0%" stop-color="#ff29d8"/>
      <stop offset="100%" stop-color="#2068ff"/>
    </linearGradient>
    <path fill="url(#p)" d="M73.438 211.979c.331 0 .6-.269.6-.6v-7.006c0-.332-.269-.601-.6-.601-.332 0-.6.269-.6.601v7.006c0 .331.268.6.6.6z" transform="translate(-73.44 -207.88)" vector-effect="non-scaling-stroke"/>
  </g>
  <g transform="matrix(1.1 0 0 1.1 62.37 253.6)">
    <linearGradient id="q" x1="-7.9985" x2="63.2091" y1="-71.7212" y2="-142.9288" gradientTransform="matrix(1 0 0 -1 94 153)" gradientUnits="userSpaceOnUse">
      <stop offset="0%" stop-color="#ff29d8"/>
      <stop offset="100%" stop-color="#2068ff"/>
    </linearGradient>
    <path fill="url(#q)" d="M69.155 211.979c.331 0 .6-.269.6-.6v-7.006c0-.332-.269-.601-.6-.601-.331 0-.6.269-.6.601v7.006c0 .331.269.6.6.6z" transform="translate(-69.16 -207.88)" vector-effect="non-scaling-stroke"/>
  </g>
  <g transform="matrix(1.1 0 0 1.1 57.63 253.6)">
    <linearGradient id="r" x1="-10.1387" x2="61.0681" y1="-73.8608" y2="-145.0676" gradientTransform="matrix(1 0 0 -1 94 153)" gradientUnits="userSpaceOnUse">
      <stop offset="0%" stop-color="#ff29d8"/>
      <stop offset="100%" stop-color="#2068ff"/>
    </linearGradient>
    <path fill="url(#r)" d="M64.875 211.979c.331 0 .6-.269.6-.6v-7.006c0-.332-.269-.601-.6-.601-.331 0-.6.269-.6.601v7.006c-.001.331.268.6.6.6z" transform="translate(-64.87 -207.88)" vector-effect="non-scaling-stroke"/>
  </g>
  <g transform="matrix(1.1 0 0 1.1 105.89 276.82)">
    <linearGradient id="s" x1="1.1982" x2="72.4037" y1="-62.5249" y2="-133.7304" gradientTransform="matrix(1 0 0 -1 94 153)" gradientUnits="userSpaceOnUse">
      <stop offset="0%" stop-color="#ff29d8"/>
      <stop offset="100%" stop-color="#2068ff"/>
    </linearGradient>
    <path fill="url(#s)" d="M106.817 232.999h3.501c1.296 0 2.352-1.056 2.352-2.352v-3.504c0-1.296-1.056-2.35-2.352-2.35h-3.501c-1.296 0-2.352 1.054-2.352 2.35v3.504c0 1.296 1.056 2.352 2.352 2.352z" transform="translate(-108.57 -228.9)" vector-effect="non-scaling-stroke"/>
  </g>
  <g transform="matrix(1.1 0 0 1.1 93.53 276.82)">
    <linearGradient id="t" x1="-4.3979" x2="66.8077" y1="-68.1206" y2="-139.3262" gradientTransform="matrix(1 0 0 -1 94 153)" gradientUnits="userSpaceOnUse">
      <stop offset="0%" stop-color="#ff29d8"/>
      <stop offset="100%" stop-color="#2068ff"/>
    </linearGradient>
    <path fill="url(#t)" d="M95.624 232.999h3.504c1.296 0 2.349-1.056 2.349-2.352v-3.504c0-1.296-1.053-2.35-2.349-2.35h-3.504c-1.296 0-2.352 1.054-2.352 2.35v3.504c0 1.296 1.056 2.352 2.352 2.352z" transform="translate(-97.37 -228.9)" vector-effect="non-scaling-stroke"/>
  </g>
  <g transform="matrix(1.1 0 0 1.1 118.25 276.82)">
    <linearGradient id="u" x1="6.793" x2="77.9995" y1="-56.9302" y2="-128.1367" gradientTransform="matrix(1 0 0 -1 94 153)" gradientUnits="userSpaceOnUse">
      <stop offset="0%" stop-color="#ff29d8"/>
      <stop offset="100%" stop-color="#2068ff"/>
    </linearGradient>
    <path fill="url(#u)" d="M118.007 232.999h3.501c1.299 0 2.352-1.056 2.352-2.352v-3.504c0-1.296-1.053-2.35-2.352-2.35h-3.501c-1.299 0-2.355 1.054-2.355 2.35v3.504c0 1.296 1.056 2.352 2.355 2.352z" transform="translate(-119.76 -228.9)" vector-effect="non-scaling-stroke"/>
  </g>
  <g transform="matrix(1.1 0 0 1.1 76.56 276.82)">
    <linearGradient id="v" x1="-12.0864" x2="59.1217" y1="-75.8091" y2="-147.0172" gradientTransform="matrix(1 0 0 -1 94 153)" gradientUnits="userSpaceOnUse">
      <stop offset="0%" stop-color="#ff29d8"/>
      <stop offset="100%" stop-color="#2068ff"/>
    </linearGradient>
    <path fill="url(#v)" d="M82 233c.331 0 .6-.269.6-.601v-7.007c0-.33-.269-.6-.6-.6-.332 0-.6.27-.6.6v7.007c0 .332.268.601.6.601z" transform="translate(-82 -228.9)" vector-effect="non-scaling-stroke"/>
  </g>
  <g transform="matrix(1.1 0 0 1.1 71.82 276.82)">
    <linearGradient id="w" x1="-14.2271" x2="56.9811" y1="-77.9497" y2="-149.1578" gradientTransform="matrix(1 0 0 -1 94 153)" gradientUnits="userSpaceOnUse">
      <stop offset="0%" stop-color="#ff29d8"/>
      <stop offset="100%" stop-color="#2068ff"/>
    </linearGradient>
    <path fill="url(#w)" d="M77.718 233c.332 0 .6-.269.6-.601v-7.007c0-.33-.269-.6-.6-.6-.331 0-.6.27-.6.6v7.007c.001.332.269.601.6.601z" transform="translate(-77.72 -228.9)" vector-effect="non-scaling-stroke"/>
  </g>
  <g transform="matrix(1.1 0 0 1.1 67.09 276.82)">
    <linearGradient id="x" x1="-16.3677" x2="54.8406" y1="-80.0903" y2="-151.2986" gradientTransform="matrix(1 0 0 -1 94 153)" gradientUnits="userSpaceOnUse">
      <stop offset="0%" stop-color="#ff29d8"/>
      <stop offset="100%" stop-color="#2068ff"/>
    </linearGradient>
    <path fill="url(#x)" d="M73.438 233c.331 0 .6-.269.6-.601v-7.007c0-.33-.269-.6-.6-.6-.332 0-.6.27-.6.6v7.007c0 .332.268.601.6.601z" transform="translate(-73.44 -228.9)" vector-effect="non-scaling-stroke"/>
  </g>
  <g transform="matrix(1.1 0 0 1.1 62.37 276.82)">
    <linearGradient id="y" x1="-18.5088" x2="52.7003" y1="-82.2319" y2="-153.441" gradientTransform="matrix(1 0 0 -1 94 153)" gradientUnits="userSpaceOnUse">
      <stop offset="0%" stop-color="#ff29d8"/>
      <stop offset="100%" stop-color="#2068ff"/>
    </linearGradient>
    <path fill="url(#y)" d="M69.155 233c.331 0 .6-.269.6-.601v-7.007c0-.33-.269-.6-.6-.6-.331 0-.6.27-.6.6v7.007c0 .332.269.601.6.601z" transform="translate(-69.16 -228.9)" vector-effect="non-scaling-stroke"/>
  </g>
  <g transform="matrix(1.1 0 0 1.1 57.63 276.82)">
    <linearGradient id="z" x1="-20.6489" x2="50.5597" y1="-84.3721" y2="-155.5807" gradientTransform="matrix(1 0 0 -1 94 153)" gradientUnits="userSpaceOnUse">
      <stop offset="0%" stop-color="#ff29d8"/>
      <stop offset="100%" stop-color="#2068ff"/>
    </linearGradient>
    <path fill="url(#z)" d="M64.875 233c.331 0 .6-.269.6-.601v-7.007c0-.33-.269-.6-.6-.6-.331 0-.6.27-.6.6v7.007c-.001.332.268.601.6.601z" transform="translate(-64.87 -228.9)" vector-effect="non-scaling-stroke"/>
  </g>
  <g transform="matrix(1.1 0 0 1.1 105.89 300.05)">
    <linearGradient id="A" x1="-9.3115" x2="61.8934" y1="-73.0347" y2="-144.2396" gradientTransform="matrix(1 0 0 -1 94 153)" gradientUnits="userSpaceOnUse">
      <stop offset="0%" stop-color="#ff29d8"/>
      <stop offset="100%" stop-color="#2068ff"/>
    </linearGradient>
    <path fill="url(#A)" d="M110.318 245.813h-3.501c-1.296 0-2.352 1.056-2.352 2.352v3.501c0 1.299 1.056 2.353 2.352 2.353h3.501c1.296 0 2.352-1.054 2.352-2.353v-3.501c0-1.297-1.056-2.352-2.352-2.352z" transform="translate(-108.57 -249.92)" vector-effect="non-scaling-stroke"/>
  </g>
  <g transform="matrix(1.1 0 0 1.1 118.25 300.05)">
    <linearGradient id="B" x1="-3.7168" x2="67.4891" y1="-67.4399" y2="-138.6459" gradientTransform="matrix(1 0 0 -1 94 153)" gradientUnits="userSpaceOnUse">
      <stop offset="0%" stop-color="#ff29d8"/>
      <stop offset="100%" stop-color="#2068ff"/>
    </linearGradient>
    <path fill="url(#B)" d="M121.508 245.813h-3.501c-1.299 0-2.355 1.056-2.355 2.352v3.501c0 1.299 1.056 2.353 2.355 2.353h3.501c1.299 0 2.352-1.054 2.352-2.353v-3.501c0-1.297-1.053-2.352-2.352-2.352z" transform="translate(-119.76 -249.92)" vector-effect="non-scaling-stroke"/>
  </g>
  <g transform="matrix(1.1 0 0 1.1 93.53 300.05)">
    <linearGradient id="C" x1="-14.9077" x2="56.2974" y1="-78.6309" y2="-149.836" gradientTransform="matrix(1 0 0 -1 94 153)" gradientUnits="userSpaceOnUse">
      <stop offset="0%" stop-color="#ff29d8"/>
      <stop offset="100%" stop-color="#2068ff"/>
    </linearGradient>
    <path fill="url(#C)" d="M99.128 245.813h-3.504c-1.296 0-2.352 1.056-2.352 2.352v3.501c0 1.299 1.056 2.353 2.352 2.353h3.504c1.296 0 2.349-1.054 2.349-2.353v-3.501c0-1.297-1.053-2.352-2.349-2.352z" transform="translate(-97.37 -249.92)" vector-effect="non-scaling-stroke"/>
  </g>
  <g transform="matrix(1.1 0 0 1.1 76.56 300.05)">
    <linearGradient id="D" x1="-22.5967" x2="48.6113" y1="-86.3188" y2="-157.5269" gradientTransform="matrix(1 0 0 -1 94 153)" gradientUnits="userSpaceOnUse">
      <stop offset="0%" stop-color="#ff29d8"/>
      <stop offset="100%" stop-color="#2068ff"/>
    </linearGradient>
    <path fill="url(#D)" d="M82 245.813c-.332 0-.6.27-.6.601v7.006c0 .331.269.6.6.6.331 0 .6-.269.6-.6v-7.006c0-.332-.269-.601-.6-.601z" transform="translate(-82 -249.92)" vector-effect="non-scaling-stroke"/>
  </g>
  <g transform="matrix(1.1 0 0 1.1 71.82 300.05)">
    <linearGradient id="E" x1="-24.7373" x2="46.4707" y1="-88.4595" y2="-159.6675" gradientTransform="matrix(1 0 0 -1 94 153)" gradientUnits="userSpaceOnUse">
      <stop offset="0%" stop-color="#ff29d8"/>
      <stop offset="100%" stop-color="#2068ff"/>
    </linearGradient>
    <path fill="url(#E)" d="M77.718 245.813c-.331 0-.6.27-.6.601v7.006c0 .331.269.6.6.6.332 0 .6-.269.6-.6v-7.006c0-.332-.268-.601-.6-.601z" transform="translate(-77.72 -249.92)" vector-effect="non-scaling-stroke"/>
  </g>
  <g transform="matrix(1.1 0 0 1.1 67.09 300.05)">
    <linearGradient id="F" x1="-26.8774" x2="44.3308" y1="-90.5991" y2="-161.8074" gradientTransform="matrix(1 0 0 -1 94 153)" gradientUnits="userSpaceOnUse">
      <stop offset="0%" stop-color="#ff29d8"/>
      <stop offset="100%" stop-color="#2068ff"/>
    </linearGradient>
    <path fill="url(#F)" d="M73.438 245.813c-.332 0-.6.27-.6.601v7.006c0 .331.269.6.6.6.331 0 .6-.269.6-.6v-7.006c0-.332-.269-.601-.6-.601z" transform="translate(-73.44 -249.92)" vector-effect="non-scaling-stroke"/>
  </g>
  <g transform="matrix(1.1 0 0 1.1 62.37 300.05)">
    <linearGradient id="G" x1="-29.0186" x2="42.1909" y1="-92.7407" y2="-163.9501" gradientTransform="matrix(1 0 0 -1 94 153)" gradientUnits="userSpaceOnUse">
      <stop offset="0%" stop-color="#ff29d8"/>
      <stop offset="100%" stop-color="#2068ff"/>
    </linearGradient>
    <path fill="url(#G)" d="M69.155 245.813c-.331 0-.6.27-.6.601v7.006c0 .331.269.6.6.6.331 0 .6-.269.6-.6v-7.006c0-.332-.269-.601-.6-.601z" transform="translate(-69.16 -249.92)" vector-effect="non-scaling-stroke"/>
  </g>
  <g transform="matrix(1.1 0 0 1.1 57.63 300.05)">
    <linearGradient id="H" x1="-31.1592" x2="40.0494" y1="-94.8813" y2="-166.0899" gradientTransform="matrix(1 0 0 -1 94 153)" gradientUnits="userSpaceOnUse">
      <stop offset="0%" stop-color="#ff29d8"/>
      <stop offset="100%" stop-color="#2068ff"/>
    </linearGradient>
    <path fill="url(#H)" d="M64.875 245.813c-.331 0-.6.27-.6.601v7.006c0 .331.269.6.6.6.331 0 .6-.269.6-.6v-7.006c0-.332-.269-.601-.6-.601z" transform="translate(-64.88 -249.92)" vector-effect="non-scaling-stroke"/>
  </g>
  <g transform="matrix(1.1 0 0 1.1 93.53 323.28)">
    <linearGradient id="I" x1="-25.4185" x2="45.7879" y1="-89.1416" y2="-160.3479" gradientTransform="matrix(1 0 0 -1 94 153)" gradientUnits="userSpaceOnUse">
      <stop offset="0%" stop-color="#ff29d8"/>
      <stop offset="100%" stop-color="#2068ff"/>
    </linearGradient>
    <path fill="url(#I)" d="M95.624 275.038h3.504c1.296 0 2.349-1.053 2.349-2.349v-3.504c0-1.296-1.053-2.353-2.349-2.353h-3.504c-1.296 0-2.352 1.057-2.352 2.353v3.504c0 1.296 1.056 2.349 2.352 2.349z" transform="translate(-97.37 -270.94)" vector-effect="non-scaling-stroke"/>
  </g>
  <g transform="matrix(1.1 0 0 1.1 76.56 323.28)">
    <linearGradient id="J" x1="-33.1064" x2="38.1005" y1="-96.8286" y2="-168.0355" gradientTransform="matrix(1 0 0 -1 94 153)" gradientUnits="userSpaceOnUse">
      <stop offset="0%" stop-color="#ff29d8"/>
      <stop offset="100%" stop-color="#2068ff"/>
    </linearGradient>
    <path fill="url(#J)" d="M82 275.039c.331 0 .6-.269.6-.601v-7.005c0-.331-.269-.6-.6-.6-.332 0-.6.269-.6.6v7.005c0 .333.268.601.6.601z" transform="translate(-82 -270.94)" vector-effect="non-scaling-stroke"/>
  </g>
  <g transform="matrix(1.1 0 0 1.1 71.82 323.28)">
    <linearGradient id="K" x1="-35.2471" x2="35.9598" y1="-98.9692" y2="-170.1761" gradientTransform="matrix(1 0 0 -1 94 153)" gradientUnits="userSpaceOnUse">
      <stop offset="0%" stop-color="#ff29d8"/>
      <stop offset="100%" stop-color="#2068ff"/>
    </linearGradient>
    <path fill="url(#K)" d="M77.718 275.039c.332 0 .6-.269.6-.601v-7.005c0-.331-.269-.6-.6-.6-.331 0-.6.269-.6.6v7.005c.001.333.269.601.6.601z" transform="translate(-77.72 -270.94)" vector-effect="non-scaling-stroke"/>
  </g>
  <g transform="matrix(1.1 0 0 1.1 67.09 323.28)">
    <linearGradient id="L" x1="-37.3877" x2="33.8193" y1="-101.1104" y2="-172.3173" gradientTransform="matrix(1 0 0 -1 94 153)" gradientUnits="userSpaceOnUse">
      <stop offset="0%" stop-color="#ff29d8"/>
      <stop offset="100%" stop-color="#2068ff"/>
    </linearGradient>
    <path fill="url(#L)" d="M73.438 275.039c.331 0 .6-.269.6-.601v-7.005c0-.331-.269-.6-.6-.6-.332 0-.6.269-.6.6v7.005c0 .333.268.601.6.601z" transform="translate(-73.44 -270.94)" vector-effect="non-scaling-stroke"/>
  </g>
  <g transform="matrix(1.1 0 0 1.1 62.37 323.28)">
    <linearGradient id="M" x1="-39.5283" x2="31.6795" y1="-103.2505" y2="-174.4583" gradientTransform="matrix(1 0 0 -1 94 153)" gradientUnits="userSpaceOnUse">
      <stop offset="0%" stop-color="#ff29d8"/>
      <stop offset="100%" stop-color="#2068ff"/>
    </linearGradient>
    <path fill="url(#M)" d="M69.155 275.039c.331 0 .6-.269.6-.601v-7.005c0-.331-.269-.6-.6-.6-.331 0-.6.269-.6.6v7.005c0 .333.269.601.6.601z" transform="translate(-69.16 -270.94)" vector-effect="non-scaling-stroke"/>
  </g>
  <g transform="matrix(1.1 0 0 1.1 57.63 323.28)">
    <linearGradient id="N" x1="-41.6689" x2="29.5384" y1="-105.3911" y2="-176.5984" gradientTransform="matrix(1 0 0 -1 94 153)" gradientUnits="userSpaceOnUse">
      <stop offset="0%" stop-color="#ff29d8"/>
      <stop offset="100%" stop-color="#2068ff"/>
    </linearGradient>
    <path fill="url(#N)" d="M64.875 275.039c.331 0 .6-.269.6-.601v-7.005c0-.331-.269-.6-.6-.6-.331 0-.6.269-.6.6v7.005c-.001.333.268.601.6.601z" transform="translate(-64.87 -270.94)" vector-effect="non-scaling-stroke"/>
  </g>
  <g transform="matrix(1.1 0 0 1.1 180.09 215.66)">
    <linearGradient id="O" x1="62.4717" x2="133.6784" y1="-1.2505" y2="-72.4572" gradientTransform="matrix(1 0 0 -1 94 153)" gradientUnits="userSpaceOnUse">
      <stop offset="0%" stop-color="#ff29d8"/>
      <stop offset="100%" stop-color="#2068ff"/>
    </linearGradient>
    <path fill="url(#O)" d="M165.903 174.123h19.679c.331 0 .6-.269.6-.6 0-.331-.269-.6-.6-.6h-19.68c-.331 0-.6.269-.6.6 0 .331.269.6.601.6z" transform="translate(-175.74 -173.52)" vector-effect="non-scaling-stroke"/>
  </g>
  <g transform="matrix(1.1 0 0 1.1 180.09 220.04)">
    <linearGradient id="P" x1="60.4849" x2="131.692" y1="-3.2373" y2="-74.4444" gradientTransform="matrix(1 0 0 -1 94 153)" gradientUnits="userSpaceOnUse">
      <stop offset="0%" stop-color="#ff29d8"/>
      <stop offset="100%" stop-color="#2068ff"/>
    </linearGradient>
    <path fill="url(#P)" d="M165.903 178.096h19.679c.331 0 .6-.269.6-.6 0-.332-.269-.6-.6-.6h-19.68c-.331 0-.6.269-.6.6.001.331.269.6.601.6z" transform="translate(-175.74 -177.5)" vector-effect="non-scaling-stroke"/>
  </g>
  <g transform="matrix(1.1 0 0 1.1 180.09 224.44)">
    <linearGradient id="Q" x1="58.4985" x2="129.7048" y1="-5.2241" y2="-76.4304" gradientTransform="matrix(1 0 0 -1 94 153)" gradientUnits="userSpaceOnUse">
      <stop offset="0%" stop-color="#ff29d8"/>
      <stop offset="100%" stop-color="#2068ff"/>
    </linearGradient>
    <path fill="url(#Q)" d="M165.903 182.068h19.679c.331 0 .6-.269.6-.6 0-.331-.269-.6-.6-.6h-19.68c-.331 0-.6.269-.6.6.001.332.269.6.601.6z" transform="translate(-175.74 -181.47)" vector-effect="non-scaling-stroke"/>
  </g>
  <g transform="matrix(1.1 0 0 1.1 180.09 228.82)">
    <linearGradient id="R" x1="56.5122" x2="127.7203" y1="-7.2095" y2="-78.4176" gradientTransform="matrix(1 0 0 -1 94 153)" gradientUnits="userSpaceOnUse">
      <stop offset="0%" stop-color="#ff29d8"/>
      <stop offset="100%" stop-color="#2068ff"/>
    </linearGradient>
    <path fill="url(#R)" d="M165.903 186.041h19.679c.331 0 .6-.27.6-.601 0-.331-.269-.601-.6-.601h-19.68c-.331 0-.6.27-.6.601 0 .331.269.601.601.601z" transform="translate(-175.74 -185.44)" vector-effect="non-scaling-stroke"/>
  </g>
  <g transform="matrix(1.1 0 0 1.1 180.09 233.21)">
    <linearGradient id="S" x1="54.5264" x2="125.7333" y1="-9.1958" y2="-80.4027" gradientTransform="matrix(1 0 0 -1 94 153)" gradientUnits="userSpaceOnUse">
      <stop offset="0%" stop-color="#ff29d8"/>
      <stop offset="100%" stop-color="#2068ff"/>
    </linearGradient>
    <path fill="url(#S)" d="M186.182 189.414c0-.332-.269-.601-.6-.601h-19.68c-.331 0-.6.269-.6.601 0 .33.269.6.6.6h19.68c.331 0 .6-.269.6-.6z" transform="translate(-175.74 -189.41)" vector-effect="non-scaling-stroke"/>
  </g>
  <g transform="matrix(1.1 0 0 1.1 181.77 318.25)">
    <linearGradient id="T" x1="15.0449" x2="86.2513" y1="-48.6782" y2="-119.8846" gradientTransform="matrix(1 0 0 -1 94 153)" gradientUnits="userSpaceOnUse">
      <stop offset="0%" stop-color="#ff29d8"/>
      <stop offset="100%" stop-color="#2068ff"/>
    </linearGradient>
    <path fill="url(#T)" d="M170.927 273.871c.093.054.198.078.3.078.105 0 .208-.024.301-.078l12.033-6.948c.186-.107.3-.306.3-.519 0-.216-.114-.414-.3-.519l-12.033-6.948c-.187-.105-.414-.105-.601 0-.186.108-.3.307-.3.519v13.894c0 .215.114.413.3.521z" transform="translate(-177.24 -266.4)" vector-effect="non-scaling-stroke"/>
  </g>
  <g transform="matrix(1.1 0 0 1.1 122.97 273.3)">
    <linearGradient id="U" x1="9.8613" x2="81.0681" y1="-53.8613" y2="-125.0681" gradientTransform="matrix(1 0 0 -1 94 153)" gradientUnits="userSpaceOnUse">
      <stop offset="0%" stop-color="#ff29d8"/>
      <stop offset="100%" stop-color="#2068ff"/>
    </linearGradient>
    <path fill="url(#U)" d="M189.779 213.364h-27.685c-2.22 0-4.025 1.806-4.025 4.026v10.817h-24.903v-19.731h16.761c.18 0 .354-.084.468-.225l11.076-13.857v9.357c0 .33.271.6.601.6h19.68c.042 0 .081-.002.117-.012.021-.003.039-.012.058-.018.018-.003.038-.01.056-.016.024-.009.046-.023.069-.035.01-.006.021-.012.033-.021.032-.021.063-.045.093-.074l7.659-7.66c.039-.035.068-.08.096-.125.007-.013.012-.024.019-.037.021-.045.042-.092.051-.144v-.003c.009-.036.012-.074.012-.113V168.31c0-.333-.27-.6-.6-.6h-27.342c-.331 0-.601.267-.601.6v24.163l-11.835 14.805h-16.47v-31.365c0-1.299-1.053-2.352-2.352-2.352H57.251c-1.296 0-2.352 1.053-2.352 2.352v105.966c0 1.3 1.056 2.355 2.352 2.355h73.563c1.299 0 2.354-1.056 2.354-2.355l-.003-31.361h14.655l13.656 16.115c.123 7.827 6.524 14.16 14.385 14.16 7.932 0 14.388-6.456 14.388-14.388 0-7.936-6.456-14.388-14.388-14.388-7.416 0-13.536 5.637-14.307 12.849l-12.999-15.336c-.114-.135-.279-.213-.456-.213h-14.935v-19.908h24.903v5.508c0 2.22 1.807 4.026 4.026 4.026h27.684c2.22 0 4.026-1.807 4.026-4.026v-17.525c.002-2.222-1.804-4.028-4.024-4.028zm-27.108-44.454h26.143v26.583h-7.063c-.33 0-.6.267-.6.601v7.059h-18.48V168.91zM61.103 265.243c0-.636.516-1.152 1.152-1.152h63.937c.633 0 1.148.517 1.148 1.152v11.385c0 .633-.516 1.149-1.151 1.149H62.255c-.636 0-1.152-.517-1.152-1.149v-11.385zm66.237-9.636c0 .636-.516 1.151-1.151 1.151H62.255c-.636 0-1.152-.516-1.152-1.151v-11.383c0-.636.516-1.151 1.152-1.151h63.937c.633 0 1.148.516 1.148 1.151v11.383zm0-63.06c0 .637-.516 1.155-1.151 1.155H62.255c-.636 0-1.152-.519-1.152-1.155v-11.385c0-.633.516-1.152 1.152-1.152h63.937c.633 0 1.148.519 1.148 1.152v11.385zm-66.237 9.637c0-.633.516-1.149 1.152-1.149h63.937c.633 0 1.148.517 1.148 1.149v11.385c0 .636-.516 1.152-1.151 1.152H62.255c-.636 0-1.152-.517-1.152-1.152v-11.385zm0 21.02c0-.636.516-1.151 1.152-1.151h63.937c.633 0 1.148.516 1.148 1.151v11.385c0 .633-.516 1.149-1.151 1.149H62.255c-.636 0-1.152-.517-1.152-1.149v-11.385zm114.759 30.012c7.269 0 13.188 5.917 13.188 13.188 0 7.271-5.919 13.188-13.188 13.188-7.272 0-13.191-5.917-13.191-13.188 0-7.272 5.919-13.188 13.191-13.188zm16.742-30.81-4.94-4.62c-.132-.123-.315-.181-.498-.155-.18.026-.339.135-.429.293l-4.035 6.981-4.515-4.224c-.136-.127-.319-.184-.498-.156-.181.027-.34.135-.433.294l-5.813 10.059-2.425-2.269c-.134-.123-.317-.18-.497-.152-.184.026-.343.132-.433.291l-5.198 8.993h-.796c-1.559 0-2.825-1.266-2.825-2.825v-17.525c0-1.561 1.267-2.826 2.825-2.826h27.685c1.557 0 2.826 1.266 2.826 2.826l-.001 5.015z" transform="translate(-124.35 -225.97)" vector-effect="non-scaling-stroke"/>
  </g>
  <g transform="matrix(1.1 0 0 1.1 169.35 268.06)">
    <linearGradient id="V" x1="33.8784" x2="105.083" y1="-29.8472" y2="-101.0517" gradientTransform="matrix(1 0 0 -1 94 153)" gradientUnits="userSpaceOnUse">
      <stop offset="0%" stop-color="#ff29d8"/>
      <stop offset="100%" stop-color="#2068ff"/>
    </linearGradient>
    <path fill="url(#V)" d="M165.998 216.709c-2.349 0-4.26 1.911-4.26 4.26 0 2.35 1.911 4.26 4.26 4.26 2.349 0 4.26-1.91 4.26-4.26 0-2.349-1.911-4.26-4.26-4.26z" transform="translate(-166 -220.97)" vector-effect="non-scaling-stroke"/>
  </g>
  <g transform="matrix(1.1 0 0 1.1 817.58 270.51)">
    <linearGradient id="W" x1="635.3984" x2="689.1766" y1="-44.4312" y2="-98.2094" gradientTransform="matrix(1 0 0 -1 94 153)" gradientUnits="userSpaceOnUse">
      <stop offset="0%" stop-color="#ff29d8"/>
      <stop offset="100%" stop-color="#2068ff"/>
    </linearGradient>
    <path fill="url(#W)" d="M819.071 225.9h-34.127v-35.739c3.255-.304 5.813-3.048 5.813-6.384 0-3.538-2.877-6.415-6.414-6.415-3.336 0-6.081 2.559-6.384 5.814H742.47v-16.881c0-3.054-3.208-5.781-8.461-7.74-5.256-1.962-12.555-3.159-20.744-3.159-15.838 0-28.356 4.479-29.166 10.299h-.043v32.102h.043c.797 5.748 13.01 10.186 28.565 10.296v35.422c-3.259.303-5.817 3.047-5.817 6.384 0 3.536 2.881 6.413 6.418 6.413 3.332 0 6.077-2.559 6.383-5.813h27.154v25.194c0 1.551 1.26 2.811 2.811 2.811h24.228l-1.671 11.897h-2.574c-.33 0-.6.268-.6.601 0 .33.27.6.6.6h29.109c.333 0 .6-.27.6-.6 0-.333-.267-.601-.6-.601h-2.19l-1.671-11.897h24.229c1.551 0 2.811-1.26 2.811-2.811V228.71c-.001-1.55-1.261-2.81-2.813-2.81zm-133.814-56.445c3.543 4.524 14.583 7.743 28.009 7.743 13.422 0 24.459-3.216 28.004-7.743v7.143c0 5.259-12.824 9.702-28.004 9.702-15.175 0-27.996-4.44-28.009-9.693v-7.152zm0 10.302c3.546 4.524 14.583 7.743 28.009 7.743 13.422 0 24.459-3.219 28.004-7.743v7.14c0 5.26-12.824 9.703-28.004 9.703-15.175 0-27.996-4.441-28.009-9.693v-7.15zm0 17.448v-7.149c3.546 4.524 14.583 7.743 28.009 7.743 13.422 0 24.459-3.219 28.004-7.743v7.144c0 5.256-12.824 9.699-28.004 9.699-15.175-.001-27.996-4.438-28.009-9.694zm61.546 31.506V249.3h-27.154c-.284-3.06-2.724-5.499-5.783-5.783v-35.422c16.089-.114 28.605-4.86 28.605-10.896v-12.822h35.489c.285 3.061 2.724 5.499 5.784 5.784V225.9h-34.131c-1.55 0-2.81 1.26-2.81 2.811zm48.5 61.692h-21.921l1.671-11.898h18.579l1.671 11.898zm25.38-14.709c0 .888-.723 1.61-1.611 1.61h-69.458c-.889 0-1.611-.723-1.611-1.61v-46.983c0-.888.723-1.611 1.611-1.611h69.459c.888 0 1.61.724 1.61 1.611v46.983z" transform="translate(-752.97 -223.5)" vector-effect="non-scaling-stroke"/>
  </g>
  <g transform="matrix(1.1 0 0 1.1 852.44 299.94)">
    <linearGradient id="X" x1="636.6367" x2="690.4151" y1="-43.1909" y2="-96.9693" gradientTransform="matrix(1 0 0 -1 94 153)" gradientUnits="userSpaceOnUse">
      <stop offset="0%" stop-color="#ff29d8"/>
      <stop offset="100%" stop-color="#2068ff"/>
    </linearGradient>
    <path fill="url(#X)" d="M817.416 229.584h-66.145c-.33 0-.6.27-.6.601v39.432c0 .33.27.6.6.6h66.145c.33 0 .6-.27.6-.6v-39.432c0-.331-.27-.601-.6-.601z" transform="translate(-784.34 -249.9)" vector-effect="non-scaling-stroke"/>
  </g>
  <g transform="matrix(1.1 0 0 1.1 852.59 326.99)">
    <linearGradient id="Y" x1="624.4443" x2="678.225" y1="-55.3799" y2="-109.1606" gradientTransform="matrix(1 0 0 -1 94 153)" gradientUnits="userSpaceOnUse">
      <stop offset="0%" stop-color="#ff29d8"/>
      <stop offset="100%" stop-color="#2068ff"/>
    </linearGradient>
    <path fill="url(#Y)" d="M788.766 273.68h-8.845c-.331 0-.6.27-.6.601 0 .331.269.6.6.6h8.845c.331 0 .6-.269.6-.6 0-.331-.269-.601-.6-.601z" transform="translate(-784.34 -274.28)" vector-effect="non-scaling-stroke"/>
  </g>
  <g transform="matrix(1.1 0 0 1.1 774.01 236.11)">
    <linearGradient id="Z" x1="630.6846" x2="684.4616" y1="-49.1445" y2="-102.9216" gradientTransform="matrix(1 0 0 -1 94 153)" gradientUnits="userSpaceOnUse">
      <stop offset="0%" stop-color="#ff29d8"/>
      <stop offset="100%" stop-color="#2068ff"/>
    </linearGradient>
    <path fill="url(#Z)" d="M699.1 191.313c3.592.73 7.492 1.162 11.597 1.292.257 1.183 1.31 2.071 2.567 2.071 1.259 0 2.313-.889 2.568-2.072 4.093-.129 7.992-.561 11.596-1.291.324-.066.535-.383.469-.707-.065-.324-.382-.535-.707-.469-3.532.717-7.359 1.14-11.379 1.268-.289-1.139-1.319-1.985-2.546-1.985-1.228 0-2.259.847-2.546 1.985-4.031-.128-7.859-.552-11.381-1.268-.324-.065-.641.145-.707.469-.067.325.143.641.469.707zm14.164-.694c.788 0 1.43.641 1.43 1.429s-.642 1.429-1.43 1.429c-.787 0-1.428-.641-1.428-1.429s.641-1.429 1.428-1.429z" transform="translate(-713.26 -192.05)" vector-effect="non-scaling-stroke"/>
  </g>
  <g transform="matrix(1.1 0 0 1.1 774.01 247.49)">
    <linearGradient id="aa" x1="625.5352" x2="679.3138" y1="-54.2939" y2="-108.0726" gradientTransform="matrix(1 0 0 -1 94 153)" gradientUnits="userSpaceOnUse">
      <stop offset="0%" stop-color="#ff29d8"/>
      <stop offset="100%" stop-color="#2068ff"/>
    </linearGradient>
    <path fill="url(#aa)" d="M727.189 200.437c-3.53.716-7.357 1.14-11.379 1.269-.289-1.14-1.319-1.986-2.547-1.986-1.227 0-2.258.847-2.545 1.986-4.03-.128-7.857-.552-11.381-1.268-.326-.067-.641.143-.707.469-.066.324.144.641.469.707 3.594.73 7.494 1.162 11.597 1.291.256 1.184 1.31 2.072 2.568 2.072s2.312-.889 2.567-2.072c4.096-.129 7.996-.562 11.596-1.292.325-.065.535-.382.469-.707-.066-.325-.382-.535-.707-.469zm-13.925 3.34c-.787 0-1.429-.642-1.429-1.43 0-.787.642-1.43 1.429-1.43.785 0 1.423.637 1.428 1.42v.001c0 .003.002.005.002.009-.001.789-.642 1.43-1.43 1.43z" transform="translate(-713.26 -202.35)" vector-effect="non-scaling-stroke"/>
  </g>
  <g transform="matrix(1.1 0 0 1.1 774.01 224.73)">
    <linearGradient id="ab" x1="635.835" x2="689.6132" y1="-43.9946" y2="-97.7728" gradientTransform="matrix(1 0 0 -1 94 153)" gradientUnits="userSpaceOnUse">
      <stop offset="0%" stop-color="#ff29d8"/>
      <stop offset="100%" stop-color="#2068ff"/>
    </linearGradient>
    <path fill="url(#ab)" d="M699.1 181.013c3.597.73 7.497 1.162 11.597 1.292.256 1.183 1.31 2.072 2.567 2.072 1.259 0 2.313-.889 2.568-2.072 4.094-.129 7.993-.562 11.596-1.292.324-.066.535-.382.469-.707-.066-.325-.383-.535-.707-.469-3.532.716-7.359 1.14-11.379 1.269-.289-1.139-1.319-1.985-2.546-1.985-1.228 0-2.257.847-2.546 1.985-4.026-.129-7.854-.553-11.381-1.269-.323-.066-.641.144-.707.469-.067.324.143.641.469.707zm14.164-.693c.788 0 1.43.641 1.43 1.429s-.642 1.429-1.43 1.429c-.787 0-1.428-.641-1.428-1.429s.641-1.429 1.428-1.429z" transform="translate(-713.26 -181.75)" vector-effect="non-scaling-stroke"/>
  </g>
  <g transform="matrix(1.1 0 0 1.1 476.75 266.07)">
    <linearGradient id="ac" x1="327.2422" x2="398.812" y1="-43.1167" y2="-114.6866" gradientTransform="matrix(1 0 0 -1 94 153)" gradientUnits="userSpaceOnUse">
      <stop offset="0%" stop-color="#ff29d8"/>
      <stop offset="100%" stop-color="#2068ff"/>
    </linearGradient>
    <path fill="url(#ac)" d="M502.285 244.746v-50.748c3.842-.324 6.871-3.553 6.871-7.489 0-4.146-3.37-7.521-7.518-7.521-2.553 0-4.801 1.274-6.167 3.219l-44.162-25.5c.455-.966.71-2.046.71-3.186 0-4.147-3.374-7.521-7.521-7.521-4.15 0-7.524 3.375-7.524 7.521 0 1.14.259 2.22.714 3.186l-44.164 25.5c-1.361-1.945-3.615-3.219-6.167-3.219-4.147 0-7.521 3.375-7.521 7.521 0 3.936 3.029 7.167 6.878 7.489v50.748c-3.848.325-6.877 3.562-6.877 7.489 0 4.15 3.374 7.521 7.521 7.521 2.468 0 4.667-1.196 6.04-3.041l44.29 25.573c-.455.971-.714 2.056-.714 3.195 0 4.138 3.374 7.517 7.525 7.517 4.146 0 7.521-3.379 7.521-7.517 0-1.14-.256-2.225-.711-3.195l44.289-25.573c1.374 1.848 3.568 3.041 6.037 3.041 4.15 0 7.521-3.37 7.521-7.521 0-3.927-3.029-7.164-6.871-7.489zm-114.282 0v-50.748c2.291-.189 4.289-1.407 5.529-3.197l17.571 10.104c-3.135 5.614-4.8 11.959-4.8 18.596 0 6.652 1.718 12.922 4.732 18.38l-17.503 10.063c-1.243-1.782-3.241-3.006-5.529-3.198zm55.853 33.235c-2.285.202-4.278 1.413-5.523 3.2l-44.254-25.559c.514-1.016.806-2.176.806-3.388 0-1.133-.256-2.206-.708-3.174l17.5-10.063c1.772 2.978 3.944 5.688 6.43 8.074.053.091.121.163.21.224.012.009.031.012.047.018 6.692 6.3 15.648 10.212 25.494 10.374v20.294zm-24.364-85.622c.691-.648 1.409-1.26 2.148-1.842.037-.027.074-.057.11-.092.163-.122.33-.25.496-.372.065-.056.133-.105.201-.153.145-.112.292-.218.44-.322.086-.068.175-.131.266-.197.131-.094.267-.185.402-.28.108-.069.206-.145.314-.212.125-.093.258-.176.391-.261.115-.076.222-.146.333-.22.125-.079.255-.156.381-.237.121-.078.233-.151.354-.225.124-.074.243-.145.369-.219.127-.073.25-.147.375-.222.121-.071.244-.135.36-.206.132-.071.262-.148.395-.219.123-.064.239-.125.363-.191.133-.07.268-.14.396-.211.124-.062.247-.124.366-.183.135-.071.271-.138.41-.207.121-.063.244-.114.363-.172.139-.064.277-.133.416-.197.124-.055.25-.106.369-.163.142-.062.28-.125.419-.188.126-.048.247-.102.372-.153.142-.06.284-.117.425-.172.127-.054.254-.103.375-.148.142-.056.284-.115.428-.167.126-.045.256-.093.385-.143.142-.047.284-.101.429-.153.125-.039.254-.086.387-.129.141-.045.286-.095.428-.145.133-.04.265-.08.398-.12.142-.046.286-.089.428-.132l.402-.118c.142-.035.284-.079.425-.115.138-.041.277-.07.416-.112.142-.033.283-.07.422-.104.142-.037.283-.068.425-.102.139-.031.28-.067.415-.095.146-.035.29-.061.437-.093.133-.031.272-.057.413-.086.145-.027.289-.052.438-.08.139-.023.277-.051.416-.077.148-.023.296-.045.443-.071.138-.021.275-.041.414-.067.15-.021.301-.039.449-.061.139-.018.277-.037.416-.051.147-.023.3-.038.452-.054.136-.015.274-.029.413-.045.15-.016.305-.028.463-.04.131-.013.269-.029.407-.038.151-.012.309-.021.46-.031.095-.003.189-.009.29-.015-6.519 4.543-11.679 10.683-15.038 17.889-3.102-2.186-5.805-4.998-7.87-8.181zm22.905 63.994h-.014c-.119-.006-.242-.015-.358-.023-.191-.021-.386-.029-.572-.046-.124-.009-.245-.021-.364-.033-.187-.015-.379-.03-.563-.051-.123-.012-.247-.035-.366-.048-.186-.021-.374-.043-.554-.063-.124-.016-.248-.033-.366-.061-.186-.023-.364-.048-.548-.076-.125-.018-.246-.038-.37-.065-.183-.029-.357-.057-.537-.088-.123-.021-.249-.054-.376-.077-.171-.03-.347-.063-.519-.097-.13-.036-.257-.063-.381-.088-.174-.035-.339-.081-.505-.117-.133-.03-.262-.06-.392-.091-.163-.048-.329-.084-.493-.126-.128-.04-.261-.076-.394-.108-.159-.043-.321-.092-.48-.136-.133-.036-.262-.081-.394-.121-.161-.045-.315-.087-.472-.141-.133-.043-.269-.085-.397-.133-.155-.049-.308-.094-.459-.15-.136-.046-.267-.092-.399-.146-.148-.048-.3-.108-.448-.159-.131-.045-.267-.106-.405-.153-.142-.052-.286-.112-.428-.167-.139-.061-.277-.114-.413-.168-.139-.064-.278-.115-.417-.181-.138-.056-.274-.112-.412-.178-.131-.059-.267-.121-.403-.179-.139-.069-.277-.129-.416-.193-.129-.065-.262-.123-.39-.192-.139-.063-.277-.139-.416-.204-.13-.067-.256-.127-.383-.196-.138-.069-.275-.147-.415-.217-.124-.068-.247-.13-.366-.193-.142-.081-.28-.165-.419-.238-.12-.071-.241-.135-.357-.199-.139-.084-.277-.171-.416-.249-.117-.076-.23-.139-.348-.212-.139-.081-.277-.175-.416-.256-.11-.075-.221-.139-.332-.214-.139-.093-.277-.181-.416-.276-.111-.067-.215-.142-.324-.212-.138-.096-.272-.199-.414-.29-.105-.074-.206-.141-.312-.219-.138-.104-.27-.199-.408-.302-.103-.068-.204-.148-.303-.226-.134-.097-.27-.205-.405-.313-.099-.069-.197-.147-.292-.221-.136-.107-.271-.22-.404-.331-.095-.072-.192-.153-.287-.226-.133-.112-.262-.226-.391-.332-.096-.085-.188-.165-.28-.241-.13-.116-.26-.234-.389-.353-.089-.075-.182-.159-.271-.234-.043-.046-.086-.085-.125-.121 2.059-3.168 4.75-5.97 7.841-8.149 3.292 7.089 8.435 13.267 15.053 17.879zm1.459-.561c-6.837-4.571-12.115-10.835-15.427-18.045 4.614-2.966 9.922-4.58 15.427-4.698v22.743zm0-49.84c-5.499-.121-10.796-1.729-15.409-4.689 3.377-7.339 8.679-13.549 15.409-18.051v22.74zm0-24.643c-9.583.16-18.675 3.868-25.642 10.477-2.544 2.411-4.705 5.101-6.462 8.013l-17.577-10.114c.452-.966.708-2.04.708-3.176 0-1.136-.259-2.22-.711-3.186l44.16-25.5c1.246 1.782 3.239 2.995 5.523 3.192v20.294zm1.287-20.294c2.285-.197 4.28-1.41 5.522-3.192l44.165 25.5c-.461.965-.711 2.05-.711 3.186 0 1.136.247 2.21.705 3.176l-17.581 10.114c-1.754-2.912-3.915-5.599-6.458-8.013-3.481-3.306-7.496-5.882-11.837-7.657-4.34-1.769-9.011-2.739-13.804-2.815v-20.299zm16.493 39.527c-3.359-7.21-8.525-13.352-15.034-17.889.103.006.2.012.301.018.148.009.294.016.441.028.144.009.292.028.44.04.142.013.286.022.428.038.147.016.295.034.442.049.142.014.284.027.425.05.147.018.296.036.446.059.139.019.277.036.416.054.148.026.299.05.446.071.14.025.275.046.411.067.15.029.299.056.449.08.135.029.271.05.407.077.15.031.298.062.449.096.133.024.266.056.397.083.151.03.302.067.453.101.129.034.257.061.387.096.153.033.307.077.46.113.122.034.251.064.378.103.154.039.305.083.458.125.124.038.25.071.37.108.158.046.312.092.462.141.124.037.243.074.367.111.153.052.304.105.458.158.12.036.241.077.357.116.157.056.308.114.462.169.113.04.233.083.351.123.153.06.305.121.459.182.117.048.227.087.344.133.15.065.305.122.455.188.115.05.228.096.342.142.15.068.305.136.455.203.112.05.219.095.333.148.15.071.304.145.455.216.111.052.216.102.324.15.153.077.305.154.458.235.106.048.209.102.315.157.151.077.302.156.453.236.101.058.208.112.309.165.148.085.296.168.444.251.105.058.206.112.312.171.147.086.292.176.436.262.102.062.207.121.308.181.142.09.287.179.429.268.101.065.206.127.307.194.142.089.283.184.425.281.102.064.201.129.298.193.142.1.283.196.425.3.099.063.195.13.289.195.143.104.281.207.42.307.099.07.194.138.287.212.139.097.277.205.413.312.095.068.191.143.283.212.142.112.28.225.418.34.09.066.175.142.261.208.144.12.287.244.428.365.08.063.167.135.247.202.151.129.299.265.446.397.071.058.142.123.209.184.086.082.172.156.255.241-2.06 3.184-4.767 5.996-7.869 8.184zm7.859 46.079c-.039.032-.08.068-.116.114l-.33.289c-.109.094-.219.196-.333.299-.107.088-.222.183-.329.283-.117.091-.228.189-.344.289-.112.084-.222.178-.336.271-.113.091-.23.19-.352.286-.109.085-.227.175-.338.264-.12.09-.241.186-.36.27-.114.091-.233.178-.348.259-.124.092-.245.18-.364.269-.12.088-.237.166-.357.251-.123.081-.247.172-.368.262-.121.076-.242.156-.361.232-.125.087-.252.169-.382.253-.116.081-.239.153-.36.232-.125.078-.258.166-.388.24-.123.079-.245.146-.366.225-.132.071-.265.156-.398.229-.122.075-.246.142-.369.213-.136.074-.271.153-.41.233-.12.063-.246.128-.37.195-.139.069-.276.147-.411.214-.127.072-.252.13-.379.199-.142.066-.28.142-.419.205-.125.065-.254.124-.381.187-.142.064-.283.127-.428.199-.127.055-.251.114-.381.168l-.435.191c-.129.06-.259.107-.392.169-.145.056-.292.113-.44.177-.129.049-.255.105-.387.151-.148.055-.299.12-.446.172-.133.045-.266.096-.398.142-.151.051-.302.11-.452.16-.133.053-.268.093-.404.136-.15.044-.302.102-.452.147-.135.05-.271.087-.407.126-.154.043-.305.097-.462.139-.132.036-.271.082-.407.115-.153.042-.311.081-.467.13-.135.032-.271.065-.411.096-.156.049-.317.084-.474.12-.138.03-.274.066-.41.097-.163.033-.319.066-.479.108-.139.027-.277.052-.416.079-.163.03-.323.068-.488.095-.139.025-.28.047-.418.07-.162.033-.322.06-.486.084-.141.022-.28.04-.422.062-.166.029-.33.053-.492.074-.142.019-.284.033-.425.049-.162.019-.333.048-.499.063-.142.016-.283.027-.425.04-.166.015-.336.03-.501.042-.146.013-.287.021-.432.03-.163.021-.326.03-.493.039 6.625-4.614 11.764-10.793 15.055-17.882 3.089 2.175 5.78 4.978 7.843 8.149zm-24.352-63.41c6.727 4.499 12.032 10.712 15.409 18.051-4.613 2.96-9.91 4.568-15.409 4.689v-22.74zm0 49.838c5.505.117 10.813 1.732 15.427 4.698-3.309 7.206-8.589 13.47-15.427 18.045v-22.743zm5.523 48.133c-1.246-1.787-3.238-2.998-5.522-3.2v-20.294c9.842-.162 18.795-4.074 25.487-10.368.016-.009.038-.015.054-.023.088-.063.159-.136.212-.226 2.484-2.388 4.656-5.094 6.427-8.072l17.504 10.061c-.462.971-.708 2.041-.708 3.177 0 1.225.292 2.372.802 3.388l-44.256 25.557zM501 244.746c-2.287.189-4.286 1.416-5.534 3.197l-17.501-10.063c3.014-5.458 4.73-11.727 4.73-18.38 0-6.637-1.668-12.981-4.803-18.596l17.57-10.104c1.248 1.79 3.25 3.008 5.537 3.197v50.749z" transform="translate(-444.5 -219.5)" vector-effect="non-scaling-stroke"/>
  </g>
  <path fill="#fff" d="M43.9738 85.4068v21.5908h-5.6364V85.4068h5.6364zm22.4077 7.5768c0 5.082-3.1724 8.0388-8.6856 8.0388h-3.85v5.9752h-5.6364V85.4068h9.4864c5.5143 0 8.6856 2.772 8.6856 7.5768zm-5.3592.1848c0-2.1252-1.3244-3.2648-3.6036-3.2648h-3.5728v6.622h3.5728c2.2803 0 3.6036-1.1704 3.6036-3.3572zm31.8748 10.01h-9.3324l-1.5092 3.8192h-5.7904l9.2708-21.5908h5.7904l9.0552 21.5908h-6.006l-1.4784-3.8192zm-1.6632-4.312-2.9568-7.7-3.0184 7.7h5.9752zm31.98-2.6796c0 6.4372-4.7124 10.8108-11.704 10.8108h-9.086V85.4068h9.3016c6.8376 0 11.4884 4.3736 11.4884 10.78zm-5.7596.0616c0-3.7268-2.4332-6.2524-5.852-6.2524h-3.542v12.4432h3.8192c3.2648 0 5.5748-2.4948 5.5748-6.1908zm29.4674-.0616c0 6.4372-4.7124 10.8108-11.704 10.8108h-9.086V85.4068h9.3016c6.8376 0 11.4884 4.3736 11.4884 10.78zm-5.7596.0616c0-3.7268-2.4332-6.2524-5.852-6.2524h-3.542v12.4432h3.8192c3.2648 0 5.5748-2.4948 5.5748-6.1908zm21.6302 10.7492-3.1416-5.9752h-4.1888v5.9752h-5.6364V85.4068h9.702c5.7288 0 8.9936 2.772 8.9936 7.5768 0 3.2648-1.3552 5.6672-3.85 6.9608l4.4968 7.0532h-6.3756zm-7.3315-10.472h4.0964c2.2792 0 3.6036-1.1704 3.6036-3.3572 0-2.1252-1.3244-3.2648-3.6036-3.2648h-4.0964v6.622zM189.26 85.4068v4.4968h-11.396v4.0348h10.2872v4.466l-10.2872.0308v4.0656h11.704v4.4968h-17.3404V85.4068H189.26zm11.7602 4.3458c-1.3552 0-2.2484.4928-2.2484 1.4784 0 3.5728 11.3652 1.54 11.3652 9.3016 0 4.4044-3.8808 6.6528-8.6856 6.6528-3.6036 0-7.3612-1.3244-9.9484-3.4496l2.1868-4.4044c2.2176 1.9096 5.5748 3.2648 7.8232 3.2648 1.6632 0 2.7104-.616 2.7104-1.7556 0-3.6652-11.3652-1.4476-11.3652-9.086 0-4.0348 3.4188-6.5912 8.624-6.5912 3.1724 0 6.3756.9856 8.624 2.4332l-2.1252 4.466c-2.2792-1.2936-5.1744-2.31-6.9608-2.31zm19.9878 0c-1.3552 0-2.2484.4928-2.2484 1.4784 0 3.5728 11.3652 1.54 11.3652 9.3016 0 4.4044-3.8808 6.6528-8.6856 6.6528-3.6036 0-7.3612-1.3244-9.9484-3.4496l2.1868-4.4044c2.2176 1.9096 5.5748 3.2648 7.8232 3.2648 1.6632 0 2.7104-.616 2.7104-1.7556 0-3.6652-11.3652-1.4476-11.3652-9.086 0-4.0348 3.4188-6.5912 8.624-6.5912 3.1724 0 6.3756.9856 8.624 2.4332l-2.1252 4.466c-2.2792-1.2936-5.1744-2.31-6.9608-2.31z" vector-effect="non-scaling-stroke"/>
  <path d="M411.4941 369.2156v2.7995h-5.8619v15.6827h-3.1152v-15.6827h-5.8355v-2.7995h14.8126zm14.7534 9.7437v8.7384h-3.036v-7.8947c0-2.112-1.2672-3.4056-3.3792-3.4056-2.508.0253-4.0128 1.9008-4.0128 4.3824v6.9168h-3.036v-19.591h3.036v8.2907c1.0032-1.9811 2.7984-2.8523 5.2019-2.8523 3.2725.0022 5.2261 2.0614 5.2261 5.4153zm16.4848 2.9156h-10.6128c.4752 2.1648 2.1384 3.5112 4.356 3.5112 1.5312 0 2.9315-.5808 3.9611-1.6368l1.6104 1.716c-1.3728 1.5048-3.3792 2.376-5.808 2.376-4.3307 0-7.1819-2.8776-7.1819-7.1016 0-4.2504 2.9315-7.128 7.1027-7.1555 4.9357 0 6.9421 3.2219 6.5725 8.2907zm-2.64-2.2176c-.1056-2.2704-1.6104-3.6443-3.9072-3.6443-2.2176 0-3.8027 1.3992-4.1195 3.6443h8.0267zm17.1165-10.0242c0 1.0296-.7656 1.7952-1.7688 1.7952s-1.7688-.7656-1.7688-1.7952c0-1.0571.7656-1.8216 1.7688-1.8216s1.7688.7645 1.7688 1.8216zm-.264 4.0117v14.047h-3.0096v-14.047h3.0096zm17.9496 5.3475v8.7384h-3.036v-7.8947c0-2.112-1.2672-3.4056-3.3792-3.4056-2.3232.0253-3.7752 1.6357-3.9875 3.8269v7.4723h-3.036v-14.047h3.036v2.6928c1.0032-1.9525 2.7984-2.7984 5.1755-2.7984 3.2736.0022 5.2272 2.0614 5.2272 5.4153zm12.106 7.8208c-1.1088.6611-2.2704 1.0307-3.4584 1.0307-2.112 0-3.9336-1.2144-3.9336-4.0931v-7.2864h-1.98v-2.2704h1.98v-3.8544h3.0096v3.8544h4.1459v2.2704h-4.1459v6.732c0 1.452.5544 1.9019 1.5048 1.9019.6336 0 1.2936-.2112 2.112-.6083l.7656 2.3232zm15.0263-4.9382h-10.6139c.4752 2.1648 2.1384 3.5112 4.356 3.5112 1.5312 0 2.9315-.5808 3.96-1.6368l1.6115 1.716c-1.3728 1.5048-3.3803 2.376-5.8091 2.376-4.3307 0-7.1819-2.8776-7.1819-7.1016 0-4.2504 2.9315-7.128 7.1027-7.1555 4.9379 0 6.9443 3.2219 6.5747 8.2907zm-2.64-2.2176c-.1056-2.2704-1.6104-3.6443-3.9072-3.6443-2.2176 0-3.8027 1.3992-4.1195 3.6443h8.0267zm13.7845-6.0891v2.9051c-2.8248-.1595-4.62 1.5048-4.8576 3.9072v7.3403h-3.0371v-14.047h3.0371v2.7995c.9493-1.9019 2.6389-2.9051 4.8576-2.9051zm15.9876 5.4241v8.7384h-3.036v-7.8947c0-2.112-1.2672-3.4056-3.3792-3.4056-2.3232.0253-3.7763 1.6357-3.9864 3.8269v7.4723h-3.0371v-14.047h3.0371v2.6928c1.0032-1.9525 2.7984-2.7984 5.1744-2.7984 3.2747.0022 5.2272 2.0614 5.2272 5.4153zm16.4979 2.8826h-10.6139c.4763 2.1648 2.1384 3.5112 4.3571 3.5112 1.5312 0 2.9304-.5808 3.96-1.6368l1.6115 1.716c-1.3728 1.5048-3.3792 2.376-5.8091 2.376-4.3296 0-7.1808-2.8776-7.1808-7.1016 0-4.2504 2.9304-7.128 7.1027-7.1555 4.9346 0 6.9421 3.2219 6.5725 8.2907zm-2.6411-2.2176c-.1056-2.2704-1.6104-3.6443-3.9083-3.6443-2.2176 0-3.8016 1.3992-4.1184 3.6443h8.0267zm13.8204 7.1558c-1.1088.6611-2.2704 1.0307-3.4595 1.0307-2.112 0-3.9336-1.2144-3.9336-4.0931v-7.2864h-1.98v-2.2704h1.98v-3.8544h3.0096v3.8544h4.1459v2.2704h-4.1459v6.732c0 1.452.5544 1.9019 1.5048 1.9019.6336 0 1.2936-.2112 2.112-.6083l.7667 2.3232zm258.498-18.6975 5.7035 15.0227 5.7552-15.0227h3.2472l-7.4712 18.4822h-3.2219l-7.3656-18.4822h3.3528zm20.4026.4175c0 1.0296-.7656 1.7952-1.7688 1.7952s-1.7688-.7656-1.7688-1.7952c0-1.0571.7656-1.8216 1.7688-1.8216s1.7688.7645 1.7688 1.8216zm-.264 4.0117v14.047h-3.0096v-14.047h3.0096zm8.475 2.3339c-1.188 0-2.0592.3949-2.0592 1.3981 0 2.5883 7.4712 1.188 7.4459 6.2843 0 2.8776-2.5608 4.1712-5.3856 4.1712-2.0592 0-4.2504-.6864-5.6507-1.9525l1.0824-2.1659c1.2144 1.0824 3.168 1.7424 4.6992 1.7424 1.2936 0 2.2968-.4488 2.2968-1.5048 0-2.8776-7.3931-1.2661-7.3656-6.336 0-2.8523 2.4816-4.0656 5.1744-4.0656 1.7688 0 3.6443.5269 4.9115 1.4256l-1.1099 2.244c-1.2408-.7656-2.7984-1.2408-4.0392-1.2408zm11.7745-6.3456c0 1.0296-.7656 1.7952-1.7688 1.7952s-1.7688-.7656-1.7688-1.7952c0-1.0571.7656-1.8216 1.7688-1.8216s1.7688.7645 1.7688 1.8216zm-.264 4.0117v14.047h-3.0096v-14.047h3.0096zm12.4834 13.1683c-1.1088.6611-2.2704 1.0307-3.4595 1.0307-2.112 0-3.9336-1.2144-3.9336-4.0931v-7.2864h-1.98v-2.2704h1.98v-3.8544h3.0096v3.8544h4.1459v2.2704h-4.1459v6.732c0 1.452.5544 1.9019 1.5048 1.9019.6336 0 1.2936-.2112 2.112-.6083l.7667 2.3232zm16.0001-6.1462c0 4.2504-2.9832 7.1544-7.3128 7.1544-4.356 0-7.3403-2.904-7.3403-7.1544 0-4.2251 2.9843-7.1027 7.3403-7.1027 4.3296 0 7.3128 2.8787 7.3128 7.1027zm-11.6171.0528c0 2.7192 1.7677 4.5672 4.3032 4.5672 2.508 0 4.2779-1.8491 4.2779-4.5672 0-2.6928-1.7688-4.5672-4.2779-4.5672-2.5344 0-4.3032 1.8744-4.3032 4.5672zm22.7667-7.1615v2.9051c-2.8248-.1595-4.62 1.5048-4.8576 3.9072v7.3403h-3.0371v-14.047h3.0371v2.7995c.9493-1.9019 2.6389-2.9051 4.8576-2.9051zm6.5019 2.4205c-1.188 0-2.0592.3949-2.0592 1.3981 0 2.5883 7.4712 1.188 7.4459 6.2843 0 2.8776-2.5608 4.1712-5.3856 4.1712-2.0592 0-4.2504-.6864-5.6507-1.9525l1.0824-2.1659c1.2144 1.0824 3.168 1.7424 4.6992 1.7424 1.2936 0 2.2968-.4488 2.2968-1.5048 0-2.8776-7.3931-1.2661-7.3656-6.336 0-2.8523 2.4816-4.0656 5.1744-4.0656 1.7688 0 3.6443.5269 4.9115 1.4256l-1.1099 2.244c-1.2408-.7656-2.7984-1.2408-4.0392-1.2408zm-73.0225 29.6769c0 2.0603-1.2408 3.6179-3.2472 4.1195 2.4816.4224 3.96 2.1912 3.96 4.6728 0 3.168-2.5608 5.0688-6.732 5.0688h-8.2115v-18.4822h8.0267c3.8269.0011 6.204 1.7435 6.204 4.6211zm-3.1955.5555c0-1.5323-1.188-2.4035-3.1691-2.376h-4.752v4.8576h4.752c1.9811 0 3.1691-.8987 3.1691-2.4816zm.7128 7.8408c0-1.6368-1.4509-2.6389-3.8808-2.6136h-4.752v5.2811h4.752c2.4288.0253 3.8808-.9515 3.8808-2.6675zm20.1225-1.555c0 4.2504-2.9832 7.1544-7.3128 7.1544-4.356 0-7.3403-2.904-7.3403-7.1544 0-4.2251 2.9843-7.1027 7.3403-7.1027 4.3307 0 7.3128 2.8776 7.3128 7.1027zm-11.616.0528c0 2.7192 1.7677 4.5672 4.3032 4.5672 2.508 0 4.2779-1.8491 4.2779-4.5672 0-2.6928-1.7688-4.5672-4.2779-4.5672-2.5355 0-4.3032 1.8744-4.3032 4.5672zm22.7894 6.0934c-1.1088.6611-2.2704 1.0307-3.4595 1.0307-2.112 0-3.9336-1.2144-3.9336-4.0931v-7.2864h-1.98v-2.2704h1.98v-3.8544h3.0096v3.8544h4.1459v2.2704h-4.1459v6.732c0 1.452.5544 1.9019 1.5048 1.9019.6336 0 1.2936-.2112 2.112-.6083l.7667 2.3232zm6.8304-10.8544c-1.188 0-2.0592.3949-2.0592 1.3981 0 2.5883 7.4712 1.188 7.4459 6.2843 0 2.8776-2.5608 4.1712-5.3856 4.1712-2.0592 0-4.2504-.6864-5.6507-1.9525l1.0824-2.1659c1.2144 1.0824 3.168 1.7424 4.6992 1.7424 1.2936 0 2.2968-.4488 2.2968-1.5048 0-2.8776-7.3931-1.2661-7.3656-6.336 0-2.8523 2.4816-4.0656 5.1744-4.0656 1.7688 0 3.6443.5269 4.9115 1.4256l-1.1099 2.244c-1.2408-.7667-2.7995-1.2408-4.0392-1.2408zm29.9717 12.2336c-1.0296-1.0307-2.0064-1.9536-2.8776-2.8248-1.6368 1.5576-3.5376 2.4552-5.5704 2.4552-3.3 0-5.808-2.1912-5.808-5.1744 0-2.6147 1.9019-4.0128 3.9864-5.1227-1.2144-1.6357-1.7677-2.9568-1.7677-4.2768 0-2.4552 1.9272-4.1723 4.8048-4.1723 2.772 0 4.6728 1.6115 4.6728 3.8808 0 2.5355-2.2187 3.8555-4.488 5.0435 1.0032 1.1352 2.2968 2.4552 3.8808 4.0128.6336-.9504 1.188-2.0592 1.6632-3.3264l1.9811 1.4784c-.5555 1.32-1.188 2.508-1.9283 3.5112l3.0096 2.9304-1.5587 1.5851zm-4.5408-4.4616c-1.8491-1.848-3.3264-3.3528-4.4891-4.6728-1.5312.8712-2.7192 1.848-2.7192 3.3528 0 1.8491 1.5048 3.1163 3.4056 3.1163 1.3464 0 2.64-.6611 3.8027-1.7963zm-3.7235-7.2336c1.7963-.924 3.3-1.8744 3.3-3.5112 0-1.2144-.8712-2.0064-2.244-2.0064-1.4784 0-2.4288.9768-2.4288 2.244 0 .9768.4488 2.0053 1.3728 3.2736zm26.1537-.2654c-2.4288 0-4.1712 1.8205-4.1712 4.488 0 2.6664 1.7424 4.488 4.1712 4.488 1.7688 0 3.1944-.5808 4.1459-1.6896l1.6896 1.6896c-1.2672 1.6643-3.3 2.6136-5.9675 2.6136-4.1712 0-7.0763-2.8776-7.0763-7.1016 0-4.2504 2.9051-7.1555 7.0763-7.1555 2.5355 0 4.5144.8184 5.808 2.2968l-1.6632 1.9536c-.9757-1.0032-2.3232-1.6093-4.0128-1.5829zm16.9771-2.6735v2.9051c-2.8248-.1595-4.62 1.5048-4.8576 3.9072v7.3403h-3.0371v-14.047h3.0371v2.7995c.9493-1.9019 2.6389-2.9051 4.8576-2.9051zm10.4142 14.1565v-1.7171c-1.0032 1.2419-2.6147 1.8491-4.6475 1.8491-3.0371 0-4.9368-1.8744-4.9368-4.356 0-2.5619 1.9272-4.1976 5.3064-4.2251h4.2504v-.4224c0-1.7688-1.1352-2.8248-3.3528-2.8248-1.3475 0-2.7467.4752-4.1459 1.4256l-1.2408-2.112c1.9525-1.1627 3.3792-1.7688 6.0456-1.7688 3.6168 0 5.6507 1.8491 5.676 4.9368l.0264 9.2147h-2.981zm-.0264-4.9368v-1.2936h-3.8016c-1.9811 0-2.9051.5269-2.9051 1.8744 0 1.2661 1.0307 2.0856 2.7203 2.0856 2.1648 0 3.828-1.1352 3.9864-2.6664zm7.6124-9.1081 3.6443 11.0363 3.5376-11.0363h3.1416l3.564 11.0363 3.5915-11.0363h3.0888l-5.1216 14.047h-3.1416l-3.564-10.4027-3.564 10.4027h-3.1152l-5.1744-14.047h3.113zm25.9676-5.572v19.591h-3.0371v-19.591h3.0371zm17.0043 13.7571h-10.6139c.4763 2.1648 2.1384 3.5112 4.3571 3.5112 1.5312 0 2.9304-.5808 3.96-1.6368l1.6115 1.716c-1.3728 1.5048-3.3792 2.376-5.8091 2.376-4.3296 0-7.1808-2.8776-7.1808-7.1016 0-4.2504 2.9304-7.128 7.1027-7.1555 4.9357 0 6.9421 3.2219 6.5725 8.2907zm-2.6411-2.2176c-.1056-2.2704-1.6104-3.6443-3.9083-3.6443-2.2176 0-3.8016 1.3992-4.1184 3.6443h8.0267zm13.7867-6.0791v2.9051c-2.8248-.1595-4.62 1.5048-4.8576 3.9072v7.3403h-3.0371v-14.047h3.0371v2.7995c.9493-1.9019 2.6389-2.9051 4.8576-2.9051zm6.5019 2.4005c-1.188 0-2.0592.3949-2.0592 1.3981 0 2.5883 7.4712 1.188 7.4459 6.2843 0 2.8776-2.5608 4.1712-5.3856 4.1712-2.0592 0-4.2504-.6864-5.6507-1.9525l1.0824-2.1659c1.2144 1.0824 3.168 1.7424 4.6992 1.7424 1.2936 0 2.2968-.4488 2.2968-1.5048 0-2.8776-7.3931-1.2661-7.3656-6.336 0-2.8523 2.4816-4.0656 5.1744-4.0656 1.7688 0 3.6443.5269 4.9115 1.4256l-1.1099 2.244c-1.2408-.7667-2.7984-1.2408-4.0392-1.2408zM35.0941 137.1712v18.5086h-3.1163v-15.7091h-3.9864v-2.7984h7.1027zm16.3578 0v18.5086h-3.1163v-15.7091h-3.9864v-2.7984h7.1027zm16.3567 0v18.5086h-3.1163v-15.7091H60.707v-2.7984h7.1016zm11.0035 17.0324c0 1.0296-.7128 1.7688-1.6632 1.7688s-1.6632-.7392-1.6632-1.7688c0-1.0032.7128-1.716 1.6632-1.716s1.6632.7117 1.6632 1.716zm11.9976-12.0457c0-1.5048-1.2144-2.376-3.2472-2.376-1.6632 0-3.6179.8712-5.2019 2.2968l-1.2672-2.4035c2.0592-1.6368 4.4627-2.64 6.8915-2.64 3.6168 0 6.0731 1.8216 6.0731 4.6728 0 1.848-1.452 3.9347-3.4848 6.0467l-5.0688 5.1216h9.4523v2.7984H81.4102v-2.2968l7.0499-7.2875c1.3992-1.3981 2.3496-2.8765 2.3496-3.9325zm16.3688 0c0-1.5048-1.2144-2.376-3.2472-2.376-1.6632 0-3.6179.8712-5.2019 2.2968l-1.2672-2.4035c2.0592-1.6368 4.4627-2.64 6.8915-2.64 3.6168 0 6.0731 1.8216 6.0731 4.6728 0 1.848-1.452 3.9347-3.4848 6.0467l-5.0688 5.1216h9.4523v2.7984H97.779v-2.2968l7.0499-7.2875c1.3992-1.3981 2.3496-2.8765 2.3496-3.9325zm16.3578 0c0-1.5048-1.2144-2.376-3.2472-2.376-1.6632 0-3.6179.8712-5.2019 2.2968l-1.2672-2.4035c2.0592-1.6368 4.4627-2.64 6.8915-2.64 3.6168 0 6.0731 1.8216 6.0731 4.6728 0 1.848-1.452 3.9347-3.4848 6.0467l-5.0688 5.1216h9.4523v2.7984H114.139v-2.2968l7.0499-7.2875c1.3959-1.3981 2.3474-2.8765 2.3474-3.9325zm10.1413 12.0457c0 1.0296-.7128 1.7688-1.6632 1.7688s-1.6632-.7392-1.6632-1.7688c0-1.0032.7128-1.716 1.6632-1.716s1.6632.7117 1.6632 1.716zm15.7474-4.2617c0 3.4595-2.7984 5.8619-7.2611 5.8619-2.4552 0-5.0171-.792-6.7067-2.0064l1.2936-2.5344c1.452 1.2408 3.3264 1.9272 5.2019 1.9272 2.7984 0 4.4352-1.2672 4.4352-3.1944 0-2.0064-1.6632-3.036-4.4891-3.036h-2.6928v-1.7952l5.4131-5.2019h-8.2379l-.0264-2.772h12.1451v1.9536l-5.94 5.7288 1.0824.0792c3.4584.2904 5.7827 2.0592 5.7827 4.9896zm16.3667 0c0 3.4595-2.7984 5.8619-7.2611 5.8619-2.4552 0-5.0171-.792-6.7067-2.0064l1.2936-2.5344c1.452 1.2408 3.3264 1.9272 5.2019 1.9272 2.7984 0 4.4352-1.2672 4.4352-3.1944 0-2.0064-1.6632-3.036-4.4891-3.036h-2.6928v-1.7952l5.4131-5.2019h-8.2379l-.0264-2.772h12.1451v1.9536l-5.94 5.7288 1.0824.0792c3.4595.2904 5.7827 2.0592 5.7827 4.9896zm16.3578 0c0 3.4595-2.7984 5.8619-7.2611 5.8619-2.4552 0-5.0171-.792-6.7067-2.0064l1.2936-2.5344c1.452 1.2408 3.3264 1.9272 5.2019 1.9272 2.7984 0 4.4352-1.2672 4.4352-3.1944 0-2.0064-1.6632-3.036-4.4891-3.036h-2.6928v-1.7952l5.4131-5.2019h-8.2379l-.0264-2.772h12.1451v1.9536l-5.94 5.7288 1.0824.0792c3.4595.2904 5.7827 2.0592 5.7827 4.9896zm6.3915 4.2617c0 1.0296-.7128 1.7688-1.6632 1.7688s-1.6632-.7392-1.6632-1.7688c0-1.0032.7128-1.716 1.6632-1.716s1.6632.7117 1.6632 1.716zm11.6106-17.0324-6.1248 11.1683h5.6771l-.0264-4.356h2.904l.0264 4.356h2.7192v2.7984h-2.7456v4.5408h-2.904v-4.5408h-9.0035v-2.3232l6.4691-11.6435h3.0085zm16.3567 0-6.1248 11.1683h5.6771l-.0264-4.356h2.904l.0264 4.356h2.7192v2.7984h-2.7456v4.5408h-2.904v-4.5408h-9.0035v-2.3232l6.4691-11.6435h3.0085zm16.3578 0-6.1248 11.1683h5.6771l-.0264-4.356h2.904l.0264 4.356h2.7192v2.7984h-2.7456v4.5408h-2.904v-4.5408h-9.0035v-2.3232l6.4691-11.6435h3.0085z" vector-effect="non-scaling-stroke"/>
  <rect width="189" height="44" x="-94.5" y="-22" fill="#0052cc" rx="0" ry="0" transform="matrix(1.1 0 0 1.1 798.7 96.17)" vector-effect="non-scaling-stroke"/>
  <path fill="#fff" d="M733.346 103.1784h-9.3324l-1.5092 3.8192h-5.7915l9.2719-21.5908h5.7904l9.0541 21.5908h-6.0049l-1.4784-3.8192zm-1.6632-4.312-2.9568-7.7-3.0173 7.7h5.9741zm18.9726-3.032v3.5112h-8.162v-3.5112h8.162zm16.8102 11.1632-3.1405-5.9752h-4.1888v5.9752h-5.6364V85.4068h9.702c5.7288 0 8.9936 2.772 8.9936 7.5768 0 3.2648-1.3541 5.6672-3.85 6.9608l4.4968 7.0532h-6.3767zm-7.3304-10.472h4.0975c2.2781 0 3.6025-1.1704 3.6025-3.3572 0-2.1252-1.3244-3.2648-3.6025-3.2648h-4.0975v6.622zm33.7992-11.1188v4.4968h-11.396v4.0348h10.2883v4.466l-10.2883.0308v4.0656h11.7051v4.4968H776.902V85.4068h17.0324zm14.1039 4.616c-3.3253 0-5.8509 2.618-5.8509 6.0676 0 3.4804 2.5256 6.1292 5.8509 6.1292 1.7875 0 3.85-.9856 5.3603-2.5256l3.2945 3.542c-2.31 2.4332-5.7585 4.004-8.9617 4.004-6.4988 0-11.3355-4.7432-11.3355-11.088 0-6.2216 4.9588-10.9032 11.55-10.9032 3.2032 0 6.5615 1.4168 8.7164 3.696l-3.2637 3.9116c-1.4179-1.7248-3.4804-2.8336-5.3603-2.8336zm32.746 6.16c0 6.314-4.9885 11.0572-11.6721 11.0572s-11.6732-4.7432-11.6732-11.0572c0-6.2832 4.9896-10.934 11.6732-10.934 6.6836 0 11.6721 4.6816 11.6721 10.934zm-17.5549.0308c0 3.5112 2.7401 6.2216 5.9433 6.2216 3.234 0 5.8212-2.7104 5.8212-6.2216 0-3.5112-2.5872-6.16-5.8212-6.16s-5.9433 2.6488-5.9433 6.16zm33.4295 10.784-3.1405-5.9752h-4.1888v5.9752h-5.6364V85.4068h9.702c5.7288 0 8.9936 2.772 8.9936 7.5768 0 3.2648-1.3541 5.6672-3.85 6.9608l4.4968 7.0532h-6.3767zm-7.3304-10.472h4.0975c2.2781 0 3.6025-1.1704 3.6025-3.3572 0-2.1252-1.3244-3.2648-3.6025-3.2648h-4.0975v6.622zm37.5587-.3388c0 6.4372-4.7124 10.8108-11.704 10.8108h-9.086V85.4068h9.3005c6.8398 0 11.4895 4.3736 11.4895 10.78zm-5.7585.0616c0-3.7268-2.4343-6.2524-5.852-6.2524h-3.5431v12.4432h3.8203c3.2637 0 5.5748-2.4948 5.5748-6.1908z" vector-effect="non-scaling-stroke"/>
  <path d="m721.2822 137.1756 9.9011 13.2803v-13.2803h3.0624v18.4811h-3.0624l-9.8472-13.2539v13.2539h-3.1163v-18.4811h3.0624zm26.1633 18.4992v-1.716c-1.0032 1.2408-2.6147 1.848-4.6475 1.848-3.036 0-4.9368-1.8744-4.9368-4.356 0-2.5608 1.9272-4.1976 5.3064-4.224h4.2504v-.4224c0-1.7688-1.1352-2.8248-3.3528-2.8248-1.3475 0-2.7456.4752-4.1459 1.4256l-1.2408-2.112c1.9525-1.1616 3.3792-1.7688 6.0456-1.7688 3.6168 0 5.6507 1.848 5.676 4.9368l.0264 9.2147h-2.981zm-.0264-4.9379v-1.2936h-3.8016c-1.9811 0-2.9051.528-2.9051 1.8744 0 1.2672 1.0296 2.0856 2.7203 2.0856 2.1637.0011 3.828-1.1352 3.9864-2.6664zm30.6268-3.7956v8.7395h-3.036v-7.8947c0-2.1384-1.2672-3.432-3.3253-3.432-2.4046.0792-3.8555 1.9272-3.8555 4.3824v6.9443h-3.0371v-7.8947c0-2.1384-1.2408-3.432-3.3-3.432-2.4288.0792-3.9083 1.9272-3.9083 4.3824v6.9443h-3.0096v-14.0459h3.0096v2.7192c.9779-1.98 2.7731-2.8248 5.0963-2.8248 2.508 0 4.224 1.2408 4.884 3.3792.8965-2.3496 2.7731-3.3792 5.3339-3.3792 3.2208-.0011 5.148 2.0581 5.148 5.412zm16.5308 2.8836h-10.6128c.4752 2.1648 2.1373 3.5112 4.3549 3.5112 1.5323 0 2.9315-.5808 3.9622-1.6368l1.6093 1.7171c-1.3728 1.5048-3.3792 2.376-5.8069 2.376-4.3318 0-7.1819-2.8776-7.1819-7.1027 0-4.2515 2.9304-7.1291 7.1027-7.1555 4.9357 0 6.9421 3.2219 6.5725 8.2907zm-2.64-2.2176c-.1056-2.2704-1.6115-3.6432-3.9083-3.6432-2.2176 0-3.8016 1.3992-4.1184 3.6432h8.0267zm9.8298-3.6797c-1.188 0-2.0581.396-2.0581 1.3992 0 2.5872 7.4712 1.188 7.4448 6.2832 0 2.8776-2.5608 4.1712-5.3856 4.1712-2.0581 0-4.2493-.6864-5.6507-1.9536l1.0824-2.1648c1.2144 1.0824 3.1691 1.7424 4.6992 1.7424 1.2947 0 2.2979-.4488 2.2979-1.5048 0-2.8776-7.3931-1.2672-7.3667-6.3371 0-2.8512 2.4816-4.0656 5.1755-4.0656 1.7677 0 3.6443.528 4.9104 1.4256l-1.1088 2.244c-1.2408-.7634-2.7984-1.2397-4.0403-1.2397zm20.8713 5.8973H812.025c.4752 2.1648 2.1384 3.5112 4.3571 3.5112 1.5312 0 2.9304-.5808 3.96-1.6368l1.6115 1.7171c-1.3728 1.5048-3.3792 2.376-5.8091 2.376-4.3296 0-7.1808-2.8776-7.1808-7.1027 0-4.2515 2.9315-7.1291 7.1027-7.1555 4.9346 0 6.941 3.2219 6.5714 8.2907zm-2.64-2.2176c-.1067-2.2704-1.6104-3.6432-3.9072-3.6432-2.2187 0-3.8027 1.3992-4.1195 3.6432h8.0267zm13.7856-6.0681v2.904c-2.8248-.1584-4.6211 1.5048-4.8587 3.9083v7.3392h-3.0371v-14.0459h3.0371v2.7984c.9504-1.9008 2.6411-2.904 4.8587-2.904zm4.1807.1017 3.9072 11.0627 3.8555-11.0627h3.0371l-5.3856 14.0459h-3.1427l-5.4373-14.0459h3.1658zm24.8059 8.184h-10.6128c.4752 2.1648 2.1373 3.5112 4.356 3.5112 1.5312 0 2.9315-.5808 3.9611-1.6368l1.6104 1.7171c-1.3728 1.5048-3.3792 2.376-5.808 2.376-4.3307 0-7.1819-2.8776-7.1819-7.1027 0-4.2515 2.9315-7.1291 7.1027-7.1555 4.9357 0 6.9421 3.2219 6.5725 8.2907zm-2.64-2.2176c-.1056-2.2704-1.6104-3.6432-3.9072-3.6432-2.2187 0-3.8016 1.3992-4.1195 3.6432h8.0267zm13.7646-6.0681v2.904c-2.8248-.1584-4.62 1.5048-4.8587 3.9083v7.3392h-3.036v-14.0459h3.036v2.7984c.9515-1.9008 2.64-2.904 4.8587-2.904zm6.513 2.3884c-1.188 0-2.0592.396-2.0592 1.3992 0 2.5872 7.4712 1.188 7.4459 6.2832 0 2.8776-2.5608 4.1712-5.3856 4.1712-2.0592 0-4.2504-.6864-5.6507-1.9536l1.0824-2.1648c1.2144 1.0824 3.168 1.7424 4.6992 1.7424 1.2936 0 2.2968-.4488 2.2968-1.5048 0-2.8776-7.3931-1.2672-7.3656-6.3371 0-2.8512 2.4816-4.0656 5.1744-4.0656 1.7688 0 3.6443.528 4.9104 1.4256l-1.1088 2.244c-1.2408-.7634-2.7984-1.2397-4.0392-1.2397z" vector-effect="non-scaling-stroke"/>
  <path fill="none" d="M371.96395 101.82h-36.9479" vector-effect="non-scaling-stroke"/>
  <path fill="#202020" d="m386.475 60.415 12.276 12.265-28.93 28.93 28.93 28.93-12.276 12.265-41.206-41.195z" vector-effect="non-scaling-stroke"/>
  <path fill="#252f3e" d="M63.05 396.283c0 1.773.18 3.213.522 4.275.378 1.053.864 2.205 1.53 3.456.2125247.33051246.32790942.71408865.333 1.107 0 .477-.288.963-.9 1.44l-3.024 2.016c-.36299994.26206298-.79472488.41222818-1.242.432-.486 0-.963-.234-1.44-.666a14.868 14.868 0 0 1-1.728-2.259 37.233 37.233 0 0 1-1.485-2.835c-3.735 4.419-8.424 6.633-14.076 6.633-4.023 0-7.236-1.161-9.576-3.465-2.349-2.304-3.546-5.382-3.546-9.225 0-4.086 1.44-7.398 4.356-9.9 2.925-2.502 6.804-3.744 11.736-3.744 1.62 0 3.303.144 5.076.378 1.773.243 3.6.63 5.508 1.062v-3.51c0-3.654-.765-6.201-2.25-7.686-1.53-1.494-4.122-2.214-7.812-2.214-1.674 0-3.393.198-5.166.63a38.07 38.07 0 0 0-5.175 1.629 13.725 13.725 0 0 1-1.674.63 2.934 2.934 0 0 1-.765.144c-.675 0-1.008-.486-1.008-1.494v-2.358c0-.765.09-1.35.333-1.674.36267429-.44158241.82549329-.7902394 1.35-1.017 1.665-.864 3.681-1.584 6.03-2.16 2.34-.63 4.833-.909 7.47-.909 5.697 0 9.864 1.296 12.546 3.888 2.637 2.592 3.978 6.534 3.978 11.826v15.57h.09zm-19.449 7.299c1.575 0 3.204-.288 4.932-.864 1.719-.576 3.258-1.638 4.545-3.078.77173994-.8841466 1.32918447-1.93435979 1.629-3.069.288-1.161.486-2.547.486-4.185v-2.016a39.87 39.87 0 0 0-4.41-.81 35.964 35.964 0 0 0-4.5-.297c-3.213 0-5.562.63-7.137 1.926-1.584 1.296-2.34 3.123-2.34 5.526 0 2.25.567 3.933 1.764 5.094 1.152 1.197 2.826 1.773 5.031 1.773zm38.457 5.193c-.864 0-1.44-.144-1.818-.486-.387-.288-.72-.954-1.008-1.872l-11.25-37.143a8.442 8.442 0 0 1-.441-1.926c0-.765.387-1.197 1.152-1.197h4.698c.9 0 1.53.144 1.863.477.387.288.675.963.963 1.872l8.046 31.815 7.47-31.815c.234-.954.522-1.584.9-1.872.57748568-.3537228 1.25018013-.52032469 1.926-.477h3.825c.918 0 1.53.144 1.917.477.387.288.72.963.909 1.872l7.569 32.202 8.28-32.202c.15355974-.69683343.4853814-1.34186992.963-1.872.5576561-.35342751 1.21321183-.52046815 1.872-.477h4.455c.765 0 1.197.387 1.197 1.197 0 .243-.054.486-.09.774a6.84 6.84 0 0 1-.342 1.197l-11.547 37.143c-.288.963-.621 1.593-.999 1.881-.5434889.34762117-1.18294334.51457232-1.827.477h-4.113c-.909 0-1.53-.144-1.917-.477-.387-.342-.72-.963-.909-1.926l-7.425-30.987-7.38 30.951c-.234.963-.522 1.584-.9 1.917-.387.342-1.062.486-1.917.486h-4.122zm61.542 1.296c-2.48542308.00332314-4.96255436-.28668247-7.38-.864-2.394-.576-4.257-1.206-5.508-1.926-.765-.432-1.287-.909-1.485-1.35-.18295458-.42346158-.27787821-.87970743-.279-1.341v-2.448c0-1.008.378-1.494 1.098-1.494.2939181.00065303.58575757.04929295.864.144.288.099.72.288 1.197.486 1.62.72 3.402 1.296 5.265 1.683 1.917.378 3.78.576 5.697.576 3.024 0 5.364-.531 6.993-1.584 1.59311055-.96441807 2.5451773-2.71044663 2.493-4.572.0326596-1.24700192-.4338688-2.4554401-1.296-3.357-.855-.918-2.484-1.737-4.833-2.502l-6.948-2.16c-3.492-1.107-6.084-2.745-7.659-4.905-1.541822-1.99582767-2.38318748-4.44401145-2.394-6.966 0-2.016.432-3.798 1.287-5.337.864-1.53 2.016-2.88 3.456-3.942 1.44-1.098 3.06-1.917 4.977-2.493 1.917-.576 3.924-.819 6.03-.819 1.062 0 2.16.045 3.213.189 1.098.144 2.106.342 3.114.54.954.234 1.872.468 2.727.765.864.288 1.53.576 2.016.864.56511947.28378577 1.05771853.69325874 1.44 1.197.30807348.4685928.45644735 1.0242056.423 1.584v2.259c0 1.008-.378 1.539-1.098 1.539-.63751096-.07279439-1.25488365-.26839762-1.818-.576-2.89411243-1.283185-6.03256838-1.92193142-9.198-1.872-2.727 0-4.887.432-6.372 1.35-1.485.9-2.25 2.304-2.25 4.275 0 1.341.477 2.493 1.44 3.411.954.909 2.727 1.818 5.265 2.637l6.804 2.16c3.447 1.107 5.94 2.646 7.425 4.617 1.485 1.971 2.196 4.23 2.196 6.732 0 2.07-.423 3.933-1.242 5.571-.84793172 1.64361398-2.0387478 3.0860974-3.492 4.23-1.485 1.197-3.258 2.07-5.319 2.691-2.16.675-4.41 1.008-6.849 1.008z" vector-effect="non-scaling-stroke"/>
  <path fill="#f90" fill-rule="evenodd" d="M152.6126 433.4242c-15.75 11.673-38.646 17.874-58.329 17.874-27.585 0-52.443-10.233-71.217-27.243-1.485-1.35-.144-3.177 1.62-2.115 20.313 11.817 45.36 18.981 71.28 18.981 17.469 0 36.675-3.654 54.351-11.151 2.637-1.197 4.887 1.728 2.295 3.654z" vector-effect="non-scaling-stroke"/>
  <path fill="#f90" fill-rule="evenodd" d="M159.2132 425.893c-2.007-2.583-13.311-1.242-18.432-.621-1.53.198-1.773-1.152-.387-2.16 9-6.345 23.805-4.518 25.524-2.403 1.728 2.16-.477 17.01-8.91 24.12-1.287 1.107-2.529.54-1.962-.9 1.917-4.77 6.183-15.48 4.167-18.027z" vector-effect="non-scaling-stroke"/>
  <path fill="#ef3f36" d="M903.040225 269.809765s18.56745-.8302275 28.411425 17.76618h-29.991375s-5.659875-.1817775-10.494675 6.66018c-1.388925 2.871675-2.8818 5.82975-1.20645 11.659725-2.4134175-4.074075-12.81258-22.116915-12.81258-22.116915s7.335-13.2339825 26.09343-13.96917h.000225Z" vector-effect="non-scaling-stroke"/>
  <path fill="#fcd900" d="M930.49765 317.0041s-8.567775 16.44255-29.64375 15.629625c2.60415-4.4892 14.99985-25.8795 14.99985-25.8795s2.99475-4.791825-.5382-12.386025c-1.797075-2.638125-3.628575-5.3973-9.531225-6.86781 4.7484-.0429975 25.6248 0 25.6248 0s7.821 12.948435-.911475 29.50371Z" vector-effect="non-scaling-stroke"/>
  <path fill="#61bc5b" d="M875.7387475 317.153725s-10.0086795-15.612525 1.24119-33.395895c2.5955325 4.489245 14.9911875 25.879545 14.9911875 25.879545s2.673675 4.982175 11.032875 5.7258c3.186-.23355 6.501825-.43245 10.738125-4.78305-2.3355 4.117275-12.81285 22.108275-12.81285 22.108275s-15.17346.27675-25.190775-15.534675h.0002475Z" vector-effect="non-scaling-stroke"/>
  <path fill="#5ab055" d="m900.850525 332.796625 4.21875-17.541s4.63545-.3636 8.524575-4.610475c-2.413575 4.23-12.743325 22.151475-12.743325 22.151475Z" vector-effect="non-scaling-stroke"/>
  <path fill="#fff" d="M888.9084925 301.49485c0-7.732575 6.2934075-14.0034825 14.0536575-14.0034825s14.053725 6.2709075 14.053725 14.0034825c0 7.732575-6.293475 14.003325-14.053725 14.003325-7.76025-.00855-14.0536575-6.27075-14.0536575-14.003325Z" vector-effect="non-scaling-stroke"/>
  <g transform="matrix(2.25 0 0 2.25 902.9725 301.498)">
    <linearGradient id="ad" x1="15.9661" x2="15.9661" y1="10.9804" y2="20.9594" gradientUnits="userSpaceOnUse">
      <stop offset="0%" stop-color="#86bbe5"/>
      <stop offset="100%" stop-color="#1072ba"/>
    </linearGradient>
    <path fill="url(#ad)" d="M10.7656 16.0892c0-2.86 2.3265-5.182 5.2007-5.182 2.8703 0 5.2006 2.3182 5.2006 5.182 0 2.8602-2.3263 5.1822-5.2006 5.1822-2.8704 0-5.2007-2.322-5.2007-5.1822Z" transform="translate(-15.97 -16.09)" vector-effect="non-scaling-stroke"/>
  </g>
  <path fill="#eaca05" d="M931.392475 287.5253425 914.0227 292.602625s-2.621475-3.831975-8.255025-5.0772825c4.887225-.026055 25.6248 0 25.6248 0Z" vector-effect="non-scaling-stroke"/>
  <path fill="#df3a32" d="M889.4350375 305.240425c-2.439495-4.21245-12.4740675-21.476925-12.4740675-21.476925l12.864555 12.680325s-1.3196025 2.707425-.8246025 6.58215l.4338675 2.21445h.0002475Z" vector-effect="non-scaling-stroke"/>
</svg>
