<?xml version="1.0" encoding="windows-1252"?>
<!-- Generator: Adobe Illustrator 13.0.0, SVG Export Plug-In . SVG Version: 6.00 Build 14948)  -->
<!DOCTYPE svg PUBLIC "-//W3C//DTD SVG 1.1//EN" "http://www.w3.org/Graphics/SVG/1.1/DTD/svg11.dtd">
<svg version="1.1" id="Layer_1" xmlns="http://www.w3.org/2000/svg" xmlns:xlink="http://www.w3.org/1999/xlink" x="0px" y="0px" width="950px" height="400px" viewBox="0 0 950 400" enable-background="new 0 0 950 400" xml:space="preserve">
<line fill="none" stroke="#000000" stroke-width="10" x1="345.5" y1="71.5" x2="564.5" y2="71.5"/>
<g>
	<rect x="26.5" y="43.5" fill="#0052CC" width="214" height="44"/>
</g>
<g>
	
		<linearGradient id="SVGID_1_" gradientUnits="userSpaceOnUse" x1="-19.8223" y1="-83.5454" x2="51.3846" y2="-154.7523" gradientTransform="matrix(1 0 0 -1 94 153)">
		<stop offset="0" style="stop-color:#FF29D8"/>
		<stop offset="1" style="stop-color:#2068FF"/>
	</linearGradient>
	<path fill="url(#SVGID_1_)" d="M106.817,275.038h3.501c1.296,0,2.352-1.053,2.352-2.349v-3.504c0-1.296-1.056-2.353-2.352-2.353   h-3.501c-1.296,0-2.352,1.057-2.352,2.353v3.504C104.465,273.985,105.521,275.038,106.817,275.038z"/>
	
		<linearGradient id="SVGID_2_" gradientUnits="userSpaceOnUse" x1="-14.228" y1="-77.9502" x2="56.9791" y2="-149.1573" gradientTransform="matrix(1 0 0 -1 94 153)">
		<stop offset="0" style="stop-color:#FF29D8"/>
		<stop offset="1" style="stop-color:#2068FF"/>
	</linearGradient>
	<path fill="url(#SVGID_2_)" d="M118.007,275.038h3.501c1.299,0,2.352-1.053,2.352-2.349v-3.504c0-1.296-1.053-2.353-2.352-2.353   h-3.501c-1.299,0-2.355,1.057-2.355,2.353v3.504C115.652,273.985,116.708,275.038,118.007,275.038z"/>
	
		<linearGradient id="SVGID_3_" gradientUnits="userSpaceOnUse" x1="27.8125" y1="-35.9097" x2="99.0191" y2="-107.1162" gradientTransform="matrix(1 0 0 -1 94 153)">
		<stop offset="0" style="stop-color:#FF29D8"/>
		<stop offset="1" style="stop-color:#2068FF"/>
	</linearGradient>
	<path fill="url(#SVGID_3_)" d="M121.508,182.752h-3.501c-1.299,0-2.355,1.057-2.355,2.352v3.504c0,1.297,1.056,2.353,2.355,2.353   h3.501c1.299,0,2.352-1.056,2.352-2.353v-3.504C123.86,183.809,122.807,182.752,121.508,182.752z"/>
	
		<linearGradient id="SVGID_4_" gradientUnits="userSpaceOnUse" x1="22.2178" y1="-41.5044" x2="93.4234" y2="-112.71" gradientTransform="matrix(1 0 0 -1 94 153)">
		<stop offset="0" style="stop-color:#FF29D8"/>
		<stop offset="1" style="stop-color:#2068FF"/>
	</linearGradient>
	<path fill="url(#SVGID_4_)" d="M110.318,182.752h-3.501c-1.296,0-2.352,1.057-2.352,2.352v3.504c0,1.297,1.056,2.353,2.352,2.353   h3.501c1.296,0,2.352-1.056,2.352-2.353v-3.504C112.67,183.809,111.614,182.752,110.318,182.752z"/>
	
		<linearGradient id="SVGID_5_" gradientUnits="userSpaceOnUse" x1="16.6216" y1="-47.1006" x2="87.8274" y2="-118.3064" gradientTransform="matrix(1 0 0 -1 94 153)">
		<stop offset="0" style="stop-color:#FF29D8"/>
		<stop offset="1" style="stop-color:#2068FF"/>
	</linearGradient>
	<path fill="url(#SVGID_5_)" d="M99.128,182.752h-3.504c-1.296,0-2.352,1.057-2.352,2.352v3.504c0,1.297,1.056,2.353,2.352,2.353   h3.504c1.296,0,2.349-1.056,2.349-2.353v-3.504C101.477,183.809,100.424,182.752,99.128,182.752z"/>
	
		<linearGradient id="SVGID_6_" gradientUnits="userSpaceOnUse" x1="8.9346" y1="-54.7905" x2="80.1458" y2="-126.0018" gradientTransform="matrix(1 0 0 -1 94 153)">
		<stop offset="0" style="stop-color:#FF29D8"/>
		<stop offset="1" style="stop-color:#2068FF"/>
	</linearGradient>
	<path fill="url(#SVGID_6_)" d="M82,182.752c-0.332,0-0.6,0.27-0.6,0.601v7.008c0,0.331,0.269,0.601,0.6,0.601   c0.331,0,0.6-0.27,0.6-0.601v-7.008C82.6,183.021,82.331,182.752,82,182.752z"/>
	
		<linearGradient id="SVGID_7_" gradientUnits="userSpaceOnUse" x1="6.7939" y1="-56.9312" x2="78.0054" y2="-128.1426" gradientTransform="matrix(1 0 0 -1 94 153)">
		<stop offset="0" style="stop-color:#FF29D8"/>
		<stop offset="1" style="stop-color:#2068FF"/>
	</linearGradient>
	<path fill="url(#SVGID_7_)" d="M77.718,182.752c-0.331,0-0.6,0.27-0.6,0.601v7.008c0,0.331,0.269,0.601,0.6,0.601   c0.332,0,0.6-0.27,0.6-0.601v-7.008C78.318,183.021,78.05,182.752,77.718,182.752z"/>
	
		<linearGradient id="SVGID_8_" gradientUnits="userSpaceOnUse" x1="4.6543" y1="-59.0713" x2="75.8656" y2="-130.2825" gradientTransform="matrix(1 0 0 -1 94 153)">
		<stop offset="0" style="stop-color:#FF29D8"/>
		<stop offset="1" style="stop-color:#2068FF"/>
	</linearGradient>
	<path fill="url(#SVGID_8_)" d="M73.438,182.752c-0.332,0-0.6,0.27-0.6,0.601v7.008c0,0.331,0.269,0.601,0.6,0.601   c0.331,0,0.6-0.27,0.6-0.601v-7.008C74.038,183.021,73.769,182.752,73.438,182.752z"/>
	
		<linearGradient id="SVGID_9_" gradientUnits="userSpaceOnUse" x1="2.5137" y1="-61.2134" x2="73.7261" y2="-132.4258" gradientTransform="matrix(1 0 0 -1 94 153)">
		<stop offset="0" style="stop-color:#FF29D8"/>
		<stop offset="1" style="stop-color:#2068FF"/>
	</linearGradient>
	<path fill="url(#SVGID_9_)" d="M69.155,182.752c-0.331,0-0.6,0.27-0.6,0.601v7.008c0,0.331,0.269,0.601,0.6,0.601   s0.6-0.27,0.6-0.601v-7.008C69.755,183.021,69.486,182.752,69.155,182.752z"/>
	
		<linearGradient id="SVGID_10_" gradientUnits="userSpaceOnUse" x1="0.373" y1="-63.354" x2="71.585" y2="-134.566" gradientTransform="matrix(1 0 0 -1 94 153)">
		<stop offset="0" style="stop-color:#FF29D8"/>
		<stop offset="1" style="stop-color:#2068FF"/>
	</linearGradient>
	<path fill="url(#SVGID_10_)" d="M64.875,182.752c-0.331,0-0.6,0.27-0.6,0.601v7.008c0,0.331,0.269,0.601,0.6,0.601   s0.6-0.27,0.6-0.601v-7.008C65.475,183.021,65.206,182.752,64.875,182.752z"/>
	
		<linearGradient id="SVGID_11_" gradientUnits="userSpaceOnUse" x1="11.7085" y1="-52.0137" x2="82.9169" y2="-123.222" gradientTransform="matrix(1 0 0 -1 94 153)">
		<stop offset="0" style="stop-color:#FF29D8"/>
		<stop offset="1" style="stop-color:#2068FF"/>
	</linearGradient>
	<path fill="url(#SVGID_11_)" d="M106.817,211.979h3.501c1.296,0,2.352-1.057,2.352-2.353v-3.501c0-1.299-1.056-2.355-2.352-2.355   h-3.501c-1.296,0-2.352,1.057-2.352,2.355v3.501C104.465,210.922,105.521,211.979,106.817,211.979z"/>
	
		<linearGradient id="SVGID_12_" gradientUnits="userSpaceOnUse" x1="6.1128" y1="-57.6104" x2="77.3213" y2="-128.8188" gradientTransform="matrix(1 0 0 -1 94 153)">
		<stop offset="0" style="stop-color:#FF29D8"/>
		<stop offset="1" style="stop-color:#2068FF"/>
	</linearGradient>
	<path fill="url(#SVGID_12_)" d="M95.624,211.979h3.504c1.296,0,2.349-1.057,2.349-2.353v-3.501c0-1.299-1.053-2.355-2.349-2.355   h-3.504c-1.296,0-2.352,1.057-2.352,2.355v3.501C93.272,210.922,94.328,211.979,95.624,211.979z"/>
	
		<linearGradient id="SVGID_13_" gradientUnits="userSpaceOnUse" x1="17.3022" y1="-46.4194" x2="88.5115" y2="-117.6287" gradientTransform="matrix(1 0 0 -1 94 153)">
		<stop offset="0" style="stop-color:#FF29D8"/>
		<stop offset="1" style="stop-color:#2068FF"/>
	</linearGradient>
	<path fill="url(#SVGID_13_)" d="M118.007,211.979h3.501c1.299,0,2.352-1.057,2.352-2.353v-3.501c0-1.299-1.053-2.355-2.352-2.355   h-3.501c-1.299,0-2.355,1.057-2.355,2.355v3.501C115.652,210.922,116.708,211.979,118.007,211.979z"/>
	
		<linearGradient id="SVGID_14_" gradientUnits="userSpaceOnUse" x1="-1.5762" y1="-65.2983" x2="69.6299" y2="-136.5044" gradientTransform="matrix(1 0 0 -1 94 153)">
		<stop offset="0" style="stop-color:#FF29D8"/>
		<stop offset="1" style="stop-color:#2068FF"/>
	</linearGradient>
	<path fill="url(#SVGID_14_)" d="M82,211.979c0.331,0,0.6-0.269,0.6-0.6v-7.006c0-0.332-0.269-0.601-0.6-0.601   c-0.332,0-0.6,0.269-0.6,0.601v7.006C81.4,211.71,81.668,211.979,82,211.979z"/>
	
		<linearGradient id="SVGID_15_" gradientUnits="userSpaceOnUse" x1="-3.7168" y1="-67.439" x2="67.4893" y2="-138.645" gradientTransform="matrix(1 0 0 -1 94 153)">
		<stop offset="0" style="stop-color:#FF29D8"/>
		<stop offset="1" style="stop-color:#2068FF"/>
	</linearGradient>
	<path fill="url(#SVGID_15_)" d="M77.718,211.979c0.332,0,0.6-0.269,0.6-0.6v-7.006c0-0.332-0.269-0.601-0.6-0.601   c-0.331,0-0.6,0.269-0.6,0.601v7.006C77.119,211.71,77.387,211.979,77.718,211.979z"/>
	
		<linearGradient id="SVGID_16_" gradientUnits="userSpaceOnUse" x1="-5.8564" y1="-69.5791" x2="65.3502" y2="-140.7858" gradientTransform="matrix(1 0 0 -1 94 153)">
		<stop offset="0" style="stop-color:#FF29D8"/>
		<stop offset="1" style="stop-color:#2068FF"/>
	</linearGradient>
	<path fill="url(#SVGID_16_)" d="M73.438,211.979c0.331,0,0.6-0.269,0.6-0.6v-7.006c0-0.332-0.269-0.601-0.6-0.601   c-0.332,0-0.6,0.269-0.6,0.601v7.006C72.838,211.71,73.106,211.979,73.438,211.979z"/>
	
		<linearGradient id="SVGID_17_" gradientUnits="userSpaceOnUse" x1="-7.9985" y1="-71.7212" x2="63.2091" y2="-142.9288" gradientTransform="matrix(1 0 0 -1 94 153)">
		<stop offset="0" style="stop-color:#FF29D8"/>
		<stop offset="1" style="stop-color:#2068FF"/>
	</linearGradient>
	<path fill="url(#SVGID_17_)" d="M69.155,211.979c0.331,0,0.6-0.269,0.6-0.6v-7.006c0-0.332-0.269-0.601-0.6-0.601   s-0.6,0.269-0.6,0.601v7.006C68.555,211.71,68.824,211.979,69.155,211.979z"/>
	
		<linearGradient id="SVGID_18_" gradientUnits="userSpaceOnUse" x1="-10.1387" y1="-73.8608" x2="61.0681" y2="-145.0676" gradientTransform="matrix(1 0 0 -1 94 153)">
		<stop offset="0" style="stop-color:#FF29D8"/>
		<stop offset="1" style="stop-color:#2068FF"/>
	</linearGradient>
	<path fill="url(#SVGID_18_)" d="M64.875,211.979c0.331,0,0.6-0.269,0.6-0.6v-7.006c0-0.332-0.269-0.601-0.6-0.601   s-0.6,0.269-0.6,0.601v7.006C64.274,211.71,64.543,211.979,64.875,211.979z"/>
	
		<linearGradient id="SVGID_19_" gradientUnits="userSpaceOnUse" x1="1.1982" y1="-62.5249" x2="72.4037" y2="-133.7304" gradientTransform="matrix(1 0 0 -1 94 153)">
		<stop offset="0" style="stop-color:#FF29D8"/>
		<stop offset="1" style="stop-color:#2068FF"/>
	</linearGradient>
	<path fill="url(#SVGID_19_)" d="M106.817,232.999h3.501c1.296,0,2.352-1.056,2.352-2.352v-3.504c0-1.296-1.056-2.35-2.352-2.35   h-3.501c-1.296,0-2.352,1.054-2.352,2.35v3.504C104.465,231.943,105.521,232.999,106.817,232.999z"/>
	
		<linearGradient id="SVGID_20_" gradientUnits="userSpaceOnUse" x1="-4.3979" y1="-68.1206" x2="66.8077" y2="-139.3262" gradientTransform="matrix(1 0 0 -1 94 153)">
		<stop offset="0" style="stop-color:#FF29D8"/>
		<stop offset="1" style="stop-color:#2068FF"/>
	</linearGradient>
	<path fill="url(#SVGID_20_)" d="M95.624,232.999h3.504c1.296,0,2.349-1.056,2.349-2.352v-3.504c0-1.296-1.053-2.35-2.349-2.35   h-3.504c-1.296,0-2.352,1.054-2.352,2.35v3.504C93.272,231.943,94.328,232.999,95.624,232.999z"/>
	
		<linearGradient id="SVGID_21_" gradientUnits="userSpaceOnUse" x1="6.793" y1="-56.9302" x2="77.9995" y2="-128.1367" gradientTransform="matrix(1 0 0 -1 94 153)">
		<stop offset="0" style="stop-color:#FF29D8"/>
		<stop offset="1" style="stop-color:#2068FF"/>
	</linearGradient>
	<path fill="url(#SVGID_21_)" d="M118.007,232.999h3.501c1.299,0,2.352-1.056,2.352-2.352v-3.504c0-1.296-1.053-2.35-2.352-2.35   h-3.501c-1.299,0-2.355,1.054-2.355,2.35v3.504C115.652,231.943,116.708,232.999,118.007,232.999z"/>
	
		<linearGradient id="SVGID_22_" gradientUnits="userSpaceOnUse" x1="-12.0864" y1="-75.8091" x2="59.1217" y2="-147.0172" gradientTransform="matrix(1 0 0 -1 94 153)">
		<stop offset="0" style="stop-color:#FF29D8"/>
		<stop offset="1" style="stop-color:#2068FF"/>
	</linearGradient>
	<path fill="url(#SVGID_22_)" d="M82,233c0.331,0,0.6-0.269,0.6-0.601v-7.007c0-0.33-0.269-0.6-0.6-0.6c-0.332,0-0.6,0.27-0.6,0.6   v7.007C81.4,232.731,81.668,233,82,233z"/>
	
		<linearGradient id="SVGID_23_" gradientUnits="userSpaceOnUse" x1="-14.2271" y1="-77.9497" x2="56.9811" y2="-149.1578" gradientTransform="matrix(1 0 0 -1 94 153)">
		<stop offset="0" style="stop-color:#FF29D8"/>
		<stop offset="1" style="stop-color:#2068FF"/>
	</linearGradient>
	<path fill="url(#SVGID_23_)" d="M77.718,233c0.332,0,0.6-0.269,0.6-0.601v-7.007c0-0.33-0.269-0.6-0.6-0.6   c-0.331,0-0.6,0.27-0.6,0.6v7.007C77.119,232.731,77.387,233,77.718,233z"/>
	
		<linearGradient id="SVGID_24_" gradientUnits="userSpaceOnUse" x1="-16.3677" y1="-80.0903" x2="54.8406" y2="-151.2986" gradientTransform="matrix(1 0 0 -1 94 153)">
		<stop offset="0" style="stop-color:#FF29D8"/>
		<stop offset="1" style="stop-color:#2068FF"/>
	</linearGradient>
	<path fill="url(#SVGID_24_)" d="M73.438,233c0.331,0,0.6-0.269,0.6-0.601v-7.007c0-0.33-0.269-0.6-0.6-0.6   c-0.332,0-0.6,0.27-0.6,0.6v7.007C72.838,232.731,73.106,233,73.438,233z"/>
	
		<linearGradient id="SVGID_25_" gradientUnits="userSpaceOnUse" x1="-18.5088" y1="-82.2319" x2="52.7003" y2="-153.441" gradientTransform="matrix(1 0 0 -1 94 153)">
		<stop offset="0" style="stop-color:#FF29D8"/>
		<stop offset="1" style="stop-color:#2068FF"/>
	</linearGradient>
	<path fill="url(#SVGID_25_)" d="M69.155,233c0.331,0,0.6-0.269,0.6-0.601v-7.007c0-0.33-0.269-0.6-0.6-0.6s-0.6,0.27-0.6,0.6v7.007   C68.555,232.731,68.824,233,69.155,233z"/>
	
		<linearGradient id="SVGID_26_" gradientUnits="userSpaceOnUse" x1="-20.6489" y1="-84.3721" x2="50.5597" y2="-155.5807" gradientTransform="matrix(1 0 0 -1 94 153)">
		<stop offset="0" style="stop-color:#FF29D8"/>
		<stop offset="1" style="stop-color:#2068FF"/>
	</linearGradient>
	<path fill="url(#SVGID_26_)" d="M64.875,233c0.331,0,0.6-0.269,0.6-0.601v-7.007c0-0.33-0.269-0.6-0.6-0.6s-0.6,0.27-0.6,0.6v7.007   C64.274,232.731,64.543,233,64.875,233z"/>
	
		<linearGradient id="SVGID_27_" gradientUnits="userSpaceOnUse" x1="-9.3115" y1="-73.0347" x2="61.8934" y2="-144.2396" gradientTransform="matrix(1 0 0 -1 94 153)">
		<stop offset="0" style="stop-color:#FF29D8"/>
		<stop offset="1" style="stop-color:#2068FF"/>
	</linearGradient>
	<path fill="url(#SVGID_27_)" d="M110.318,245.813h-3.501c-1.296,0-2.352,1.056-2.352,2.352v3.501c0,1.299,1.056,2.353,2.352,2.353   h3.501c1.296,0,2.352-1.054,2.352-2.353v-3.501C112.67,246.868,111.614,245.813,110.318,245.813z"/>
	
		<linearGradient id="SVGID_28_" gradientUnits="userSpaceOnUse" x1="-3.7168" y1="-67.4399" x2="67.4891" y2="-138.6459" gradientTransform="matrix(1 0 0 -1 94 153)">
		<stop offset="0" style="stop-color:#FF29D8"/>
		<stop offset="1" style="stop-color:#2068FF"/>
	</linearGradient>
	<path fill="url(#SVGID_28_)" d="M121.508,245.813h-3.501c-1.299,0-2.355,1.056-2.355,2.352v3.501c0,1.299,1.056,2.353,2.355,2.353   h3.501c1.299,0,2.352-1.054,2.352-2.353v-3.501C123.86,246.868,122.807,245.813,121.508,245.813z"/>
	
		<linearGradient id="SVGID_29_" gradientUnits="userSpaceOnUse" x1="-14.9077" y1="-78.6309" x2="56.2974" y2="-149.836" gradientTransform="matrix(1 0 0 -1 94 153)">
		<stop offset="0" style="stop-color:#FF29D8"/>
		<stop offset="1" style="stop-color:#2068FF"/>
	</linearGradient>
	<path fill="url(#SVGID_29_)" d="M99.128,245.813h-3.504c-1.296,0-2.352,1.056-2.352,2.352v3.501c0,1.299,1.056,2.353,2.352,2.353   h3.504c1.296,0,2.349-1.054,2.349-2.353v-3.501C101.477,246.868,100.424,245.813,99.128,245.813z"/>
	
		<linearGradient id="SVGID_30_" gradientUnits="userSpaceOnUse" x1="-22.5967" y1="-86.3188" x2="48.6113" y2="-157.5269" gradientTransform="matrix(1 0 0 -1 94 153)">
		<stop offset="0" style="stop-color:#FF29D8"/>
		<stop offset="1" style="stop-color:#2068FF"/>
	</linearGradient>
	<path fill="url(#SVGID_30_)" d="M82,245.813c-0.332,0-0.6,0.27-0.6,0.601v7.006c0,0.331,0.269,0.6,0.6,0.6   c0.331,0,0.6-0.269,0.6-0.6v-7.006C82.6,246.082,82.331,245.813,82,245.813z"/>
	
		<linearGradient id="SVGID_31_" gradientUnits="userSpaceOnUse" x1="-24.7373" y1="-88.4595" x2="46.4707" y2="-159.6675" gradientTransform="matrix(1 0 0 -1 94 153)">
		<stop offset="0" style="stop-color:#FF29D8"/>
		<stop offset="1" style="stop-color:#2068FF"/>
	</linearGradient>
	<path fill="url(#SVGID_31_)" d="M77.718,245.813c-0.331,0-0.6,0.27-0.6,0.601v7.006c0,0.331,0.269,0.6,0.6,0.6   c0.332,0,0.6-0.269,0.6-0.6v-7.006C78.318,246.082,78.05,245.813,77.718,245.813z"/>
	
		<linearGradient id="SVGID_32_" gradientUnits="userSpaceOnUse" x1="-26.8774" y1="-90.5991" x2="44.3308" y2="-161.8074" gradientTransform="matrix(1 0 0 -1 94 153)">
		<stop offset="0" style="stop-color:#FF29D8"/>
		<stop offset="1" style="stop-color:#2068FF"/>
	</linearGradient>
	<path fill="url(#SVGID_32_)" d="M73.438,245.813c-0.332,0-0.6,0.27-0.6,0.601v7.006c0,0.331,0.269,0.6,0.6,0.6   c0.331,0,0.6-0.269,0.6-0.6v-7.006C74.038,246.082,73.769,245.813,73.438,245.813z"/>
	
		<linearGradient id="SVGID_33_" gradientUnits="userSpaceOnUse" x1="-29.0186" y1="-92.7407" x2="42.1909" y2="-163.9501" gradientTransform="matrix(1 0 0 -1 94 153)">
		<stop offset="0" style="stop-color:#FF29D8"/>
		<stop offset="1" style="stop-color:#2068FF"/>
	</linearGradient>
	<path fill="url(#SVGID_33_)" d="M69.155,245.813c-0.331,0-0.6,0.27-0.6,0.601v7.006c0,0.331,0.269,0.6,0.6,0.6s0.6-0.269,0.6-0.6   v-7.006C69.755,246.082,69.486,245.813,69.155,245.813z"/>
	
		<linearGradient id="SVGID_34_" gradientUnits="userSpaceOnUse" x1="-31.1592" y1="-94.8813" x2="40.0494" y2="-166.0899" gradientTransform="matrix(1 0 0 -1 94 153)">
		<stop offset="0" style="stop-color:#FF29D8"/>
		<stop offset="1" style="stop-color:#2068FF"/>
	</linearGradient>
	<path fill="url(#SVGID_34_)" d="M64.875,245.813c-0.331,0-0.6,0.27-0.6,0.601v7.006c0,0.331,0.269,0.6,0.6,0.6s0.6-0.269,0.6-0.6   v-7.006C65.475,246.082,65.206,245.813,64.875,245.813z"/>
	
		<linearGradient id="SVGID_35_" gradientUnits="userSpaceOnUse" x1="-25.4185" y1="-89.1416" x2="45.7879" y2="-160.3479" gradientTransform="matrix(1 0 0 -1 94 153)">
		<stop offset="0" style="stop-color:#FF29D8"/>
		<stop offset="1" style="stop-color:#2068FF"/>
	</linearGradient>
	<path fill="url(#SVGID_35_)" d="M95.624,275.038h3.504c1.296,0,2.349-1.053,2.349-2.349v-3.504c0-1.296-1.053-2.353-2.349-2.353   h-3.504c-1.296,0-2.352,1.057-2.352,2.353v3.504C93.272,273.985,94.328,275.038,95.624,275.038z"/>
	
		<linearGradient id="SVGID_36_" gradientUnits="userSpaceOnUse" x1="-33.1064" y1="-96.8286" x2="38.1005" y2="-168.0355" gradientTransform="matrix(1 0 0 -1 94 153)">
		<stop offset="0" style="stop-color:#FF29D8"/>
		<stop offset="1" style="stop-color:#2068FF"/>
	</linearGradient>
	<path fill="url(#SVGID_36_)" d="M82,275.039c0.331,0,0.6-0.269,0.6-0.601v-7.005c0-0.331-0.269-0.6-0.6-0.6   c-0.332,0-0.6,0.269-0.6,0.6v7.005C81.4,274.771,81.668,275.039,82,275.039z"/>
	
		<linearGradient id="SVGID_37_" gradientUnits="userSpaceOnUse" x1="-35.2471" y1="-98.9692" x2="35.9598" y2="-170.1761" gradientTransform="matrix(1 0 0 -1 94 153)">
		<stop offset="0" style="stop-color:#FF29D8"/>
		<stop offset="1" style="stop-color:#2068FF"/>
	</linearGradient>
	<path fill="url(#SVGID_37_)" d="M77.718,275.039c0.332,0,0.6-0.269,0.6-0.601v-7.005c0-0.331-0.269-0.6-0.6-0.6   c-0.331,0-0.6,0.269-0.6,0.6v7.005C77.119,274.771,77.387,275.039,77.718,275.039z"/>
	
		<linearGradient id="SVGID_38_" gradientUnits="userSpaceOnUse" x1="-37.3877" y1="-101.1104" x2="33.8193" y2="-172.3173" gradientTransform="matrix(1 0 0 -1 94 153)">
		<stop offset="0" style="stop-color:#FF29D8"/>
		<stop offset="1" style="stop-color:#2068FF"/>
	</linearGradient>
	<path fill="url(#SVGID_38_)" d="M73.438,275.039c0.331,0,0.6-0.269,0.6-0.601v-7.005c0-0.331-0.269-0.6-0.6-0.6   c-0.332,0-0.6,0.269-0.6,0.6v7.005C72.838,274.771,73.106,275.039,73.438,275.039z"/>
	
		<linearGradient id="SVGID_39_" gradientUnits="userSpaceOnUse" x1="-39.5283" y1="-103.2505" x2="31.6795" y2="-174.4583" gradientTransform="matrix(1 0 0 -1 94 153)">
		<stop offset="0" style="stop-color:#FF29D8"/>
		<stop offset="1" style="stop-color:#2068FF"/>
	</linearGradient>
	<path fill="url(#SVGID_39_)" d="M69.155,275.039c0.331,0,0.6-0.269,0.6-0.601v-7.005c0-0.331-0.269-0.6-0.6-0.6s-0.6,0.269-0.6,0.6   v7.005C68.555,274.771,68.824,275.039,69.155,275.039z"/>
	
		<linearGradient id="SVGID_40_" gradientUnits="userSpaceOnUse" x1="-41.6689" y1="-105.3911" x2="29.5384" y2="-176.5984" gradientTransform="matrix(1 0 0 -1 94 153)">
		<stop offset="0" style="stop-color:#FF29D8"/>
		<stop offset="1" style="stop-color:#2068FF"/>
	</linearGradient>
	<path fill="url(#SVGID_40_)" d="M64.875,275.039c0.331,0,0.6-0.269,0.6-0.601v-7.005c0-0.331-0.269-0.6-0.6-0.6s-0.6,0.269-0.6,0.6   v7.005C64.274,274.771,64.543,275.039,64.875,275.039z"/>
	
		<linearGradient id="SVGID_41_" gradientUnits="userSpaceOnUse" x1="62.4717" y1="-1.2505" x2="133.6784" y2="-72.4572" gradientTransform="matrix(1 0 0 -1 94 153)">
		<stop offset="0" style="stop-color:#FF29D8"/>
		<stop offset="1" style="stop-color:#2068FF"/>
	</linearGradient>
	<path fill="url(#SVGID_41_)" d="M165.903,174.123h19.679c0.331,0,0.6-0.269,0.6-0.6s-0.269-0.6-0.6-0.6h-19.68   c-0.331,0-0.6,0.269-0.6,0.6S165.571,174.123,165.903,174.123z"/>
	
		<linearGradient id="SVGID_42_" gradientUnits="userSpaceOnUse" x1="60.4849" y1="-3.2373" x2="131.692" y2="-74.4444" gradientTransform="matrix(1 0 0 -1 94 153)">
		<stop offset="0" style="stop-color:#FF29D8"/>
		<stop offset="1" style="stop-color:#2068FF"/>
	</linearGradient>
	<path fill="url(#SVGID_42_)" d="M165.903,178.096h19.679c0.331,0,0.6-0.269,0.6-0.6c0-0.332-0.269-0.6-0.6-0.6h-19.68   c-0.331,0-0.6,0.269-0.6,0.6C165.303,177.827,165.571,178.096,165.903,178.096z"/>
	
		<linearGradient id="SVGID_43_" gradientUnits="userSpaceOnUse" x1="58.4985" y1="-5.2241" x2="129.7048" y2="-76.4304" gradientTransform="matrix(1 0 0 -1 94 153)">
		<stop offset="0" style="stop-color:#FF29D8"/>
		<stop offset="1" style="stop-color:#2068FF"/>
	</linearGradient>
	<path fill="url(#SVGID_43_)" d="M165.903,182.068h19.679c0.331,0,0.6-0.269,0.6-0.6c0-0.331-0.269-0.6-0.6-0.6h-19.68   c-0.331,0-0.6,0.269-0.6,0.6C165.303,181.8,165.571,182.068,165.903,182.068z"/>
	
		<linearGradient id="SVGID_44_" gradientUnits="userSpaceOnUse" x1="56.5122" y1="-7.2095" x2="127.7203" y2="-78.4176" gradientTransform="matrix(1 0 0 -1 94 153)">
		<stop offset="0" style="stop-color:#FF29D8"/>
		<stop offset="1" style="stop-color:#2068FF"/>
	</linearGradient>
	<path fill="url(#SVGID_44_)" d="M165.903,186.041h19.679c0.331,0,0.6-0.27,0.6-0.601s-0.269-0.601-0.6-0.601h-19.68   c-0.331,0-0.6,0.27-0.6,0.601S165.571,186.041,165.903,186.041z"/>
	
		<linearGradient id="SVGID_45_" gradientUnits="userSpaceOnUse" x1="54.5264" y1="-9.1958" x2="125.7333" y2="-80.4027" gradientTransform="matrix(1 0 0 -1 94 153)">
		<stop offset="0" style="stop-color:#FF29D8"/>
		<stop offset="1" style="stop-color:#2068FF"/>
	</linearGradient>
	<path fill="url(#SVGID_45_)" d="M186.182,189.414c0-0.332-0.269-0.601-0.6-0.601h-19.68c-0.331,0-0.6,0.269-0.6,0.601   c0,0.33,0.269,0.6,0.6,0.6h19.68C185.913,190.014,186.182,189.745,186.182,189.414z"/>
	
		<linearGradient id="SVGID_46_" gradientUnits="userSpaceOnUse" x1="15.0449" y1="-48.6782" x2="86.2513" y2="-119.8846" gradientTransform="matrix(1 0 0 -1 94 153)">
		<stop offset="0" style="stop-color:#FF29D8"/>
		<stop offset="1" style="stop-color:#2068FF"/>
	</linearGradient>
	<path fill="url(#SVGID_46_)" d="M170.927,273.871c0.093,0.054,0.198,0.078,0.3,0.078c0.105,0,0.208-0.024,0.301-0.078l12.033-6.948   c0.186-0.107,0.3-0.306,0.3-0.519c0-0.216-0.114-0.414-0.3-0.519l-12.033-6.948c-0.187-0.105-0.414-0.105-0.601,0   c-0.186,0.108-0.3,0.307-0.3,0.519v13.894C170.627,273.565,170.741,273.763,170.927,273.871z"/>
	
		<linearGradient id="SVGID_47_" gradientUnits="userSpaceOnUse" x1="9.8613" y1="-53.8613" x2="81.0681" y2="-125.0681" gradientTransform="matrix(1 0 0 -1 94 153)">
		<stop offset="0" style="stop-color:#FF29D8"/>
		<stop offset="1" style="stop-color:#2068FF"/>
	</linearGradient>
	<path fill="url(#SVGID_47_)" d="M189.779,213.364h-27.685c-2.22,0-4.025,1.806-4.025,4.026v10.817h-24.903v-19.731h16.761   c0.18,0,0.354-0.084,0.468-0.225l11.076-13.857v9.357c0,0.33,0.271,0.6,0.601,0.6h19.68c0.042,0,0.081-0.002,0.117-0.012   c0.021-0.003,0.039-0.012,0.058-0.018c0.018-0.003,0.038-0.01,0.056-0.016c0.024-0.009,0.046-0.023,0.069-0.035   c0.01-0.006,0.021-0.012,0.033-0.021c0.032-0.021,0.063-0.045,0.093-0.074l7.659-7.66c0.039-0.035,0.068-0.08,0.096-0.125   c0.007-0.013,0.012-0.024,0.019-0.037c0.021-0.045,0.042-0.092,0.051-0.144c0,0,0,0,0-0.003c0.009-0.036,0.012-0.074,0.012-0.113   V168.31c0-0.333-0.27-0.6-0.6-0.6h-27.342c-0.331,0-0.601,0.267-0.601,0.6v24.163l-11.835,14.805h-16.47v-31.365   c0-1.299-1.053-2.352-2.352-2.352H57.251c-1.296,0-2.352,1.053-2.352,2.352v105.966c0,1.3,1.056,2.355,2.352,2.355h73.563   c1.299,0,2.354-1.056,2.354-2.355l-0.003-31.361h14.655l13.656,16.115c0.123,7.827,6.524,14.16,14.385,14.16   c7.932,0,14.388-6.456,14.388-14.388c0-7.936-6.456-14.388-14.388-14.388c-7.416,0-13.536,5.637-14.307,12.849l-12.999-15.336   c-0.114-0.135-0.279-0.213-0.456-0.213h-14.935v-19.908h24.903v5.508c0,2.22,1.807,4.026,4.026,4.026h27.684   c2.22,0,4.026-1.807,4.026-4.026v-17.525C193.805,215.17,191.999,213.364,189.779,213.364z M162.671,168.91h26.143v26.583h-7.063   c-0.33,0-0.6,0.267-0.6,0.601v7.059h-18.48V168.91L162.671,168.91z M61.103,265.243c0-0.636,0.516-1.152,1.152-1.152h63.937   c0.633,0,1.148,0.517,1.148,1.152v11.385c0,0.633-0.516,1.149-1.151,1.149H62.255c-0.636,0-1.152-0.517-1.152-1.149V265.243z    M127.34,255.607c0,0.636-0.516,1.151-1.151,1.151H62.255c-0.636,0-1.152-0.516-1.152-1.151v-11.383   c0-0.636,0.516-1.151,1.152-1.151h63.937c0.633,0,1.148,0.516,1.148,1.151V255.607z M127.34,192.547   c0,0.637-0.516,1.155-1.151,1.155H62.255c-0.636,0-1.152-0.519-1.152-1.155v-11.385c0-0.633,0.516-1.152,1.152-1.152h63.937   c0.633,0,1.148,0.519,1.148,1.152V192.547z M61.103,202.184c0-0.633,0.516-1.149,1.152-1.149h63.937   c0.633,0,1.148,0.517,1.148,1.149v11.385c0,0.636-0.516,1.152-1.151,1.152H62.255c-0.636,0-1.152-0.517-1.152-1.152V202.184z    M61.103,223.204c0-0.636,0.516-1.151,1.152-1.151h63.937c0.633,0,1.148,0.516,1.148,1.151v5.602c0,0.003,0,0.003,0,0.003   c0,0.003,0,0.003,0,0.003v5.777c0,0.633-0.516,1.149-1.151,1.149H62.255c-0.636,0-1.152-0.517-1.152-1.149V223.204z    M175.862,253.216c7.269,0,13.188,5.917,13.188,13.188s-5.919,13.188-13.188,13.188c-7.272,0-13.191-5.917-13.191-13.188   C162.671,259.132,168.59,253.216,175.862,253.216z M192.604,222.406l-4.94-4.62c-0.132-0.123-0.315-0.181-0.498-0.155   c-0.18,0.026-0.339,0.135-0.429,0.293l-4.035,6.981l-4.515-4.224c-0.136-0.127-0.319-0.184-0.498-0.156   c-0.181,0.027-0.34,0.135-0.433,0.294l-5.813,10.059l-2.425-2.269c-0.134-0.123-0.317-0.18-0.497-0.152   c-0.184,0.026-0.343,0.132-0.433,0.291l-5.198,8.993h-0.796c-1.559,0-2.825-1.266-2.825-2.825v-17.525   c0-1.561,1.267-2.826,2.825-2.826h27.685c1.557,0,2.826,1.266,2.826,2.826L192.604,222.406L192.604,222.406z"/>
	
		<linearGradient id="SVGID_48_" gradientUnits="userSpaceOnUse" x1="33.8784" y1="-29.8472" x2="105.083" y2="-101.0517" gradientTransform="matrix(1 0 0 -1 94 153)">
		<stop offset="0" style="stop-color:#FF29D8"/>
		<stop offset="1" style="stop-color:#2068FF"/>
	</linearGradient>
	<path fill="url(#SVGID_48_)" d="M165.998,216.709c-2.349,0-4.26,1.911-4.26,4.26c0,2.35,1.911,4.26,4.26,4.26s4.26-1.91,4.26-4.26   C170.258,218.62,168.347,216.709,165.998,216.709z"/>
</g>
<g>
	
		<linearGradient id="SVGID_49_" gradientUnits="userSpaceOnUse" x1="635.3984" y1="-44.4312" x2="689.1766" y2="-98.2094" gradientTransform="matrix(1 0 0 -1 94 153)">
		<stop offset="0" style="stop-color:#FF29D8"/>
		<stop offset="1" style="stop-color:#2068FF"/>
	</linearGradient>
	<path fill="url(#SVGID_49_)" d="M819.071,225.9h-34.127v-35.739c3.255-0.304,5.813-3.048,5.813-6.384   c0-3.538-2.877-6.415-6.414-6.415c-3.336,0-6.081,2.559-6.384,5.814h-35.489v-16.881c0-3.054-3.208-5.781-8.461-7.74   c-5.256-1.962-12.555-3.159-20.744-3.159c-15.838,0-28.356,4.479-29.166,10.299h-0.043v10.899c0,0.003,0,0.003,0,0.003v10.296   c0,0.002,0,0.002,0,0.002v10.902h0.043c0.797,5.748,13.01,10.186,28.565,10.296v35.422c-3.259,0.303-5.817,3.047-5.817,6.384   c0,3.536,2.881,6.413,6.418,6.413c3.332,0,6.077-2.559,6.383-5.813h27.154v25.194c0,1.551,1.26,2.811,2.811,2.811h24.228   l-1.671,11.897h-2.574c-0.33,0-0.6,0.268-0.6,0.601c0,0.33,0.27,0.6,0.6,0.6h29.109c0.333,0,0.6-0.27,0.6-0.6   c0-0.333-0.267-0.601-0.6-0.601h-2.19l-1.671-11.897h24.229c1.551,0,2.811-1.26,2.811-2.811v-46.983   C821.883,227.16,820.623,225.9,819.071,225.9z M685.257,169.455c3.543,4.524,14.583,7.743,28.009,7.743   c13.422,0,24.459-3.216,28.004-7.743v7.143c0,5.259-12.824,9.702-28.004,9.702c-15.175,0-27.996-4.44-28.009-9.693V169.455z    M685.257,179.757c3.546,4.524,14.583,7.743,28.009,7.743c13.422,0,24.459-3.219,28.004-7.743v7.14   c0,5.26-12.824,9.703-28.004,9.703c-15.175,0-27.996-4.441-28.009-9.693V179.757z M685.257,197.205v-7.149   c3.546,4.524,14.583,7.743,28.009,7.743c13.422,0,24.459-3.219,28.004-7.743v7.144c0,5.256-12.824,9.699-28.004,9.699   C698.091,206.898,685.27,202.461,685.257,197.205z M746.803,228.711V249.3h-27.154c-0.284-3.06-2.724-5.499-5.783-5.783v-35.422   c16.089-0.114,28.605-4.86,28.605-10.896v-12.822h35.489c0.285,3.061,2.724,5.499,5.784,5.784V225.9h-34.131   C748.063,225.9,746.803,227.16,746.803,228.711z M795.303,290.403h-21.921l1.671-11.898h18.579L795.303,290.403z M820.683,275.694   c0,0.888-0.723,1.61-1.611,1.61h-69.458c-0.889,0-1.611-0.723-1.611-1.61v-46.983c0-0.888,0.723-1.611,1.611-1.611h69.459   c0.888,0,1.61,0.724,1.61,1.611V275.694L820.683,275.694z"/>
	
		<linearGradient id="SVGID_50_" gradientUnits="userSpaceOnUse" x1="636.6367" y1="-43.1909" x2="690.4151" y2="-96.9693" gradientTransform="matrix(1 0 0 -1 94 153)">
		<stop offset="0" style="stop-color:#FF29D8"/>
		<stop offset="1" style="stop-color:#2068FF"/>
	</linearGradient>
	<path fill="url(#SVGID_50_)" d="M817.416,229.584h-66.145c-0.33,0-0.6,0.27-0.6,0.601v39.432c0,0.33,0.27,0.6,0.6,0.6h66.145   c0.33,0,0.6-0.27,0.6-0.6v-39.432C818.016,229.854,817.746,229.584,817.416,229.584z"/>
	
		<linearGradient id="SVGID_51_" gradientUnits="userSpaceOnUse" x1="624.4443" y1="-55.3799" x2="678.225" y2="-109.1606" gradientTransform="matrix(1 0 0 -1 94 153)">
		<stop offset="0" style="stop-color:#FF29D8"/>
		<stop offset="1" style="stop-color:#2068FF"/>
	</linearGradient>
	<path fill="url(#SVGID_51_)" d="M788.766,273.68h-8.845c-0.331,0-0.6,0.27-0.6,0.601s0.269,0.6,0.6,0.6h8.845   c0.331,0,0.6-0.269,0.6-0.6S789.097,273.68,788.766,273.68z"/>
	
		<linearGradient id="SVGID_52_" gradientUnits="userSpaceOnUse" x1="630.6846" y1="-49.1445" x2="684.4616" y2="-102.9216" gradientTransform="matrix(1 0 0 -1 94 153)">
		<stop offset="0" style="stop-color:#FF29D8"/>
		<stop offset="1" style="stop-color:#2068FF"/>
	</linearGradient>
	<path fill="url(#SVGID_52_)" d="M699.1,191.313c3.592,0.73,7.492,1.162,11.597,1.292c0.257,1.183,1.31,2.071,2.567,2.071   c1.259,0,2.313-0.889,2.568-2.072c4.093-0.129,7.992-0.561,11.596-1.291c0.324-0.066,0.535-0.383,0.469-0.707   c-0.065-0.324-0.382-0.535-0.707-0.469c-3.532,0.717-7.359,1.14-11.379,1.268c-0.289-1.139-1.319-1.985-2.546-1.985   c-1.228,0-2.259,0.847-2.546,1.985c-4.031-0.128-7.859-0.552-11.381-1.268c-0.324-0.065-0.641,0.145-0.707,0.469   C698.564,190.931,698.774,191.247,699.1,191.313z M713.264,190.619c0.788,0,1.43,0.641,1.43,1.429s-0.642,1.429-1.43,1.429   c-0.787,0-1.428-0.641-1.428-1.429S712.477,190.619,713.264,190.619z"/>
	
		<linearGradient id="SVGID_53_" gradientUnits="userSpaceOnUse" x1="625.5352" y1="-54.2939" x2="679.3138" y2="-108.0726" gradientTransform="matrix(1 0 0 -1 94 153)">
		<stop offset="0" style="stop-color:#FF29D8"/>
		<stop offset="1" style="stop-color:#2068FF"/>
	</linearGradient>
	<path fill="url(#SVGID_53_)" d="M727.189,200.437c-3.53,0.716-7.357,1.14-11.379,1.269c-0.289-1.14-1.319-1.986-2.547-1.986   c-1.227,0-2.258,0.847-2.545,1.986c-4.03-0.128-7.857-0.552-11.381-1.268c-0.326-0.067-0.641,0.143-0.707,0.469   c-0.066,0.324,0.144,0.641,0.469,0.707c3.594,0.73,7.494,1.162,11.597,1.291c0.256,1.184,1.31,2.072,2.568,2.072   s2.312-0.889,2.567-2.072c4.096-0.129,7.996-0.562,11.596-1.292c0.325-0.065,0.535-0.382,0.469-0.707   S727.514,200.371,727.189,200.437z M713.264,203.777c-0.787,0-1.429-0.642-1.429-1.43c0-0.787,0.642-1.43,1.429-1.43   c0.785,0,1.423,0.637,1.428,1.42l0,0c0,0,0,0,0,0.001c0,0.003,0.002,0.005,0.002,0.009   C714.693,203.136,714.052,203.777,713.264,203.777z"/>
	
		<linearGradient id="SVGID_54_" gradientUnits="userSpaceOnUse" x1="635.835" y1="-43.9946" x2="689.6132" y2="-97.7728" gradientTransform="matrix(1 0 0 -1 94 153)">
		<stop offset="0" style="stop-color:#FF29D8"/>
		<stop offset="1" style="stop-color:#2068FF"/>
	</linearGradient>
	<path fill="url(#SVGID_54_)" d="M699.1,181.013c3.597,0.73,7.497,1.162,11.597,1.292c0.256,1.183,1.31,2.072,2.567,2.072   c1.259,0,2.313-0.889,2.568-2.072c4.094-0.129,7.993-0.562,11.596-1.292c0.324-0.066,0.535-0.382,0.469-0.707   c-0.066-0.325-0.383-0.535-0.707-0.469c-3.532,0.716-7.359,1.14-11.379,1.269c-0.289-1.139-1.319-1.985-2.546-1.985   c-1.228,0-2.257,0.847-2.546,1.985c-4.026-0.129-7.854-0.553-11.381-1.269c-0.323-0.066-0.641,0.144-0.707,0.469   C698.564,180.63,698.774,180.947,699.1,181.013z M713.264,180.32c0.788,0,1.43,0.641,1.43,1.429s-0.642,1.429-1.43,1.429   c-0.787,0-1.428-0.641-1.428-1.429S712.477,180.32,713.264,180.32z"/>
</g>
<linearGradient id="SVGID_55_" gradientUnits="userSpaceOnUse" x1="327.2422" y1="-43.1167" x2="398.812" y2="-114.6866" gradientTransform="matrix(1 0 0 -1 94 153)">
	<stop offset="0" style="stop-color:#FF29D8"/>
	<stop offset="1" style="stop-color:#2068FF"/>
</linearGradient>
<path fill="url(#SVGID_55_)" d="M502.285,244.746v-50.748c3.842-0.324,6.871-3.553,6.871-7.489c0-4.146-3.37-7.521-7.518-7.521  c-2.553,0-4.801,1.274-6.167,3.219l-44.162-25.5c0.455-0.966,0.71-2.046,0.71-3.186c0-4.147-3.374-7.521-7.521-7.521  c-4.15,0-7.524,3.375-7.524,7.521c0,1.14,0.259,2.22,0.714,3.186l-44.164,25.5c-1.361-1.945-3.615-3.219-6.167-3.219  c-4.147,0-7.521,3.375-7.521,7.521c0,3.936,3.029,7.167,6.878,7.489v50.748c-3.848,0.325-6.877,3.562-6.877,7.489  c0,4.15,3.374,7.521,7.521,7.521c2.468,0,4.667-1.196,6.04-3.041l44.29,25.573c-0.455,0.971-0.714,2.056-0.714,3.195  c0,4.138,3.374,7.517,7.525,7.517c4.146,0,7.521-3.379,7.521-7.517c0-1.14-0.256-2.225-0.711-3.195l44.289-25.573  c1.374,1.848,3.568,3.041,6.037,3.041c4.15,0,7.521-3.37,7.521-7.521C509.156,248.308,506.127,245.071,502.285,244.746z   M388.003,244.746v-50.748c2.291-0.189,4.289-1.407,5.529-3.197l17.571,10.104c-3.135,5.614-4.8,11.959-4.8,18.596  c0,6.652,1.718,12.922,4.732,18.38l-17.503,10.063C392.289,246.162,390.291,244.938,388.003,244.746z M443.856,277.981  c-2.285,0.202-4.278,1.413-5.523,3.2l-44.254-25.559c0.514-1.016,0.806-2.176,0.806-3.388c0-1.133-0.256-2.206-0.708-3.174  l17.5-10.063c1.772,2.978,3.944,5.688,6.43,8.074c0.053,0.091,0.121,0.163,0.21,0.224c0.012,0.009,0.031,0.012,0.047,0.018  c6.692,6.3,15.648,10.212,25.494,10.374V277.981z M419.492,192.359c0.691-0.648,1.409-1.26,2.148-1.842  c0.037-0.027,0.074-0.057,0.11-0.092c0.163-0.122,0.33-0.25,0.496-0.372c0.065-0.056,0.133-0.105,0.201-0.153  c0.145-0.112,0.292-0.218,0.44-0.322c0.086-0.068,0.175-0.131,0.266-0.197c0.131-0.094,0.267-0.185,0.402-0.28  c0.108-0.069,0.206-0.145,0.314-0.212c0.125-0.093,0.258-0.176,0.391-0.261c0.115-0.076,0.222-0.146,0.333-0.22  c0.125-0.079,0.255-0.156,0.381-0.237c0.121-0.078,0.233-0.151,0.354-0.225c0.124-0.074,0.243-0.145,0.369-0.219  c0.127-0.073,0.25-0.147,0.375-0.222c0.121-0.071,0.244-0.135,0.36-0.206c0.132-0.071,0.262-0.148,0.395-0.219  c0.123-0.064,0.239-0.125,0.363-0.191c0.133-0.07,0.268-0.14,0.396-0.211c0.124-0.062,0.247-0.124,0.366-0.183  c0.135-0.071,0.271-0.138,0.41-0.207c0.121-0.063,0.244-0.114,0.363-0.172c0.139-0.064,0.277-0.133,0.416-0.197  c0.124-0.055,0.25-0.106,0.369-0.163c0.142-0.062,0.28-0.125,0.419-0.188c0.126-0.048,0.247-0.102,0.372-0.153  c0.142-0.06,0.284-0.117,0.425-0.172c0.127-0.054,0.254-0.103,0.375-0.148c0.142-0.056,0.284-0.115,0.428-0.167  c0.126-0.045,0.256-0.093,0.385-0.143c0.142-0.047,0.284-0.101,0.429-0.153c0.125-0.039,0.254-0.086,0.387-0.129  c0.141-0.045,0.286-0.095,0.428-0.145c0.133-0.04,0.265-0.08,0.398-0.12c0.142-0.046,0.286-0.089,0.428-0.132l0.402-0.118  c0.142-0.035,0.284-0.079,0.425-0.115c0.138-0.041,0.277-0.07,0.416-0.112c0.142-0.033,0.283-0.07,0.422-0.104  c0.142-0.037,0.283-0.068,0.425-0.102c0.139-0.031,0.28-0.067,0.415-0.095c0.146-0.035,0.29-0.061,0.437-0.093  c0.133-0.031,0.272-0.057,0.413-0.086c0.145-0.027,0.289-0.052,0.438-0.08c0.139-0.023,0.277-0.051,0.416-0.077  c0.148-0.023,0.296-0.045,0.443-0.071c0.138-0.021,0.275-0.041,0.414-0.067c0.15-0.021,0.301-0.039,0.449-0.061  c0.139-0.018,0.277-0.037,0.416-0.051c0.147-0.023,0.3-0.038,0.452-0.054c0.136-0.015,0.274-0.029,0.413-0.045  c0.15-0.016,0.305-0.028,0.463-0.04c0.131-0.013,0.269-0.029,0.407-0.038c0.151-0.012,0.309-0.021,0.46-0.031  c0.095-0.003,0.189-0.009,0.29-0.015c-6.519,4.543-11.679,10.683-15.038,17.889C424.26,198.354,421.557,195.542,419.492,192.359z   M442.397,256.353h-0.014c-0.119-0.006-0.242-0.015-0.358-0.023c-0.191-0.021-0.386-0.029-0.572-0.046  c-0.124-0.009-0.245-0.021-0.364-0.033c-0.187-0.015-0.379-0.03-0.563-0.051c-0.123-0.012-0.247-0.035-0.366-0.048  c-0.186-0.021-0.374-0.043-0.554-0.063c-0.124-0.016-0.248-0.033-0.366-0.061c-0.186-0.023-0.364-0.048-0.548-0.076  c-0.125-0.018-0.246-0.038-0.37-0.065c-0.183-0.029-0.357-0.057-0.537-0.088c-0.123-0.021-0.249-0.054-0.376-0.077  c-0.171-0.03-0.347-0.063-0.519-0.097c-0.13-0.036-0.257-0.063-0.381-0.088c-0.174-0.035-0.339-0.081-0.505-0.117  c-0.133-0.03-0.262-0.06-0.392-0.091c-0.163-0.048-0.329-0.084-0.493-0.126c-0.128-0.04-0.261-0.076-0.394-0.108  c-0.159-0.043-0.321-0.092-0.48-0.136c-0.133-0.036-0.262-0.081-0.394-0.121c-0.161-0.045-0.315-0.087-0.472-0.141  c-0.133-0.043-0.269-0.085-0.397-0.133c-0.155-0.049-0.308-0.094-0.459-0.15c-0.136-0.046-0.267-0.092-0.399-0.146  c-0.148-0.048-0.3-0.108-0.448-0.159c-0.131-0.045-0.267-0.106-0.405-0.153c-0.142-0.052-0.286-0.112-0.428-0.167  c-0.139-0.061-0.277-0.114-0.413-0.168c-0.139-0.064-0.278-0.115-0.417-0.181c-0.138-0.056-0.274-0.112-0.412-0.178  c-0.131-0.059-0.267-0.121-0.403-0.179c-0.139-0.069-0.277-0.129-0.416-0.193c-0.129-0.065-0.262-0.123-0.39-0.192  c-0.139-0.063-0.277-0.139-0.416-0.204c-0.13-0.067-0.256-0.127-0.383-0.196c-0.138-0.069-0.275-0.147-0.415-0.217  c-0.124-0.068-0.247-0.13-0.366-0.193c-0.142-0.081-0.28-0.165-0.419-0.238c-0.12-0.071-0.241-0.135-0.357-0.199  c-0.139-0.084-0.277-0.171-0.416-0.249c-0.117-0.076-0.23-0.139-0.348-0.212c-0.139-0.081-0.277-0.175-0.416-0.256  c-0.11-0.075-0.221-0.139-0.332-0.214c-0.139-0.093-0.277-0.181-0.416-0.276c-0.111-0.067-0.215-0.142-0.324-0.212  c-0.138-0.096-0.272-0.199-0.414-0.29c-0.105-0.074-0.206-0.141-0.312-0.219c-0.138-0.104-0.27-0.199-0.408-0.302  c-0.103-0.068-0.204-0.148-0.303-0.226c-0.134-0.097-0.27-0.205-0.405-0.313c-0.099-0.069-0.197-0.147-0.292-0.221  c-0.136-0.107-0.271-0.22-0.404-0.331c-0.095-0.072-0.192-0.153-0.287-0.226c-0.133-0.112-0.262-0.226-0.391-0.332  c-0.096-0.085-0.188-0.165-0.28-0.241c-0.13-0.116-0.26-0.234-0.389-0.353c-0.089-0.075-0.182-0.159-0.271-0.234  c-0.043-0.046-0.086-0.085-0.125-0.121c2.059-3.168,4.75-5.97,7.841-8.149C430.636,245.563,435.779,251.741,442.397,256.353z   M443.856,255.792c-6.837-4.571-12.115-10.835-15.427-18.045c4.614-2.966,9.922-4.58,15.427-4.698V255.792z M443.856,205.952  c-5.499-0.121-10.796-1.729-15.409-4.689c3.377-7.339,8.679-13.549,15.409-18.051V205.952z M443.856,181.309  c-9.583,0.16-18.675,3.868-25.642,10.477c-2.544,2.411-4.705,5.101-6.462,8.013l-17.577-10.114c0.452-0.966,0.708-2.04,0.708-3.176  s-0.259-2.22-0.711-3.186l44.16-25.5c1.246,1.782,3.239,2.995,5.523,3.192V181.309z M445.143,161.015  c2.285-0.197,4.28-1.41,5.522-3.192l44.165,25.5c-0.461,0.965-0.711,2.05-0.711,3.186s0.247,2.21,0.705,3.176l-17.581,10.114  c-1.754-2.912-3.915-5.599-6.458-8.013c-3.481-3.306-7.496-5.882-11.837-7.657c-4.34-1.769-9.011-2.739-13.804-2.815V161.015z   M461.636,200.542c-3.359-7.21-8.525-13.352-15.034-17.889c0.103,0.006,0.2,0.012,0.301,0.018c0.148,0.009,0.294,0.016,0.441,0.028  c0.144,0.009,0.292,0.028,0.44,0.04c0.142,0.013,0.286,0.022,0.428,0.038c0.147,0.016,0.295,0.034,0.442,0.049  c0.142,0.014,0.284,0.027,0.425,0.05c0.147,0.018,0.296,0.036,0.446,0.059c0.139,0.019,0.277,0.036,0.416,0.054  c0.148,0.026,0.299,0.05,0.446,0.071c0.14,0.025,0.275,0.046,0.411,0.067c0.15,0.029,0.299,0.056,0.449,0.08  c0.135,0.029,0.271,0.05,0.407,0.077c0.15,0.031,0.298,0.062,0.449,0.096c0.133,0.024,0.266,0.056,0.397,0.083  c0.151,0.03,0.302,0.067,0.453,0.101c0.129,0.034,0.257,0.061,0.387,0.096c0.153,0.033,0.307,0.077,0.46,0.113  c0.122,0.034,0.251,0.064,0.378,0.103c0.154,0.039,0.305,0.083,0.458,0.125c0.124,0.038,0.25,0.071,0.37,0.108  c0.158,0.046,0.312,0.092,0.462,0.141c0.124,0.037,0.243,0.074,0.367,0.111c0.153,0.052,0.304,0.105,0.458,0.158  c0.12,0.036,0.241,0.077,0.357,0.116c0.157,0.056,0.308,0.114,0.462,0.169c0.113,0.04,0.233,0.083,0.351,0.123  c0.153,0.06,0.305,0.121,0.459,0.182c0.117,0.048,0.227,0.087,0.344,0.133c0.15,0.065,0.305,0.122,0.455,0.188  c0.115,0.05,0.228,0.096,0.342,0.142c0.15,0.068,0.305,0.136,0.455,0.203c0.112,0.05,0.219,0.095,0.333,0.148  c0.15,0.071,0.304,0.145,0.455,0.216c0.111,0.052,0.216,0.102,0.324,0.15c0.153,0.077,0.305,0.154,0.458,0.235  c0.106,0.048,0.209,0.102,0.315,0.157c0.151,0.077,0.302,0.156,0.453,0.236c0.101,0.058,0.208,0.112,0.309,0.165  c0.148,0.085,0.296,0.168,0.444,0.251c0.105,0.058,0.206,0.112,0.312,0.171c0.147,0.086,0.292,0.176,0.436,0.262  c0.102,0.062,0.207,0.121,0.308,0.181c0.142,0.09,0.287,0.179,0.429,0.268c0.101,0.065,0.206,0.127,0.307,0.194  c0.142,0.089,0.283,0.184,0.425,0.281c0.102,0.064,0.201,0.129,0.298,0.193c0.142,0.1,0.283,0.196,0.425,0.3  c0.099,0.063,0.195,0.13,0.289,0.195c0.143,0.104,0.281,0.207,0.42,0.307c0.099,0.07,0.194,0.138,0.287,0.212  c0.139,0.097,0.277,0.205,0.413,0.312c0.095,0.068,0.191,0.143,0.283,0.212c0.142,0.112,0.28,0.225,0.418,0.34  c0.09,0.066,0.175,0.142,0.261,0.208c0.144,0.12,0.287,0.244,0.428,0.365c0.08,0.063,0.167,0.135,0.247,0.202  c0.151,0.129,0.299,0.265,0.446,0.397c0.071,0.058,0.142,0.123,0.209,0.184c0.086,0.082,0.172,0.156,0.255,0.241  C467.445,195.542,464.738,198.354,461.636,200.542z M469.495,246.621c-0.039,0.032-0.08,0.068-0.116,0.114l-0.33,0.289  c-0.109,0.094-0.219,0.196-0.333,0.299c-0.107,0.088-0.222,0.183-0.329,0.283c-0.117,0.091-0.228,0.189-0.344,0.289  c-0.112,0.084-0.222,0.178-0.336,0.271c-0.113,0.091-0.23,0.19-0.352,0.286c-0.109,0.085-0.227,0.175-0.338,0.264  c-0.12,0.09-0.241,0.186-0.36,0.27c-0.114,0.091-0.233,0.178-0.348,0.259c-0.124,0.092-0.245,0.18-0.364,0.269  c-0.12,0.088-0.237,0.166-0.357,0.251c-0.123,0.081-0.247,0.172-0.368,0.262c-0.121,0.076-0.242,0.156-0.361,0.232  c-0.125,0.087-0.252,0.169-0.382,0.253c-0.116,0.081-0.239,0.153-0.36,0.232c-0.125,0.078-0.258,0.166-0.388,0.24  c-0.123,0.079-0.245,0.146-0.366,0.225c-0.132,0.071-0.265,0.156-0.398,0.229c-0.122,0.075-0.246,0.142-0.369,0.213  c-0.136,0.074-0.271,0.153-0.41,0.233c-0.12,0.063-0.246,0.128-0.37,0.195c-0.139,0.069-0.276,0.147-0.411,0.214  c-0.127,0.072-0.252,0.13-0.379,0.199c-0.142,0.066-0.28,0.142-0.419,0.205c-0.125,0.065-0.254,0.124-0.381,0.187  c-0.142,0.064-0.283,0.127-0.428,0.199c-0.127,0.055-0.251,0.114-0.381,0.168l-0.435,0.191c-0.129,0.06-0.259,0.107-0.392,0.169  c-0.145,0.056-0.292,0.113-0.44,0.177c-0.129,0.049-0.255,0.105-0.387,0.151c-0.148,0.055-0.299,0.12-0.446,0.172  c-0.133,0.045-0.266,0.096-0.398,0.142c-0.151,0.051-0.302,0.11-0.452,0.16c-0.133,0.053-0.268,0.093-0.404,0.136  c-0.15,0.044-0.302,0.102-0.452,0.147c-0.135,0.05-0.271,0.087-0.407,0.126c-0.154,0.043-0.305,0.097-0.462,0.139  c-0.132,0.036-0.271,0.082-0.407,0.115c-0.153,0.042-0.311,0.081-0.467,0.13c-0.135,0.032-0.271,0.065-0.411,0.096  c-0.156,0.049-0.317,0.084-0.474,0.12c-0.138,0.03-0.274,0.066-0.41,0.097c-0.163,0.033-0.319,0.066-0.479,0.108  c-0.139,0.027-0.277,0.052-0.416,0.079c-0.163,0.03-0.323,0.068-0.488,0.095c-0.139,0.025-0.28,0.047-0.418,0.07  c-0.162,0.033-0.322,0.06-0.486,0.084c-0.141,0.022-0.28,0.04-0.422,0.062c-0.166,0.029-0.33,0.053-0.492,0.074  c-0.142,0.019-0.284,0.033-0.425,0.049c-0.162,0.019-0.333,0.048-0.499,0.063c-0.142,0.016-0.283,0.027-0.425,0.04  c-0.166,0.015-0.336,0.03-0.501,0.042c-0.146,0.013-0.287,0.021-0.432,0.03c-0.163,0.021-0.326,0.03-0.493,0.039  c6.625-4.614,11.764-10.793,15.055-17.882C464.741,240.647,467.432,243.45,469.495,246.621z M445.143,183.211  c6.727,4.499,12.032,10.712,15.409,18.051c-4.613,2.96-9.91,4.568-15.409,4.689V183.211z M445.143,233.049  c5.505,0.117,10.813,1.732,15.427,4.698c-3.309,7.206-8.589,13.47-15.427,18.045V233.049z M450.666,281.182  c-1.246-1.787-3.238-2.998-5.522-3.2v-20.294c9.842-0.162,18.795-4.074,25.487-10.368c0.016-0.009,0.038-0.015,0.054-0.023  c0.088-0.063,0.159-0.136,0.212-0.226c2.484-2.388,4.656-5.094,6.427-8.072l17.504,10.061c-0.462,0.971-0.708,2.041-0.708,3.177  c0,1.225,0.292,2.372,0.802,3.388L450.666,281.182z M501,244.746c-2.287,0.189-4.286,1.416-5.534,3.197l-17.501-10.063  c3.014-5.458,4.73-11.727,4.73-18.38c0-6.637-1.668-12.981-4.803-18.596l17.57-10.104c1.248,1.79,3.25,3.008,5.537,3.197V244.746z"/>
<g>
	<path d="M34.541,304.506v7.297h8.905v-7.297h2.832v16.802h-2.832v-6.961h-8.905v6.961h-2.833v-16.802H34.541z"/>
	<path d="M62.645,314.899c0,3.864-2.712,6.504-6.648,6.504c-3.96,0-6.673-2.64-6.673-6.504c0-3.841,2.712-6.457,6.673-6.457   C59.933,308.442,62.645,311.059,62.645,314.899z M52.083,314.947c0,2.472,1.608,4.152,3.913,4.152c2.28,0,3.888-1.681,3.888-4.152   c0-2.448-1.608-4.152-3.888-4.152C53.692,310.795,52.083,312.499,52.083,314.947z"/>
	<path d="M69.124,310.627c-1.08,0-1.872,0.359-1.872,1.271c0,2.353,6.792,1.08,6.769,5.713c0,2.616-2.329,3.792-4.896,3.792   c-1.872,0-3.864-0.624-5.137-1.775l0.984-1.969c1.104,0.984,2.88,1.584,4.272,1.584c1.176,0,2.088-0.408,2.088-1.368   c0-2.616-6.721-1.151-6.696-5.76c0-2.593,2.256-3.696,4.704-3.696c1.608,0,3.313,0.479,4.464,1.296l-1.008,2.04   C71.668,311.059,70.252,310.627,69.124,310.627z"/>
	<path d="M84.028,320.491c-1.008,0.601-2.064,0.937-3.144,0.937c-1.92,0-3.576-1.104-3.576-3.721v-6.624h-1.8v-2.064h1.8v-3.504   h2.736v3.504h3.769v2.064h-3.769v6.12c0,1.32,0.504,1.729,1.368,1.729c0.576,0,1.176-0.192,1.92-0.553L84.028,320.491z"/>
	<path d="M89.428,321.428c-2.016,0-3.696-0.889-4.944-2.424l1.344-2.161c1.104,1.2,2.424,1.849,3.577,1.849   c1.512,0,2.4-0.937,2.4-2.664v-8.977h-5.808v-2.545h8.665v11.617C94.66,319.508,92.668,321.428,89.428,321.428z"/>
	<path d="M106.204,321.308v-1.561c-0.912,1.129-2.376,1.681-4.224,1.681c-2.76,0-4.489-1.704-4.489-3.961   c0-2.328,1.752-3.815,4.825-3.84h3.864v-0.384c0-1.608-1.032-2.568-3.048-2.568c-1.224,0-2.496,0.432-3.768,1.296l-1.128-1.92   c1.776-1.057,3.072-1.608,5.497-1.608c3.288,0,5.136,1.681,5.161,4.488l0.024,8.377H106.204z M106.18,316.819v-1.176h-3.457   c-1.8,0-2.64,0.479-2.64,1.704c0,1.151,0.936,1.896,2.472,1.896C104.523,319.243,106.036,318.211,106.18,316.819z"/>
	<path d="M124.828,313.363v7.944h-2.76v-7.177c0-1.92-1.152-3.096-3.072-3.096c-2.112,0.023-3.432,1.487-3.625,3.479v6.793h-2.76   v-12.77h2.76v2.448c0.912-1.775,2.544-2.544,4.705-2.544C123.052,308.442,124.828,310.314,124.828,313.363z"/>
	<path d="M139.755,315.979h-9.648c0.432,1.968,1.944,3.192,3.96,3.192c1.392,0,2.665-0.528,3.601-1.488l1.464,1.56   c-1.248,1.368-3.072,2.16-5.28,2.16c-3.937,0-6.529-2.616-6.529-6.456c0-3.864,2.665-6.48,6.457-6.505   C138.268,308.442,140.092,311.371,139.755,315.979z M137.355,313.963c-0.096-2.064-1.464-3.313-3.552-3.313   c-2.016,0-3.457,1.272-3.745,3.313H137.355z"/>
	<path d="M144.675,306.019c0,0.479-0.168,0.888-0.432,1.271l-1.368,2.064h-1.416l0.912-2.088c-0.432-0.288-0.648-0.744-0.648-1.248   c0-0.889,0.624-1.536,1.488-1.536C143.979,304.482,144.675,305.059,144.675,306.019z"/>
	<path d="M151.371,310.627c-1.08,0-1.872,0.359-1.872,1.271c0,2.353,6.792,1.08,6.769,5.713c0,2.616-2.329,3.792-4.896,3.792   c-1.872,0-3.864-0.624-5.137-1.775l0.984-1.969c1.104,0.984,2.88,1.584,4.272,1.584c1.176,0,2.088-0.408,2.088-1.368   c0-2.616-6.721-1.151-6.697-5.76c0-2.593,2.256-3.696,4.705-3.696c1.608,0,3.313,0.479,4.464,1.296l-1.008,2.04   C153.915,311.059,152.499,310.627,151.371,310.627z"/>
	<path d="M37.013,335.851c-1.656,0-2.736,0.624-2.736,1.752c0,3.672,9.073,1.704,9.049,7.753c0,3-2.64,4.848-6.336,4.848   c-2.64,0-5.137-1.08-6.865-2.664l1.224-2.448c1.728,1.584,3.888,2.448,5.688,2.448c1.968,0,3.145-0.744,3.145-2.04   c0-3.744-9.073-1.656-9.073-7.633c0-2.88,2.473-4.681,6.121-4.681c2.185,0,4.32,0.696,5.881,1.729l-1.176,2.496   C40.109,336.307,38.285,335.851,37.013,335.851z"/>
	<path d="M57.701,344.779h-9.648c0.432,1.968,1.944,3.192,3.96,3.192c1.392,0,2.665-0.528,3.601-1.488l1.464,1.56   c-1.248,1.368-3.072,2.16-5.28,2.16c-3.937,0-6.529-2.616-6.529-6.456c0-3.864,2.665-6.48,6.457-6.505   C56.213,337.242,58.037,340.171,57.701,344.779z M55.301,342.763c-0.096-2.064-1.464-3.313-3.552-3.313   c-2.016,0-3.457,1.272-3.745,3.313H55.301z"/>
	<path d="M67.756,337.242v2.641c-2.568-0.145-4.2,1.368-4.417,3.552v6.673h-2.76v-12.77h2.76v2.545   C64.204,338.154,65.74,337.242,67.756,337.242z"/>
	<path d="M71.523,337.338l3.552,10.058l3.504-10.058h2.76l-4.896,12.77h-2.856l-4.944-12.77H71.523z"/>
	<path d="M94.013,344.779h-9.648c0.432,1.968,1.944,3.192,3.96,3.192c1.392,0,2.665-0.528,3.601-1.488l1.464,1.56   c-1.248,1.368-3.072,2.16-5.28,2.16c-3.937,0-6.529-2.616-6.529-6.456c0-3.864,2.665-6.48,6.457-6.505   C92.525,337.242,94.349,340.171,94.013,344.779z M91.613,342.763c-0.096-2.064-1.464-3.313-3.552-3.313   c-2.016,0-3.457,1.272-3.745,3.313H91.613z"/>
	<path d="M104.068,337.242v2.641c-2.568-0.145-4.2,1.368-4.417,3.552v6.673h-2.76v-12.77h2.76v2.545   C100.516,338.154,102.052,337.242,104.068,337.242z"/>
</g>
<g>
	<path fill="#FFFFFF" d="M52.528,55.648v19.628h-5.124V55.648H52.528z"/>
	<path fill="#FFFFFF" d="M72.855,62.536c0,4.62-2.884,7.308-7.896,7.308h-3.5v5.432h-5.124V55.648h8.624   C69.972,55.648,72.855,58.168,72.855,62.536z M67.983,62.704c0-1.932-1.204-2.968-3.276-2.968h-3.248v6.02h3.248   C66.78,65.756,67.983,64.692,67.983,62.704z"/>
	<path fill="#FFFFFF" d="M96.851,71.804h-8.484l-1.372,3.472h-5.264l8.428-19.628h5.264l8.232,19.628h-5.46L96.851,71.804z    M95.339,67.884l-2.688-7l-2.744,7H95.339z"/>
	<path fill="#FFFFFF" d="M124.319,65.448c0,5.852-4.284,9.828-10.64,9.828h-8.26V55.648h8.456   C120.091,55.648,124.319,59.624,124.319,65.448z M119.083,65.504c0-3.388-2.212-5.684-5.32-5.684h-3.22v11.312h3.472   C116.983,71.132,119.083,68.864,119.083,65.504z"/>
	<path fill="#FFFFFF" d="M145.767,65.448c0,5.852-4.284,9.828-10.64,9.828h-8.26V55.648h8.456   C141.539,55.648,145.767,59.624,145.767,65.448z M140.531,65.504c0-3.388-2.212-5.684-5.32-5.684h-3.22v11.312h3.472   C138.431,71.132,140.531,68.864,140.531,65.504z"/>
	<path fill="#FFFFFF" d="M160.103,75.276l-2.856-5.432h-0.112h-3.696v5.432h-5.124V55.648h8.82c5.208,0,8.176,2.52,8.176,6.888   c0,2.968-1.232,5.152-3.5,6.328l4.088,6.412H160.103z M153.438,65.756h3.724c2.072,0,3.276-1.064,3.276-3.052   c0-1.932-1.204-2.968-3.276-2.968h-3.724V65.756z"/>
	<path fill="#FFFFFF" d="M184.07,55.648v4.088h-10.36v3.668h9.352v4.06l-9.352,0.028v3.696h10.64v4.088h-15.764V55.648H184.07z"/>
	<path fill="#FFFFFF" d="M194.682,59.596c-1.232,0-2.044,0.448-2.044,1.344c0,3.248,10.332,1.4,10.332,8.456   c0,4.004-3.528,6.048-7.896,6.048c-3.276,0-6.692-1.204-9.044-3.136l1.988-4.004c2.016,1.736,5.068,2.968,7.112,2.968   c1.512,0,2.464-0.56,2.464-1.596c0-3.332-10.332-1.316-10.332-8.26c0-3.668,3.108-5.992,7.84-5.992c2.884,0,5.796,0.896,7.84,2.212   l-1.932,4.06C198.938,60.52,196.306,59.596,194.682,59.596z"/>
	<path fill="#FFFFFF" d="M212.77,59.596c-1.232,0-2.044,0.448-2.044,1.344c0,3.248,10.332,1.4,10.332,8.456   c0,4.004-3.528,6.048-7.896,6.048c-3.276,0-6.692-1.204-9.044-3.136l1.988-4.004c2.016,1.736,5.068,2.968,7.112,2.968   c1.512,0,2.464-0.56,2.464-1.596c0-3.332-10.332-1.316-10.332-8.26c0-3.668,3.108-5.992,7.84-5.992c2.884,0,5.796,0.896,7.84,2.212   l-1.932,4.06C217.026,60.52,214.394,59.596,212.77,59.596z"/>
</g>
<g>
	<path d="M385.181,312.506v2.545h-5.329v14.257h-2.832v-14.257h-5.305v-2.545H385.181z"/>
	<path d="M398.525,321.363v7.944h-2.76v-7.177c0-1.92-1.152-3.096-3.072-3.096c-2.28,0.023-3.648,1.728-3.648,3.984v6.288h-2.76   v-17.81h2.76v7.537c0.912-1.801,2.544-2.593,4.729-2.593C396.749,316.442,398.525,318.314,398.525,321.363z"/>
	<path d="M413.453,323.979h-9.648c0.432,1.968,1.944,3.192,3.96,3.192c1.392,0,2.665-0.528,3.601-1.488l1.464,1.56   c-1.248,1.368-3.072,2.16-5.28,2.16c-3.937,0-6.529-2.616-6.529-6.456c0-3.864,2.665-6.48,6.457-6.505   C411.965,316.442,413.789,319.371,413.453,323.979z M411.053,321.963c-0.096-2.064-1.464-3.313-3.552-3.313   c-2.016,0-3.457,1.272-3.745,3.313H411.053z"/>
	<path d="M426.508,312.891c0,0.936-0.696,1.632-1.608,1.632s-1.608-0.696-1.608-1.632c0-0.961,0.696-1.656,1.608-1.656   S426.508,311.93,426.508,312.891z M426.268,316.538v12.77h-2.736v-12.77H426.268z"/>
	<path d="M442.564,321.363v7.944h-2.76v-7.177c0-1.92-1.152-3.096-3.072-3.096c-2.112,0.023-3.432,1.487-3.625,3.479v6.793h-2.76   v-12.77h2.76v2.448c0.912-1.775,2.544-2.544,4.705-2.544C440.788,316.442,442.564,318.314,442.564,321.363z"/>
	<path d="M453.484,328.491c-1.008,0.601-2.064,0.937-3.144,0.937c-1.92,0-3.576-1.104-3.576-3.721v-6.624h-1.8v-2.064h1.8v-3.504   h2.736v3.504h3.769v2.064H449.5v6.12c0,1.32,0.504,1.729,1.368,1.729c0.576,0,1.176-0.192,1.92-0.553L453.484,328.491z"/>
	<path d="M467.117,323.979h-9.649c0.432,1.968,1.944,3.192,3.96,3.192c1.392,0,2.665-0.528,3.6-1.488l1.465,1.56   c-1.248,1.368-3.073,2.16-5.281,2.16c-3.937,0-6.529-2.616-6.529-6.456c0-3.864,2.665-6.48,6.457-6.505   C465.629,316.442,467.453,319.371,467.117,323.979z M464.717,321.963c-0.096-2.064-1.464-3.313-3.552-3.313   c-2.016,0-3.457,1.272-3.745,3.313H464.717z"/>
	<path d="M477.172,316.442v2.641c-2.568-0.145-4.2,1.368-4.416,3.552v6.673h-2.761v-12.77h2.761v2.545   C473.619,317.354,475.155,316.442,477.172,316.442z"/>
	<path d="M491.668,321.363v7.944h-2.76v-7.177c0-1.92-1.152-3.096-3.072-3.096c-2.112,0.023-3.433,1.487-3.624,3.479v6.793h-2.761   v-12.77h2.761v2.448c0.912-1.775,2.544-2.544,4.704-2.544C489.893,316.442,491.668,318.314,491.668,321.363z"/>
	<path d="M506.597,323.979h-9.649c0.433,1.968,1.944,3.192,3.961,3.192c1.392,0,2.664-0.528,3.6-1.488l1.465,1.56   c-1.248,1.368-3.072,2.16-5.281,2.16c-3.936,0-6.528-2.616-6.528-6.456c0-3.864,2.664-6.48,6.457-6.505   C505.108,316.442,506.933,319.371,506.597,323.979z M504.196,321.963c-0.096-2.064-1.464-3.313-3.553-3.313   c-2.016,0-3.456,1.272-3.744,3.313H504.196z"/>
	<path d="M516.7,328.491c-1.008,0.601-2.064,0.937-3.145,0.937c-1.92,0-3.576-1.104-3.576-3.721v-6.624h-1.8v-2.064h1.8v-3.504   h2.736v3.504h3.769v2.064h-3.769v6.12c0,1.32,0.504,1.729,1.368,1.729c0.576,0,1.176-0.192,1.92-0.553L516.7,328.491z"/>
</g>
<g>
	<path d="M750.62,311.506l5.185,13.657l5.232-13.657h2.952l-6.792,16.802h-2.929l-6.696-16.802H750.62z"/>
	<path d="M769.076,311.891c0,0.936-0.696,1.632-1.608,1.632s-1.608-0.696-1.608-1.632c0-0.961,0.696-1.656,1.608-1.656   S769.076,310.93,769.076,311.891z M768.836,315.538v12.77H766.1v-12.77H768.836z"/>
	<path d="M776.516,317.627c-1.08,0-1.872,0.359-1.872,1.271c0,2.353,6.792,1.08,6.769,5.713c0,2.616-2.328,3.792-4.896,3.792   c-1.872,0-3.864-0.624-5.137-1.775l0.984-1.969c1.104,0.984,2.88,1.584,4.272,1.584c1.176,0,2.088-0.408,2.088-1.368   c0-2.616-6.721-1.151-6.696-5.76c0-2.593,2.256-3.696,4.704-3.696c1.608,0,3.313,0.479,4.465,1.296l-1.009,2.04   C779.06,318.059,777.644,317.627,776.516,317.627z"/>
	<path d="M787.171,311.891c0,0.936-0.696,1.632-1.608,1.632s-1.608-0.696-1.608-1.632c0-0.961,0.696-1.656,1.608-1.656   S787.171,310.93,787.171,311.891z M786.931,315.538v12.77h-2.736v-12.77H786.931z"/>
	<path d="M798.235,327.491c-1.008,0.601-2.064,0.937-3.145,0.937c-1.92,0-3.576-1.104-3.576-3.721v-6.624h-1.8v-2.064h1.8v-3.504   h2.736v3.504h3.769v2.064h-3.769v6.12c0,1.32,0.504,1.729,1.368,1.729c0.576,0,1.176-0.192,1.92-0.553L798.235,327.491z"/>
	<path d="M812.756,321.899c0,3.864-2.712,6.504-6.648,6.504c-3.96,0-6.673-2.64-6.673-6.504c0-3.841,2.713-6.457,6.673-6.457   C810.044,315.442,812.756,318.059,812.756,321.899z M802.195,321.947c0,2.472,1.607,4.152,3.912,4.152   c2.28,0,3.889-1.681,3.889-4.152c0-2.448-1.608-4.152-3.889-4.152C803.803,317.795,802.195,319.499,802.195,321.947z"/>
	<path d="M822.812,315.442v2.641c-2.568-0.145-4.2,1.368-4.416,3.552v6.673h-2.761v-12.77h2.761v2.545   C819.259,316.354,820.795,315.442,822.812,315.442z"/>
	<path d="M828.691,317.627c-1.08,0-1.872,0.359-1.872,1.271c0,2.353,6.792,1.08,6.769,5.713c0,2.616-2.328,3.792-4.896,3.792   c-1.872,0-3.864-0.624-5.137-1.775l0.984-1.969c1.104,0.984,2.88,1.584,4.272,1.584c1.176,0,2.088-0.408,2.088-1.368   c0-2.616-6.721-1.151-6.696-5.76c0-2.593,2.256-3.696,4.704-3.696c1.608,0,3.313,0.479,4.465,1.296l-1.009,2.04   C831.235,318.059,829.819,317.627,828.691,317.627z"/>
	<path d="M762.646,344.506c0,1.873-1.128,3.289-2.952,3.745c2.256,0.384,3.6,1.992,3.6,4.248c0,2.88-2.328,4.608-6.12,4.608h-7.465   v-16.802h7.297C760.485,340.306,762.646,341.89,762.646,344.506z M759.741,345.011c0-1.393-1.08-2.185-2.881-2.16h-4.32v4.416h4.32   C758.661,347.267,759.741,346.45,759.741,345.011z M760.389,352.139c0-1.488-1.319-2.399-3.528-2.376h-4.32v4.801h4.32   C759.069,354.587,760.389,353.699,760.389,352.139z"/>
	<path d="M778.604,350.699c0,3.864-2.712,6.504-6.648,6.504c-3.96,0-6.673-2.64-6.673-6.504c0-3.841,2.713-6.457,6.673-6.457   C775.893,344.242,778.604,346.858,778.604,350.699z M768.044,350.747c0,2.472,1.607,4.152,3.912,4.152   c2.28,0,3.889-1.681,3.889-4.152c0-2.448-1.608-4.152-3.889-4.152C769.651,346.595,768.044,348.299,768.044,350.747z"/>
	<path d="M788.708,356.291c-1.008,0.601-2.064,0.937-3.145,0.937c-1.92,0-3.576-1.104-3.576-3.721v-6.624h-1.8v-2.064h1.8v-3.504   h2.736v3.504h3.769v2.064h-3.769v6.12c0,1.32,0.504,1.729,1.368,1.729c0.576,0,1.176-0.192,1.92-0.553L788.708,356.291z"/>
	<path d="M794.852,346.427c-1.08,0-1.872,0.359-1.872,1.271c0,2.353,6.792,1.08,6.769,5.713c0,2.616-2.328,3.792-4.896,3.792   c-1.872,0-3.864-0.624-5.137-1.775l0.984-1.969c1.104,0.984,2.88,1.584,4.272,1.584c1.176,0,2.088-0.408,2.088-1.368   c0-2.616-6.721-1.151-6.696-5.76c0-2.593,2.256-3.696,4.704-3.696c1.608,0,3.313,0.479,4.465,1.296l-1.009,2.04   C797.396,346.858,795.979,346.427,794.852,346.427z"/>
	<path d="M822.019,357.563c-0.936-0.937-1.824-1.776-2.616-2.568c-1.488,1.416-3.216,2.232-5.064,2.232c-3,0-5.28-1.992-5.28-4.704   c0-2.377,1.729-3.648,3.624-4.657c-1.104-1.487-1.607-2.688-1.607-3.888c0-2.232,1.752-3.793,4.368-3.793   c2.52,0,4.248,1.465,4.248,3.528c0,2.305-2.017,3.505-4.08,4.585c0.912,1.032,2.088,2.232,3.528,3.648   c0.576-0.864,1.08-1.872,1.512-3.024l1.801,1.344c-0.505,1.2-1.08,2.28-1.753,3.192l2.736,2.664L822.019,357.563z M817.891,353.507   c-1.681-1.68-3.024-3.048-4.081-4.248c-1.392,0.792-2.472,1.68-2.472,3.048c0,1.681,1.368,2.833,3.096,2.833   C815.658,355.14,816.834,354.539,817.891,353.507z M814.506,346.931c1.633-0.84,3-1.704,3-3.192c0-1.104-0.792-1.824-2.04-1.824   c-1.344,0-2.208,0.888-2.208,2.04C813.258,344.843,813.666,345.778,814.506,346.931z"/>
	<path d="M838.193,346.667c-2.208,0-3.792,1.655-3.792,4.08c0,2.424,1.584,4.08,3.792,4.08c1.608,0,2.904-0.528,3.769-1.536   l1.536,1.536c-1.152,1.513-3,2.376-5.425,2.376c-3.792,0-6.433-2.616-6.433-6.456c0-3.864,2.641-6.505,6.433-6.505   c2.305,0,4.104,0.744,5.28,2.088l-1.512,1.776C840.954,347.194,839.729,346.643,838.193,346.667z"/>
	<path d="M853.554,344.242v2.641c-2.568-0.145-4.2,1.368-4.416,3.552v6.673h-2.761v-12.77h2.761v2.545   C850.001,345.154,851.537,344.242,853.554,344.242z"/>
	<path d="M862.986,357.107v-1.561c-0.912,1.129-2.377,1.681-4.225,1.681c-2.761,0-4.488-1.704-4.488-3.96   c0-2.329,1.752-3.816,4.824-3.841h3.864v-0.384c0-1.608-1.032-2.568-3.048-2.568c-1.225,0-2.497,0.432-3.769,1.296l-1.128-1.92   c1.775-1.057,3.072-1.608,5.496-1.608c3.288,0,5.137,1.681,5.16,4.488l0.024,8.377H862.986z M862.962,352.619v-1.176h-3.456   c-1.801,0-2.641,0.479-2.641,1.704c0,1.151,0.937,1.896,2.473,1.896C861.306,355.043,862.818,354.011,862.962,352.619z"/>
	<path d="M869.826,344.338l3.313,10.033l3.216-10.033h2.856l3.24,10.033l3.265-10.033h2.808l-4.656,12.77h-2.856l-3.24-9.457   l-3.24,9.457h-2.832l-4.704-12.77H869.826z"/>
	<path d="M893.322,339.298v17.81h-2.761v-17.81H893.322z"/>
	<path d="M908.755,351.779h-9.649c0.433,1.968,1.944,3.192,3.961,3.192c1.392,0,2.664-0.528,3.6-1.488l1.465,1.56   c-1.248,1.368-3.072,2.16-5.281,2.16c-3.936,0-6.528-2.616-6.528-6.456c0-3.864,2.664-6.48,6.457-6.505   C907.267,344.242,909.091,347.171,908.755,351.779z M906.354,349.763c-0.096-2.064-1.464-3.313-3.553-3.313   c-2.016,0-3.456,1.272-3.744,3.313H906.354z"/>
	<path d="M918.811,344.242v2.641c-2.568-0.145-4.2,1.368-4.416,3.552v6.673h-2.761v-12.77h2.761v2.545   C915.258,345.154,916.794,344.242,918.811,344.242z"/>
	<path d="M924.69,346.427c-1.08,0-1.872,0.359-1.872,1.271c0,2.353,6.792,1.08,6.769,5.713c0,2.616-2.328,3.792-4.896,3.792   c-1.872,0-3.864-0.624-5.137-1.775l0.984-1.969c1.104,0.984,2.88,1.584,4.272,1.584c1.176,0,2.088-0.408,2.088-1.368   c0-2.616-6.721-1.151-6.696-5.76c0-2.593,2.256-3.696,4.704-3.696c1.608,0,3.313,0.479,4.465,1.296l-1.009,2.04   C927.234,346.858,925.818,346.427,924.69,346.427z"/>
</g>
<g>
	<path d="M44.501,102.482v16.826h-2.833v-14.281h-3.624v-2.544H44.501z"/>
	<path d="M59.309,102.482v16.826h-2.833v-14.281h-3.624v-2.544H59.309z"/>
	<path d="M74.116,102.482v16.826h-2.833v-14.281H67.66v-2.544H74.116z"/>
	<path d="M84.051,117.916c0,0.936-0.648,1.608-1.512,1.608s-1.512-0.672-1.512-1.608c0-0.912,0.648-1.56,1.512-1.56   S84.051,117.003,84.051,117.916z"/>
	<path d="M94.947,107.019c0-1.368-1.104-2.16-2.952-2.16c-1.512,0-3.289,0.792-4.729,2.088l-1.152-2.185   c1.872-1.488,4.057-2.4,6.265-2.4c3.288,0,5.521,1.656,5.521,4.248c0,1.68-1.32,3.577-3.168,5.497l-4.608,4.656h8.593v2.544H86.402   v-2.088l6.409-6.625C94.083,109.323,94.947,107.979,94.947,107.019z"/>
	<path d="M109.755,107.019c0-1.368-1.104-2.16-2.952-2.16c-1.512,0-3.289,0.792-4.729,2.088l-1.152-2.185   c1.872-1.488,4.057-2.4,6.265-2.4c3.288,0,5.521,1.656,5.521,4.248c0,1.68-1.32,3.577-3.168,5.497l-4.608,4.656h8.593v2.544H101.21   v-2.088l6.409-6.625C108.891,109.323,109.755,107.979,109.755,107.019z"/>
	<path d="M124.563,107.019c0-1.368-1.104-2.16-2.952-2.16c-1.512,0-3.289,0.792-4.729,2.088l-1.152-2.185   c1.872-1.488,4.057-2.4,6.265-2.4c3.288,0,5.521,1.656,5.521,4.248c0,1.68-1.32,3.577-3.168,5.497l-4.608,4.656h8.593v2.544   h-12.313v-2.088l6.409-6.625C123.698,109.323,124.563,107.979,124.563,107.019z"/>
	<path d="M133.706,117.916c0,0.936-0.648,1.608-1.512,1.608s-1.512-0.672-1.512-1.608c0-0.912,0.648-1.56,1.512-1.56   S133.706,117.003,133.706,117.916z"/>
	<path d="M148.01,114.099c0,3.145-2.544,5.329-6.601,5.329c-2.232,0-4.561-0.72-6.097-1.824l1.176-2.304   c1.32,1.128,3.024,1.752,4.729,1.752c2.544,0,4.032-1.152,4.032-2.904c0-1.824-1.512-2.76-4.081-2.76h-2.448v-1.632l4.921-4.729   h-7.489l-0.024-2.52h11.041v1.776l-5.4,5.208l0.984,0.072C145.897,109.827,148.01,111.435,148.01,114.099z"/>
	<path d="M162.817,114.099c0,3.145-2.544,5.329-6.601,5.329c-2.232,0-4.561-0.72-6.097-1.824l1.176-2.304   c1.32,1.128,3.024,1.752,4.729,1.752c2.544,0,4.032-1.152,4.032-2.904c0-1.824-1.512-2.76-4.081-2.76h-2.448v-1.632l4.921-4.729   h-7.489l-0.024-2.52h11.041v1.776l-5.4,5.208l0.984,0.072C160.705,109.827,162.817,111.435,162.817,114.099z"/>
	<path d="M177.625,114.099c0,3.145-2.544,5.329-6.601,5.329c-2.232,0-4.561-0.72-6.097-1.824l1.176-2.304   c1.32,1.128,3.024,1.752,4.729,1.752c2.544,0,4.032-1.152,4.032-2.904c0-1.824-1.512-2.76-4.081-2.76h-2.448v-1.632l4.921-4.729   h-7.489l-0.024-2.52h11.041v1.776l-5.4,5.208l0.984,0.072C175.513,109.827,177.625,111.435,177.625,114.099z"/>
	<path d="M183.36,117.916c0,0.936-0.648,1.608-1.512,1.608s-1.512-0.672-1.512-1.608c0-0.912,0.648-1.56,1.512-1.56   S183.36,117.003,183.36,117.916z"/>
	<path d="M193.896,102.482l-5.568,10.153h5.161l-0.024-3.96h2.64l0.024,3.96h2.472v2.544h-2.496v4.128h-2.64v-4.128h-8.185v-2.112   l5.881-10.585H193.896z"/>
	<path d="M208.703,102.482l-5.568,10.153h5.161l-0.024-3.96h2.64l0.024,3.96h2.472v2.544h-2.496v4.128h-2.64v-4.128h-8.185v-2.112   l5.881-10.585H208.703z"/>
	<path d="M223.511,102.482l-5.568,10.153h5.161l-0.024-3.96h2.64l0.024,3.96h2.472v2.544h-2.496v4.128h-2.64v-4.128h-8.185v-2.112   l5.881-10.585H223.511z"/>
</g>
<g>
	<rect x="641.5" y="43.5" fill="#0052CC" width="189" height="44"/>
</g>
<g>
	<path fill="#FFFFFF" d="M676.48,71.804h-8.484l-1.372,3.472h-5.265l8.429-19.628h5.264l8.231,19.628h-5.459L676.48,71.804z    M674.968,67.884l-2.688-7l-2.743,7H674.968z"/>
	<path fill="#FFFFFF" d="M692.104,65.084v3.192h-7.42v-3.192H692.104z"/>
	<path fill="#FFFFFF" d="M707.336,75.276l-2.855-5.432h-0.112h-3.696v5.432h-5.124V55.648h8.82c5.208,0,8.176,2.52,8.176,6.888   c0,2.968-1.231,5.152-3.5,6.328l4.088,6.412H707.336z M700.672,65.756h3.725c2.071,0,3.275-1.064,3.275-3.052   c0-1.932-1.204-2.968-3.275-2.968h-3.725V65.756z"/>
	<path fill="#FFFFFF" d="M731.304,55.648v4.088h-10.36v3.668h9.353v4.06l-9.353,0.028v3.696h10.641v4.088H715.82V55.648H731.304z"/>
	<path fill="#FFFFFF" d="M744.043,59.848c-3.023,0-5.319,2.38-5.319,5.516c0,3.164,2.296,5.572,5.319,5.572   c1.625,0,3.5-0.896,4.873-2.296l2.995,3.22c-2.1,2.212-5.235,3.64-8.147,3.64c-5.908,0-10.305-4.312-10.305-10.08   c0-5.656,4.508-9.912,10.5-9.912c2.912,0,5.965,1.288,7.924,3.36l-2.967,3.556C747.627,60.856,745.752,59.848,744.043,59.848z"/>
	<path fill="#FFFFFF" d="M773.723,65.448c0,5.74-4.535,10.052-10.611,10.052s-10.612-4.312-10.612-10.052   c0-5.712,4.536-9.94,10.612-9.94S773.723,59.764,773.723,65.448z M757.764,65.476c0,3.192,2.491,5.656,5.403,5.656   c2.94,0,5.292-2.464,5.292-5.656s-2.352-5.6-5.292-5.6S757.764,62.284,757.764,65.476z"/>
	<path fill="#FFFFFF" d="M788.059,75.276l-2.855-5.432h-0.112h-3.696v5.432h-5.124V55.648h8.82c5.208,0,8.176,2.52,8.176,6.888   c0,2.968-1.231,5.152-3.5,6.328l4.088,6.412H788.059z M781.395,65.756h3.725c2.071,0,3.275-1.064,3.275-3.052   c0-1.932-1.204-2.968-3.275-2.968h-3.725V65.756z"/>
	<path fill="#FFFFFF" d="M815.442,65.448c0,5.852-4.284,9.828-10.64,9.828h-8.26V55.648h8.455   C811.215,55.648,815.442,59.624,815.442,65.448z M810.207,65.504c0-3.388-2.213-5.684-5.32-5.684h-3.221v11.312h3.473   C808.106,71.132,810.207,68.864,810.207,65.504z"/>
</g>
<g>
	<path d="M665.492,102.506l9.001,12.073v-12.073h2.784v16.801h-2.784l-8.952-12.049v12.049h-2.833v-16.801H665.492z"/>
	<path d="M689.205,119.308v-1.56c-0.912,1.128-2.377,1.68-4.225,1.68c-2.76,0-4.488-1.704-4.488-3.96   c0-2.328,1.752-3.816,4.824-3.84h3.864v-0.384c0-1.608-1.032-2.568-3.048-2.568c-1.225,0-2.496,0.432-3.769,1.296l-1.128-1.92   c1.775-1.056,3.072-1.608,5.496-1.608c3.288,0,5.137,1.68,5.16,4.488l0.024,8.377H689.205z M689.181,114.819v-1.176h-3.456   c-1.801,0-2.641,0.48-2.641,1.704c0,1.152,0.936,1.896,2.473,1.896C687.524,117.244,689.037,116.211,689.181,114.819z"/>
	<path d="M716.949,111.363v7.945h-2.76v-7.177c0-1.944-1.152-3.12-3.023-3.12c-2.186,0.072-3.505,1.752-3.505,3.984v6.313H704.9   v-7.177c0-1.944-1.128-3.12-3-3.12c-2.208,0.072-3.553,1.752-3.553,3.984v6.313h-2.736v-12.769h2.736v2.472   c0.889-1.8,2.521-2.568,4.633-2.568c2.28,0,3.84,1.128,4.44,3.072c0.815-2.136,2.521-3.072,4.849-3.072   C715.197,106.442,716.949,108.314,716.949,111.363z"/>
	<path d="M731.877,113.979h-9.648c0.432,1.968,1.943,3.192,3.959,3.192c1.393,0,2.665-0.528,3.602-1.488l1.463,1.561   c-1.248,1.368-3.072,2.16-5.279,2.16c-3.938,0-6.529-2.616-6.529-6.457c0-3.865,2.664-6.481,6.457-6.505   C730.389,106.442,732.213,109.371,731.877,113.979z M729.477,111.963c-0.096-2.064-1.465-3.312-3.553-3.312   c-2.016,0-3.456,1.272-3.744,3.312H729.477z"/>
	<path d="M738.355,108.626c-1.08,0-1.871,0.36-1.871,1.272c0,2.352,6.792,1.08,6.768,5.712c0,2.616-2.328,3.792-4.896,3.792   c-1.871,0-3.863-0.624-5.137-1.776l0.984-1.968c1.104,0.984,2.881,1.584,4.272,1.584c1.177,0,2.089-0.408,2.089-1.368   c0-2.616-6.721-1.152-6.697-5.761c0-2.592,2.256-3.696,4.705-3.696c1.607,0,3.313,0.48,4.464,1.296l-1.008,2.04   C740.9,109.059,739.484,108.626,738.355,108.626z"/>
	<path d="M757.268,113.979h-9.648c0.432,1.968,1.944,3.192,3.961,3.192c1.392,0,2.664-0.528,3.6-1.488l1.465,1.561   c-1.248,1.368-3.072,2.16-5.281,2.16c-3.936,0-6.528-2.616-6.528-6.457c0-3.865,2.665-6.481,6.457-6.505   C755.78,106.442,757.604,109.371,757.268,113.979z M754.868,111.963c-0.097-2.064-1.464-3.312-3.552-3.312   c-2.017,0-3.457,1.272-3.745,3.312H754.868z"/>
	<path d="M767.324,106.442v2.64c-2.568-0.144-4.201,1.368-4.417,3.553v6.672h-2.761v-12.769h2.761v2.544   C763.771,107.354,765.308,106.442,767.324,106.442z"/>
	<path d="M771.091,106.539l3.552,10.057l3.505-10.057h2.761l-4.896,12.769h-2.857l-4.943-12.769H771.091z"/>
	<path d="M793.58,113.979h-9.648c0.432,1.968,1.943,3.192,3.96,3.192c1.392,0,2.665-0.528,3.601-1.488l1.464,1.561   c-1.248,1.368-3.072,2.16-5.28,2.16c-3.937,0-6.529-2.616-6.529-6.457c0-3.865,2.665-6.481,6.457-6.505   C792.092,106.442,793.916,109.371,793.58,113.979z M791.18,111.963c-0.096-2.064-1.464-3.312-3.552-3.312   c-2.017,0-3.456,1.272-3.745,3.312H791.18z"/>
	<path d="M803.636,106.442v2.64c-2.568-0.144-4.2,1.368-4.417,3.553v6.672h-2.76v-12.769h2.76v2.544   C800.084,107.354,801.619,106.442,803.636,106.442z"/>
	<path d="M809.516,108.626c-1.08,0-1.872,0.36-1.872,1.272c0,2.352,6.792,1.08,6.769,5.712c0,2.616-2.328,3.792-4.896,3.792   c-1.872,0-3.864-0.624-5.137-1.776l0.984-1.968c1.104,0.984,2.88,1.584,4.272,1.584c1.176,0,2.088-0.408,2.088-1.368   c0-2.616-6.721-1.152-6.696-5.761c0-2.592,2.256-3.696,4.704-3.696c1.608,0,3.313,0.48,4.464,1.296l-1.008,2.04   C812.06,109.059,810.644,108.626,809.516,108.626z"/>
</g>
<g>
	<g>
		<line fill="none" x1="349.5" y1="70.5" x2="315.911" y2="70.5"/>
		<g>
			<g>
				<polygon fill="#202020" points="362.651,33.048 373.805,44.202 347.508,70.5 373.805,96.799 362.651,107.955 325.195,70.5           "/>
			</g>
		</g>
	</g>
</g>
</svg>