<?xml version="1.0" encoding="iso-8859-1"?>
<!-- Generator: Adobe Illustrator 13.0.0, SVG Export Plug-In . SVG Version: 6.00 Build 14948)  -->
<!DOCTYPE svg PUBLIC "-//W3C//DTD SVG 1.1//EN" "http://www.w3.org/Graphics/SVG/1.1/DTD/svg11.dtd">
<svg version="1.1" id="Layer_1" xmlns="http://www.w3.org/2000/svg" xmlns:xlink="http://www.w3.org/1999/xlink" x="0px" y="0px"
	 width="900px" height="350px" viewBox="0 0 900 350" enable-background="new 0 0 900 350" xml:space="preserve">
<g>
	<polygon fill="#707070" points="210,222.5 210,217.499 297.999,217.499 297.999,222.5 210,222.5 	"/>
</g>
<g>
	
		<linearGradient id="SVGID_1_" gradientUnits="userSpaceOnUse" x1="-51.8228" y1="-124.5454" x2="19.3839" y2="-195.7521" gradientTransform="matrix(1 0 0 -1 94 103)">
		<stop  offset="0" style="stop-color:#FF29D8"/>
		<stop  offset="1" style="stop-color:#2068FF"/>
	</linearGradient>
	<path fill="url(#SVGID_1_)" d="M74.817,266.038h3.501c1.296,0,2.352-1.053,2.352-2.349v-3.504c0-1.296-1.056-2.353-2.352-2.353
		h-3.501c-1.296,0-2.352,1.057-2.352,2.353v3.504C72.465,264.985,73.521,266.038,74.817,266.038z"/>
	
		<linearGradient id="SVGID_2_" gradientUnits="userSpaceOnUse" x1="-46.228" y1="-118.9502" x2="24.9794" y2="-190.1576" gradientTransform="matrix(1 0 0 -1 94 103)">
		<stop  offset="0" style="stop-color:#FF29D8"/>
		<stop  offset="1" style="stop-color:#2068FF"/>
	</linearGradient>
	<path fill="url(#SVGID_2_)" d="M86.007,266.038h3.501c1.299,0,2.352-1.053,2.352-2.349v-3.504c0-1.296-1.053-2.353-2.352-2.353
		h-3.501c-1.299,0-2.355,1.057-2.355,2.353v3.504C83.652,264.985,84.708,266.038,86.007,266.038z"/>
	
		<linearGradient id="SVGID_3_" gradientUnits="userSpaceOnUse" x1="-4.1875" y1="-76.9102" x2="67.0192" y2="-148.1169" gradientTransform="matrix(1 0 0 -1 94 103)">
		<stop  offset="0" style="stop-color:#FF29D8"/>
		<stop  offset="1" style="stop-color:#2068FF"/>
	</linearGradient>
	<path fill="url(#SVGID_3_)" d="M89.508,173.752h-3.501c-1.299,0-2.355,1.057-2.355,2.352v3.504c0,1.297,1.056,2.353,2.355,2.353
		h3.501c1.299,0,2.352-1.056,2.352-2.353v-3.504C91.86,174.809,90.807,173.752,89.508,173.752z"/>
	
		<linearGradient id="SVGID_4_" gradientUnits="userSpaceOnUse" x1="-9.7822" y1="-82.5044" x2="61.4237" y2="-153.7103" gradientTransform="matrix(1 0 0 -1 94 103)">
		<stop  offset="0" style="stop-color:#FF29D8"/>
		<stop  offset="1" style="stop-color:#2068FF"/>
	</linearGradient>
	<path fill="url(#SVGID_4_)" d="M78.318,173.752h-3.501c-1.296,0-2.352,1.057-2.352,2.352v3.504c0,1.297,1.056,2.353,2.352,2.353
		h3.501c1.296,0,2.352-1.056,2.352-2.353v-3.504C80.67,174.809,79.614,173.752,78.318,173.752z"/>
	
		<linearGradient id="SVGID_5_" gradientUnits="userSpaceOnUse" x1="-15.3784" y1="-88.1006" x2="55.8275" y2="-159.3065" gradientTransform="matrix(1 0 0 -1 94 103)">
		<stop  offset="0" style="stop-color:#FF29D8"/>
		<stop  offset="1" style="stop-color:#2068FF"/>
	</linearGradient>
	<path fill="url(#SVGID_5_)" d="M67.128,173.752h-3.504c-1.296,0-2.352,1.057-2.352,2.352v3.504c0,1.297,1.056,2.353,2.352,2.353
		h3.504c1.296,0,2.349-1.056,2.349-2.353v-3.504C69.477,174.809,68.424,173.752,67.128,173.752z"/>
	
		<linearGradient id="SVGID_6_" gradientUnits="userSpaceOnUse" x1="-23.0654" y1="-95.7905" x2="48.1459" y2="-167.0019" gradientTransform="matrix(1 0 0 -1 94 103)">
		<stop  offset="0" style="stop-color:#FF29D8"/>
		<stop  offset="1" style="stop-color:#2068FF"/>
	</linearGradient>
	<path fill="url(#SVGID_6_)" d="M50,173.752c-0.332,0-0.6,0.27-0.6,0.601v7.008c0,0.331,0.269,0.601,0.6,0.601
		c0.331,0,0.6-0.27,0.6-0.601v-7.008C50.6,174.021,50.331,173.752,50,173.752z"/>
	
		<linearGradient id="SVGID_7_" gradientUnits="userSpaceOnUse" x1="-25.2061" y1="-97.9312" x2="46.0052" y2="-169.1424" gradientTransform="matrix(1 0 0 -1 94 103)">
		<stop  offset="0" style="stop-color:#FF29D8"/>
		<stop  offset="1" style="stop-color:#2068FF"/>
	</linearGradient>
	<path fill="url(#SVGID_7_)" d="M45.718,173.752c-0.331,0-0.6,0.27-0.6,0.601v7.008c0,0.331,0.269,0.601,0.6,0.601
		c0.332,0,0.6-0.27,0.6-0.601v-7.008C46.318,174.021,46.05,173.752,45.718,173.752z"/>
	
		<linearGradient id="SVGID_8_" gradientUnits="userSpaceOnUse" x1="-27.3462" y1="-100.0718" x2="43.8652" y2="-171.2832" gradientTransform="matrix(1 0 0 -1 94 103)">
		<stop  offset="0" style="stop-color:#FF29D8"/>
		<stop  offset="1" style="stop-color:#2068FF"/>
	</linearGradient>
	<path fill="url(#SVGID_8_)" d="M41.438,173.752c-0.332,0-0.6,0.27-0.6,0.601v7.008c0,0.331,0.269,0.601,0.6,0.601
		c0.331,0,0.6-0.27,0.6-0.601v-7.008C42.038,174.021,41.769,173.752,41.438,173.752z"/>
	
		<linearGradient id="SVGID_9_" gradientUnits="userSpaceOnUse" x1="-29.4868" y1="-102.2134" x2="41.7255" y2="-173.4257" gradientTransform="matrix(1 0 0 -1 94 103)">
		<stop  offset="0" style="stop-color:#FF29D8"/>
		<stop  offset="1" style="stop-color:#2068FF"/>
	</linearGradient>
	<path fill="url(#SVGID_9_)" d="M37.155,173.752c-0.331,0-0.6,0.27-0.6,0.601v7.008c0,0.331,0.269,0.601,0.6,0.601
		s0.6-0.27,0.6-0.601v-7.008C37.755,174.021,37.486,173.752,37.155,173.752z"/>
	
		<linearGradient id="SVGID_10_" gradientUnits="userSpaceOnUse" x1="-31.6274" y1="-104.354" x2="39.5843" y2="-175.5657" gradientTransform="matrix(1 0 0 -1 94 103)">
		<stop  offset="0" style="stop-color:#FF29D8"/>
		<stop  offset="1" style="stop-color:#2068FF"/>
	</linearGradient>
	<path fill="url(#SVGID_10_)" d="M32.875,173.752c-0.331,0-0.6,0.27-0.6,0.601v7.008c0,0.331,0.269,0.601,0.6,0.601
		s0.6-0.27,0.6-0.601v-7.008C33.475,174.021,33.206,173.752,32.875,173.752z"/>
	
		<linearGradient id="SVGID_11_" gradientUnits="userSpaceOnUse" x1="-20.2915" y1="-93.0142" x2="50.9171" y2="-164.2228" gradientTransform="matrix(1 0 0 -1 94 103)">
		<stop  offset="0" style="stop-color:#FF29D8"/>
		<stop  offset="1" style="stop-color:#2068FF"/>
	</linearGradient>
	<path fill="url(#SVGID_11_)" d="M74.817,202.979h3.501c1.296,0,2.352-1.057,2.352-2.353v-3.501c0-1.299-1.056-2.355-2.352-2.355
		h-3.501c-1.296,0-2.352,1.057-2.352,2.355v3.501C72.465,201.922,73.521,202.979,74.817,202.979z"/>
	
		<linearGradient id="SVGID_12_" gradientUnits="userSpaceOnUse" x1="-25.8877" y1="-98.6104" x2="45.3207" y2="-169.8188" gradientTransform="matrix(1 0 0 -1 94 103)">
		<stop  offset="0" style="stop-color:#FF29D8"/>
		<stop  offset="1" style="stop-color:#2068FF"/>
	</linearGradient>
	<path fill="url(#SVGID_12_)" d="M63.624,202.979h3.504c1.296,0,2.349-1.057,2.349-2.353v-3.501c0-1.299-1.053-2.355-2.349-2.355
		h-3.504c-1.296,0-2.352,1.057-2.352,2.355v3.501C61.272,201.922,62.328,202.979,63.624,202.979z"/>
	
		<linearGradient id="SVGID_13_" gradientUnits="userSpaceOnUse" x1="-14.6978" y1="-87.4194" x2="56.5117" y2="-158.6288" gradientTransform="matrix(1 0 0 -1 94 103)">
		<stop  offset="0" style="stop-color:#FF29D8"/>
		<stop  offset="1" style="stop-color:#2068FF"/>
	</linearGradient>
	<path fill="url(#SVGID_13_)" d="M86.007,202.979h3.501c1.299,0,2.352-1.057,2.352-2.353v-3.501c0-1.299-1.053-2.355-2.352-2.355
		h-3.501c-1.299,0-2.355,1.057-2.355,2.355v3.501C83.652,201.922,84.708,202.979,86.007,202.979z"/>
	
		<linearGradient id="SVGID_14_" gradientUnits="userSpaceOnUse" x1="-33.5762" y1="-106.2983" x2="37.6303" y2="-177.5048" gradientTransform="matrix(1 0 0 -1 94 103)">
		<stop  offset="0" style="stop-color:#FF29D8"/>
		<stop  offset="1" style="stop-color:#2068FF"/>
	</linearGradient>
	<path fill="url(#SVGID_14_)" d="M50,202.979c0.331,0,0.6-0.269,0.6-0.6v-7.006c0-0.332-0.269-0.601-0.6-0.601
		c-0.332,0-0.6,0.269-0.6,0.601v7.006C49.4,202.71,49.668,202.979,50,202.979z"/>
	
		<linearGradient id="SVGID_15_" gradientUnits="userSpaceOnUse" x1="-35.7163" y1="-108.439" x2="35.4901" y2="-179.6454" gradientTransform="matrix(1 0 0 -1 94 103)">
		<stop  offset="0" style="stop-color:#FF29D8"/>
		<stop  offset="1" style="stop-color:#2068FF"/>
	</linearGradient>
	<path fill="url(#SVGID_15_)" d="M45.718,202.979c0.332,0,0.6-0.269,0.6-0.6v-7.006c0-0.332-0.269-0.601-0.6-0.601
		c-0.331,0-0.6,0.269-0.6,0.601v7.006C45.119,202.71,45.387,202.979,45.718,202.979z"/>
	
		<linearGradient id="SVGID_16_" gradientUnits="userSpaceOnUse" x1="-37.8569" y1="-110.5791" x2="33.3495" y2="-181.7856" gradientTransform="matrix(1 0 0 -1 94 103)">
		<stop  offset="0" style="stop-color:#FF29D8"/>
		<stop  offset="1" style="stop-color:#2068FF"/>
	</linearGradient>
	<path fill="url(#SVGID_16_)" d="M41.438,202.979c0.331,0,0.6-0.269,0.6-0.6v-7.006c0-0.332-0.269-0.601-0.6-0.601
		c-0.332,0-0.6,0.269-0.6,0.601v7.006C40.838,202.71,41.106,202.979,41.438,202.979z"/>
	
		<linearGradient id="SVGID_17_" gradientUnits="userSpaceOnUse" x1="-39.9985" y1="-112.7212" x2="31.2087" y2="-183.9285" gradientTransform="matrix(1 0 0 -1 94 103)">
		<stop  offset="0" style="stop-color:#FF29D8"/>
		<stop  offset="1" style="stop-color:#2068FF"/>
	</linearGradient>
	<path fill="url(#SVGID_17_)" d="M37.155,202.979c0.331,0,0.6-0.269,0.6-0.6v-7.006c0-0.332-0.269-0.601-0.6-0.601
		s-0.6,0.269-0.6,0.601v7.006C36.555,202.71,36.824,202.979,37.155,202.979z"/>
	
		<linearGradient id="SVGID_18_" gradientUnits="userSpaceOnUse" x1="-42.1382" y1="-114.8608" x2="29.0688" y2="-186.0678" gradientTransform="matrix(1 0 0 -1 94 103)">
		<stop  offset="0" style="stop-color:#FF29D8"/>
		<stop  offset="1" style="stop-color:#2068FF"/>
	</linearGradient>
	<path fill="url(#SVGID_18_)" d="M32.875,202.979c0.331,0,0.6-0.269,0.6-0.6v-7.006c0-0.332-0.269-0.601-0.6-0.601
		s-0.6,0.269-0.6,0.601v7.006C32.274,202.71,32.543,202.979,32.875,202.979z"/>
	
		<linearGradient id="SVGID_19_" gradientUnits="userSpaceOnUse" x1="-30.8018" y1="-103.5244" x2="40.404" y2="-174.7302" gradientTransform="matrix(1 0 0 -1 94 103)">
		<stop  offset="0" style="stop-color:#FF29D8"/>
		<stop  offset="1" style="stop-color:#2068FF"/>
	</linearGradient>
	<path fill="url(#SVGID_19_)" d="M74.817,223.999h3.501c1.296,0,2.352-1.056,2.352-2.352v-3.504c0-1.296-1.056-2.35-2.352-2.35
		h-3.501c-1.296,0-2.352,1.054-2.352,2.35v3.504C72.465,222.943,73.521,223.999,74.817,223.999z"/>
	
		<linearGradient id="SVGID_20_" gradientUnits="userSpaceOnUse" x1="-36.3979" y1="-109.1206" x2="34.8076" y2="-180.3262" gradientTransform="matrix(1 0 0 -1 94 103)">
		<stop  offset="0" style="stop-color:#FF29D8"/>
		<stop  offset="1" style="stop-color:#2068FF"/>
	</linearGradient>
	<path fill="url(#SVGID_20_)" d="M63.624,223.999h3.504c1.296,0,2.349-1.056,2.349-2.352v-3.504c0-1.296-1.053-2.35-2.349-2.35
		h-3.504c-1.296,0-2.352,1.054-2.352,2.35v3.504C61.272,222.943,62.328,223.999,63.624,223.999z"/>
	
		<linearGradient id="SVGID_21_" gradientUnits="userSpaceOnUse" x1="-25.2075" y1="-97.9307" x2="45.999" y2="-169.1372" gradientTransform="matrix(1 0 0 -1 94 103)">
		<stop  offset="0" style="stop-color:#FF29D8"/>
		<stop  offset="1" style="stop-color:#2068FF"/>
	</linearGradient>
	<path fill="url(#SVGID_21_)" d="M86.007,223.999h3.501c1.299,0,2.352-1.056,2.352-2.352v-3.504c0-1.296-1.053-2.35-2.352-2.35
		h-3.501c-1.299,0-2.355,1.054-2.355,2.35v3.504C83.652,222.943,84.708,223.999,86.007,223.999z"/>
	
		<linearGradient id="SVGID_22_" gradientUnits="userSpaceOnUse" x1="-44.0864" y1="-116.8091" x2="27.1216" y2="-188.0172" gradientTransform="matrix(1 0 0 -1 94 103)">
		<stop  offset="0" style="stop-color:#FF29D8"/>
		<stop  offset="1" style="stop-color:#2068FF"/>
	</linearGradient>
	<path fill="url(#SVGID_22_)" d="M50,224c0.331,0,0.6-0.269,0.6-0.601v-7.007c0-0.33-0.269-0.6-0.6-0.6c-0.332,0-0.6,0.27-0.6,0.6
		v7.007C49.4,223.731,49.668,224,50,224z"/>
	
		<linearGradient id="SVGID_23_" gradientUnits="userSpaceOnUse" x1="-46.2271" y1="-118.9497" x2="24.981" y2="-190.1578" gradientTransform="matrix(1 0 0 -1 94 103)">
		<stop  offset="0" style="stop-color:#FF29D8"/>
		<stop  offset="1" style="stop-color:#2068FF"/>
	</linearGradient>
	<path fill="url(#SVGID_23_)" d="M45.718,224c0.332,0,0.6-0.269,0.6-0.601v-7.007c0-0.33-0.269-0.6-0.6-0.6
		c-0.331,0-0.6,0.27-0.6,0.6v7.007C45.119,223.731,45.387,224,45.718,224z"/>
	
		<linearGradient id="SVGID_24_" gradientUnits="userSpaceOnUse" x1="-48.3677" y1="-121.0903" x2="22.8404" y2="-192.2984" gradientTransform="matrix(1 0 0 -1 94 103)">
		<stop  offset="0" style="stop-color:#FF29D8"/>
		<stop  offset="1" style="stop-color:#2068FF"/>
	</linearGradient>
	<path fill="url(#SVGID_24_)" d="M41.438,224c0.331,0,0.6-0.269,0.6-0.601v-7.007c0-0.33-0.269-0.6-0.6-0.6
		c-0.332,0-0.6,0.27-0.6,0.6v7.007C40.838,223.731,41.106,224,41.438,224z"/>
	
		<linearGradient id="SVGID_25_" gradientUnits="userSpaceOnUse" x1="-50.5088" y1="-123.2314" x2="20.7003" y2="-194.4405" gradientTransform="matrix(1 0 0 -1 94 103)">
		<stop  offset="0" style="stop-color:#FF29D8"/>
		<stop  offset="1" style="stop-color:#2068FF"/>
	</linearGradient>
	<path fill="url(#SVGID_25_)" d="M37.155,224c0.331,0,0.6-0.269,0.6-0.601v-7.007c0-0.33-0.269-0.6-0.6-0.6s-0.6,0.27-0.6,0.6v7.007
		C36.555,223.731,36.824,224,37.155,224z"/>
	
		<linearGradient id="SVGID_26_" gradientUnits="userSpaceOnUse" x1="-52.6489" y1="-125.3721" x2="18.5595" y2="-196.5805" gradientTransform="matrix(1 0 0 -1 94 103)">
		<stop  offset="0" style="stop-color:#FF29D8"/>
		<stop  offset="1" style="stop-color:#2068FF"/>
	</linearGradient>
	<path fill="url(#SVGID_26_)" d="M32.875,224c0.331,0,0.6-0.269,0.6-0.601v-7.007c0-0.33-0.269-0.6-0.6-0.6s-0.6,0.27-0.6,0.6v7.007
		C32.274,223.731,32.543,224,32.875,224z"/>
	
		<linearGradient id="SVGID_27_" gradientUnits="userSpaceOnUse" x1="-41.3115" y1="-114.0352" x2="29.8938" y2="-185.2404" gradientTransform="matrix(1 0 0 -1 94 103)">
		<stop  offset="0" style="stop-color:#FF29D8"/>
		<stop  offset="1" style="stop-color:#2068FF"/>
	</linearGradient>
	<path fill="url(#SVGID_27_)" d="M78.318,236.813h-3.501c-1.296,0-2.352,1.056-2.352,2.352v3.501c0,1.299,1.056,2.353,2.352,2.353
		h3.501c1.296,0,2.352-1.054,2.352-2.353v-3.501C80.67,237.868,79.614,236.813,78.318,236.813z"/>
	
		<linearGradient id="SVGID_28_" gradientUnits="userSpaceOnUse" x1="-35.7173" y1="-108.4399" x2="35.4888" y2="-179.646" gradientTransform="matrix(1 0 0 -1 94 103)">
		<stop  offset="0" style="stop-color:#FF29D8"/>
		<stop  offset="1" style="stop-color:#2068FF"/>
	</linearGradient>
	<path fill="url(#SVGID_28_)" d="M89.508,236.813h-3.501c-1.299,0-2.355,1.056-2.355,2.352v3.501c0,1.299,1.056,2.353,2.355,2.353
		h3.501c1.299,0,2.352-1.054,2.352-2.353v-3.501C91.86,237.868,90.807,236.813,89.508,236.813z"/>
	
		<linearGradient id="SVGID_29_" gradientUnits="userSpaceOnUse" x1="-46.9077" y1="-119.6309" x2="24.2974" y2="-190.836" gradientTransform="matrix(1 0 0 -1 94 103)">
		<stop  offset="0" style="stop-color:#FF29D8"/>
		<stop  offset="1" style="stop-color:#2068FF"/>
	</linearGradient>
	<path fill="url(#SVGID_29_)" d="M67.128,236.813h-3.504c-1.296,0-2.352,1.056-2.352,2.352v3.501c0,1.299,1.056,2.353,2.352,2.353
		h3.504c1.296,0,2.349-1.054,2.349-2.353v-3.501C69.477,237.868,68.424,236.813,67.128,236.813z"/>
	
		<linearGradient id="SVGID_30_" gradientUnits="userSpaceOnUse" x1="-54.5967" y1="-127.3184" x2="16.6115" y2="-198.5266" gradientTransform="matrix(1 0 0 -1 94 103)">
		<stop  offset="0" style="stop-color:#FF29D8"/>
		<stop  offset="1" style="stop-color:#2068FF"/>
	</linearGradient>
	<path fill="url(#SVGID_30_)" d="M50,236.813c-0.332,0-0.6,0.27-0.6,0.601v7.006c0,0.331,0.269,0.6,0.6,0.6
		c0.331,0,0.6-0.269,0.6-0.6v-7.006C50.6,237.082,50.331,236.813,50,236.813z"/>
	
		<linearGradient id="SVGID_31_" gradientUnits="userSpaceOnUse" x1="-56.7368" y1="-129.4595" x2="14.4713" y2="-200.6676" gradientTransform="matrix(1 0 0 -1 94 103)">
		<stop  offset="0" style="stop-color:#FF29D8"/>
		<stop  offset="1" style="stop-color:#2068FF"/>
	</linearGradient>
	<path fill="url(#SVGID_31_)" d="M45.718,236.813c-0.331,0-0.6,0.27-0.6,0.601v7.006c0,0.331,0.269,0.6,0.6,0.6
		c0.332,0,0.6-0.269,0.6-0.6v-7.006C46.318,237.082,46.05,236.813,45.718,236.813z"/>
	
		<linearGradient id="SVGID_32_" gradientUnits="userSpaceOnUse" x1="-58.877" y1="-131.5986" x2="12.3313" y2="-202.8069" gradientTransform="matrix(1 0 0 -1 94 103)">
		<stop  offset="0" style="stop-color:#FF29D8"/>
		<stop  offset="1" style="stop-color:#2068FF"/>
	</linearGradient>
	<path fill="url(#SVGID_32_)" d="M41.438,236.813c-0.332,0-0.6,0.27-0.6,0.601v7.006c0,0.331,0.269,0.6,0.6,0.6
		c0.331,0,0.6-0.269,0.6-0.6v-7.006C42.038,237.082,41.769,236.813,41.438,236.813z"/>
	
		<linearGradient id="SVGID_33_" gradientUnits="userSpaceOnUse" x1="-61.019" y1="-133.7407" x2="10.19" y2="-204.9498" gradientTransform="matrix(1 0 0 -1 94 103)">
		<stop  offset="0" style="stop-color:#FF29D8"/>
		<stop  offset="1" style="stop-color:#2068FF"/>
	</linearGradient>
	<path fill="url(#SVGID_33_)" d="M37.155,236.813c-0.331,0-0.6,0.27-0.6,0.601v7.006c0,0.331,0.269,0.6,0.6,0.6s0.6-0.269,0.6-0.6
		v-7.006C37.755,237.082,37.486,236.813,37.155,236.813z"/>
	
		<linearGradient id="SVGID_34_" gradientUnits="userSpaceOnUse" x1="-63.1587" y1="-135.8809" x2="8.0499" y2="-207.0894" gradientTransform="matrix(1 0 0 -1 94 103)">
		<stop  offset="0" style="stop-color:#FF29D8"/>
		<stop  offset="1" style="stop-color:#2068FF"/>
	</linearGradient>
	<path fill="url(#SVGID_34_)" d="M32.875,236.813c-0.331,0-0.6,0.27-0.6,0.601v7.006c0,0.331,0.269,0.6,0.6,0.6s0.6-0.269,0.6-0.6
		v-7.006C33.475,237.082,33.206,236.813,32.875,236.813z"/>
	
		<linearGradient id="SVGID_35_" gradientUnits="userSpaceOnUse" x1="-57.4189" y1="-130.1416" x2="13.7875" y2="-201.3481" gradientTransform="matrix(1 0 0 -1 94 103)">
		<stop  offset="0" style="stop-color:#FF29D8"/>
		<stop  offset="1" style="stop-color:#2068FF"/>
	</linearGradient>
	<path fill="url(#SVGID_35_)" d="M63.624,266.038h3.504c1.296,0,2.349-1.053,2.349-2.349v-3.504c0-1.296-1.053-2.353-2.349-2.353
		h-3.504c-1.296,0-2.352,1.057-2.352,2.353v3.504C61.272,264.985,62.328,266.038,63.624,266.038z"/>
	
		<linearGradient id="SVGID_36_" gradientUnits="userSpaceOnUse" x1="-65.1064" y1="-137.8286" x2="6.1005" y2="-209.0356" gradientTransform="matrix(1 0 0 -1 94 103)">
		<stop  offset="0" style="stop-color:#FF29D8"/>
		<stop  offset="1" style="stop-color:#2068FF"/>
	</linearGradient>
	<path fill="url(#SVGID_36_)" d="M50,266.039c0.331,0,0.6-0.269,0.6-0.601v-7.005c0-0.331-0.269-0.6-0.6-0.6
		c-0.332,0-0.6,0.269-0.6,0.6v7.005C49.4,265.771,49.668,266.039,50,266.039z"/>
	
		<linearGradient id="SVGID_37_" gradientUnits="userSpaceOnUse" x1="-67.2471" y1="-139.9697" x2="3.9598" y2="-211.1766" gradientTransform="matrix(1 0 0 -1 94 103)">
		<stop  offset="0" style="stop-color:#FF29D8"/>
		<stop  offset="1" style="stop-color:#2068FF"/>
	</linearGradient>
	<path fill="url(#SVGID_37_)" d="M45.718,266.039c0.332,0,0.6-0.269,0.6-0.601v-7.005c0-0.331-0.269-0.6-0.6-0.6
		c-0.331,0-0.6,0.269-0.6,0.6v7.005C45.119,265.771,45.387,266.039,45.718,266.039z"/>
	
		<linearGradient id="SVGID_38_" gradientUnits="userSpaceOnUse" x1="-69.3877" y1="-142.1104" x2="1.8192" y2="-213.3173" gradientTransform="matrix(1 0 0 -1 94 103)">
		<stop  offset="0" style="stop-color:#FF29D8"/>
		<stop  offset="1" style="stop-color:#2068FF"/>
	</linearGradient>
	<path fill="url(#SVGID_38_)" d="M41.438,266.039c0.331,0,0.6-0.269,0.6-0.601v-7.005c0-0.331-0.269-0.6-0.6-0.6
		c-0.332,0-0.6,0.269-0.6,0.6v7.005C40.838,265.771,41.106,266.039,41.438,266.039z"/>
	
		<linearGradient id="SVGID_39_" gradientUnits="userSpaceOnUse" x1="-71.5288" y1="-144.2505" x2="-0.3209" y2="-215.4584" gradientTransform="matrix(1 0 0 -1 94 103)">
		<stop  offset="0" style="stop-color:#FF29D8"/>
		<stop  offset="1" style="stop-color:#2068FF"/>
	</linearGradient>
	<path fill="url(#SVGID_39_)" d="M37.155,266.039c0.331,0,0.6-0.269,0.6-0.601v-7.005c0-0.331-0.269-0.6-0.6-0.6s-0.6,0.269-0.6,0.6
		v7.005C36.555,265.771,36.824,266.039,37.155,266.039z"/>
	
		<linearGradient id="SVGID_40_" gradientUnits="userSpaceOnUse" x1="-73.6694" y1="-146.3916" x2="-2.462" y2="-217.599" gradientTransform="matrix(1 0 0 -1 94 103)">
		<stop  offset="0" style="stop-color:#FF29D8"/>
		<stop  offset="1" style="stop-color:#2068FF"/>
	</linearGradient>
	<path fill="url(#SVGID_40_)" d="M32.875,266.039c0.331,0,0.6-0.269,0.6-0.601v-7.005c0-0.331-0.269-0.6-0.6-0.6s-0.6,0.269-0.6,0.6
		v7.005C32.274,265.771,32.543,266.039,32.875,266.039z"/>
	
		<linearGradient id="SVGID_41_" gradientUnits="userSpaceOnUse" x1="30.4717" y1="-42.251" x2="101.6783" y2="-113.4576" gradientTransform="matrix(1 0 0 -1 94 103)">
		<stop  offset="0" style="stop-color:#FF29D8"/>
		<stop  offset="1" style="stop-color:#2068FF"/>
	</linearGradient>
	<path fill="url(#SVGID_41_)" d="M133.903,165.123h19.679c0.331,0,0.6-0.269,0.6-0.6s-0.269-0.6-0.6-0.6h-19.68
		c-0.331,0-0.6,0.269-0.6,0.6S133.571,165.123,133.903,165.123z"/>
	
		<linearGradient id="SVGID_42_" gradientUnits="userSpaceOnUse" x1="28.4849" y1="-44.2373" x2="99.692" y2="-115.4444" gradientTransform="matrix(1 0 0 -1 94 103)">
		<stop  offset="0" style="stop-color:#FF29D8"/>
		<stop  offset="1" style="stop-color:#2068FF"/>
	</linearGradient>
	<path fill="url(#SVGID_42_)" d="M133.903,169.096h19.679c0.331,0,0.6-0.269,0.6-0.6c0-0.332-0.269-0.6-0.6-0.6h-19.68
		c-0.331,0-0.6,0.269-0.6,0.6C133.303,168.827,133.571,169.096,133.903,169.096z"/>
	
		<linearGradient id="SVGID_43_" gradientUnits="userSpaceOnUse" x1="26.4985" y1="-46.2241" x2="97.7048" y2="-117.4304" gradientTransform="matrix(1 0 0 -1 94 103)">
		<stop  offset="0" style="stop-color:#FF29D8"/>
		<stop  offset="1" style="stop-color:#2068FF"/>
	</linearGradient>
	<path fill="url(#SVGID_43_)" d="M133.903,173.068h19.679c0.331,0,0.6-0.269,0.6-0.6c0-0.331-0.269-0.6-0.6-0.6h-19.68
		c-0.331,0-0.6,0.269-0.6,0.6C133.303,172.8,133.571,173.068,133.903,173.068z"/>
	
		<linearGradient id="SVGID_44_" gradientUnits="userSpaceOnUse" x1="24.5127" y1="-48.209" x2="95.7208" y2="-119.4171" gradientTransform="matrix(1 0 0 -1 94 103)">
		<stop  offset="0" style="stop-color:#FF29D8"/>
		<stop  offset="1" style="stop-color:#2068FF"/>
	</linearGradient>
	<path fill="url(#SVGID_44_)" d="M133.903,177.041h19.679c0.331,0,0.6-0.27,0.6-0.601s-0.269-0.601-0.6-0.601h-19.68
		c-0.331,0-0.6,0.27-0.6,0.601S133.571,177.041,133.903,177.041z"/>
	
		<linearGradient id="SVGID_45_" gradientUnits="userSpaceOnUse" x1="22.5259" y1="-50.1963" x2="93.7328" y2="-121.4033" gradientTransform="matrix(1 0 0 -1 94 103)">
		<stop  offset="0" style="stop-color:#FF29D8"/>
		<stop  offset="1" style="stop-color:#2068FF"/>
	</linearGradient>
	<path fill="url(#SVGID_45_)" d="M154.182,180.414c0-0.332-0.269-0.601-0.6-0.601h-19.68c-0.331,0-0.6,0.269-0.6,0.601
		c0,0.33,0.269,0.6,0.6,0.6h19.68C153.913,181.014,154.182,180.745,154.182,180.414z"/>
	
		<linearGradient id="SVGID_46_" gradientUnits="userSpaceOnUse" x1="-16.9546" y1="-89.6782" x2="54.2518" y2="-160.8847" gradientTransform="matrix(1 0 0 -1 94 103)">
		<stop  offset="0" style="stop-color:#FF29D8"/>
		<stop  offset="1" style="stop-color:#2068FF"/>
	</linearGradient>
	<path fill="url(#SVGID_46_)" d="M138.927,264.871c0.093,0.054,0.198,0.078,0.3,0.078c0.105,0,0.208-0.024,0.301-0.078l12.033-6.948
		c0.186-0.107,0.3-0.306,0.3-0.519c0-0.216-0.114-0.414-0.3-0.519l-12.033-6.948c-0.187-0.105-0.414-0.105-0.601,0
		c-0.186,0.108-0.3,0.307-0.3,0.519v13.894C138.627,264.565,138.741,264.763,138.927,264.871z"/>
	
		<linearGradient id="SVGID_47_" gradientUnits="userSpaceOnUse" x1="-22.1387" y1="-94.8613" x2="49.0681" y2="-166.0682" gradientTransform="matrix(1 0 0 -1 94 103)">
		<stop  offset="0" style="stop-color:#FF29D8"/>
		<stop  offset="1" style="stop-color:#2068FF"/>
	</linearGradient>
	<path fill="url(#SVGID_47_)" d="M157.779,204.364h-27.685c-2.22,0-4.025,1.806-4.025,4.026v10.817h-24.903v-19.731h16.761
		c0.18,0,0.354-0.084,0.468-0.225l11.076-13.857v9.357c0,0.33,0.271,0.6,0.601,0.6h19.68c0.042,0,0.081-0.002,0.117-0.012
		c0.021-0.003,0.039-0.012,0.058-0.018c0.018-0.003,0.038-0.01,0.056-0.016c0.024-0.009,0.046-0.023,0.069-0.035
		c0.01-0.006,0.021-0.012,0.033-0.021c0.032-0.021,0.063-0.045,0.093-0.074l7.659-7.66c0.039-0.035,0.068-0.08,0.096-0.125
		c0.007-0.013,0.012-0.024,0.019-0.037c0.021-0.045,0.042-0.092,0.051-0.144c0,0,0,0,0-0.003c0.009-0.036,0.012-0.074,0.012-0.113
		V159.31c0-0.333-0.27-0.6-0.6-0.6h-27.342c-0.331,0-0.601,0.267-0.601,0.6v24.163l-11.835,14.805h-16.47v-31.365
		c0-1.299-1.053-2.352-2.352-2.352H25.251c-1.296,0-2.352,1.053-2.352,2.352v105.966c0,1.3,1.056,2.355,2.352,2.355h73.563
		c1.299,0,2.354-1.056,2.354-2.355l-0.003-31.361h14.655l13.656,16.115c0.123,7.827,6.524,14.16,14.385,14.16
		c7.932,0,14.388-6.456,14.388-14.388c0-7.936-6.456-14.388-14.388-14.388c-7.416,0-13.536,5.637-14.307,12.849l-12.999-15.336
		c-0.114-0.135-0.279-0.213-0.456-0.213h-14.935v-19.908h24.903v5.508c0,2.22,1.807,4.026,4.026,4.026h27.684
		c2.22,0,4.026-1.807,4.026-4.026v-17.525C161.805,206.17,159.999,204.364,157.779,204.364z M130.671,159.91h26.143v26.583h-7.063
		c-0.33,0-0.6,0.267-0.6,0.601v7.059h-18.48V159.91L130.671,159.91z M29.103,256.243c0-0.636,0.516-1.152,1.152-1.152h63.937
		c0.633,0,1.148,0.517,1.148,1.152v11.385c0,0.633-0.516,1.149-1.151,1.149H30.255c-0.636,0-1.152-0.517-1.152-1.149V256.243z
		 M95.34,246.607c0,0.636-0.516,1.151-1.151,1.151H30.255c-0.636,0-1.152-0.516-1.152-1.151v-11.383
		c0-0.636,0.516-1.151,1.152-1.151h63.937c0.633,0,1.148,0.516,1.148,1.151V246.607z M95.34,183.547
		c0,0.637-0.516,1.155-1.151,1.155H30.255c-0.636,0-1.152-0.519-1.152-1.155v-11.385c0-0.633,0.516-1.152,1.152-1.152h63.937
		c0.633,0,1.148,0.519,1.148,1.152V183.547z M29.103,193.184c0-0.633,0.516-1.149,1.152-1.149h63.937
		c0.633,0,1.148,0.517,1.148,1.149v11.385c0,0.636-0.516,1.152-1.151,1.152H30.255c-0.636,0-1.152-0.517-1.152-1.152V193.184z
		 M29.103,214.204c0-0.636,0.516-1.151,1.152-1.151h63.937c0.633,0,1.148,0.516,1.148,1.151v5.602c0,0.003,0,0.003,0,0.003
		c0,0.003,0,0.003,0,0.003v5.777c0,0.633-0.516,1.149-1.151,1.149H30.255c-0.636,0-1.152-0.517-1.152-1.149V214.204z
		 M143.862,244.216c7.269,0,13.188,5.917,13.188,13.188s-5.919,13.188-13.188,13.188c-7.272,0-13.191-5.917-13.191-13.188
		C130.671,250.132,136.59,244.216,143.862,244.216z M160.604,213.406l-4.94-4.62c-0.132-0.123-0.315-0.181-0.498-0.155
		c-0.18,0.026-0.339,0.135-0.429,0.293l-4.035,6.981l-4.515-4.224c-0.136-0.127-0.319-0.184-0.498-0.156
		c-0.181,0.027-0.34,0.135-0.433,0.294l-5.813,10.059l-2.425-2.269c-0.134-0.123-0.317-0.18-0.497-0.152
		c-0.184,0.026-0.343,0.132-0.433,0.291l-5.198,8.993h-0.796c-1.559,0-2.825-1.266-2.825-2.825v-17.525
		c0-1.561,1.267-2.826,2.825-2.826h27.685c1.557,0,2.826,1.266,2.826,2.826L160.604,213.406L160.604,213.406z"/>
	
		<linearGradient id="SVGID_48_" gradientUnits="userSpaceOnUse" x1="1.8779" y1="-70.8472" x2="73.0822" y2="-142.0515" gradientTransform="matrix(1 0 0 -1 94 103)">
		<stop  offset="0" style="stop-color:#FF29D8"/>
		<stop  offset="1" style="stop-color:#2068FF"/>
	</linearGradient>
	<path fill="url(#SVGID_48_)" d="M133.998,207.709c-2.349,0-4.26,1.911-4.26,4.26c0,2.35,1.911,4.26,4.26,4.26s4.26-1.91,4.26-4.26
		C138.258,209.62,136.347,207.709,133.998,207.709z"/>
</g>
<g>
	
		<linearGradient id="SVGID_49_" gradientUnits="userSpaceOnUse" x1="603.3984" y1="-85.4307" x2="657.1767" y2="-139.2089" gradientTransform="matrix(1 0 0 -1 94 103)">
		<stop  offset="0" style="stop-color:#FF29D8"/>
		<stop  offset="1" style="stop-color:#2068FF"/>
	</linearGradient>
	<path fill="url(#SVGID_49_)" d="M787.071,216.9h-34.127v-35.739c3.255-0.304,5.813-3.048,5.813-6.384
		c0-3.538-2.877-6.415-6.414-6.415c-3.336,0-6.081,2.559-6.384,5.814h-35.489v-16.881c0-3.054-3.208-5.781-8.461-7.74
		c-5.256-1.962-12.555-3.159-20.744-3.159c-15.838,0-28.356,4.479-29.166,10.299h-0.043v10.899c0,0.003,0,0.003,0,0.003v10.296
		c0,0.002,0,0.002,0,0.002v10.902h0.043c0.797,5.748,13.01,10.186,28.565,10.296v35.422c-3.259,0.303-5.817,3.047-5.817,6.384
		c0,3.536,2.881,6.413,6.418,6.413c3.332,0,6.077-2.559,6.383-5.813h27.154v25.194c0,1.551,1.26,2.811,2.811,2.811h24.228
		l-1.671,11.897h-2.574c-0.33,0-0.6,0.268-0.6,0.601c0,0.33,0.27,0.6,0.6,0.6h29.109c0.333,0,0.6-0.27,0.6-0.6
		c0-0.333-0.267-0.601-0.6-0.601h-2.19l-1.671-11.897h24.229c1.551,0,2.811-1.26,2.811-2.811v-46.983
		C789.883,218.16,788.623,216.9,787.071,216.9z M653.257,160.455c3.543,4.524,14.583,7.743,28.009,7.743
		c13.422,0,24.459-3.216,28.004-7.743v7.143c0,5.259-12.824,9.702-28.004,9.702c-15.175,0-27.996-4.44-28.009-9.693V160.455z
		 M653.257,170.757c3.546,4.524,14.583,7.743,28.009,7.743c13.422,0,24.459-3.219,28.004-7.743v7.14
		c0,5.26-12.824,9.703-28.004,9.703c-15.175,0-27.996-4.441-28.009-9.693V170.757z M653.257,188.205v-7.149
		c3.546,4.524,14.583,7.743,28.009,7.743c13.422,0,24.459-3.219,28.004-7.743v7.144c0,5.256-12.824,9.699-28.004,9.699
		C666.091,197.898,653.27,193.461,653.257,188.205z M714.803,219.711V240.3h-27.154c-0.284-3.06-2.724-5.499-5.783-5.783v-35.422
		c16.089-0.114,28.605-4.86,28.605-10.896v-12.822h35.489c0.285,3.061,2.724,5.499,5.784,5.784V216.9h-34.131
		C716.063,216.9,714.803,218.16,714.803,219.711z M763.303,281.403h-21.921l1.671-11.898h18.579L763.303,281.403z M788.683,266.694
		c0,0.888-0.723,1.61-1.611,1.61h-69.458c-0.889,0-1.611-0.723-1.611-1.61v-46.983c0-0.888,0.723-1.611,1.611-1.611h69.459
		c0.888,0,1.61,0.724,1.61,1.611V266.694L788.683,266.694z"/>
	
		<linearGradient id="SVGID_50_" gradientUnits="userSpaceOnUse" x1="604.6367" y1="-84.1909" x2="658.4153" y2="-137.9695" gradientTransform="matrix(1 0 0 -1 94 103)">
		<stop  offset="0" style="stop-color:#FF29D8"/>
		<stop  offset="1" style="stop-color:#2068FF"/>
	</linearGradient>
	<path fill="url(#SVGID_50_)" d="M785.416,220.584h-66.145c-0.33,0-0.6,0.27-0.6,0.601v39.432c0,0.33,0.27,0.6,0.6,0.6h66.145
		c0.33,0,0.6-0.27,0.6-0.6v-39.432C786.016,220.854,785.746,220.584,785.416,220.584z"/>
	
		<linearGradient id="SVGID_51_" gradientUnits="userSpaceOnUse" x1="592.4443" y1="-96.3794" x2="646.225" y2="-150.1601" gradientTransform="matrix(1 0 0 -1 94 103)">
		<stop  offset="0" style="stop-color:#FF29D8"/>
		<stop  offset="1" style="stop-color:#2068FF"/>
	</linearGradient>
	<path fill="url(#SVGID_51_)" d="M756.766,264.68h-8.845c-0.331,0-0.6,0.27-0.6,0.601s0.269,0.6,0.6,0.6h8.845
		c0.331,0,0.6-0.269,0.6-0.6S757.097,264.68,756.766,264.68z"/>
	
		<linearGradient id="SVGID_52_" gradientUnits="userSpaceOnUse" x1="598.6846" y1="-90.144" x2="652.4616" y2="-143.9211" gradientTransform="matrix(1 0 0 -1 94 103)">
		<stop  offset="0" style="stop-color:#FF29D8"/>
		<stop  offset="1" style="stop-color:#2068FF"/>
	</linearGradient>
	<path fill="url(#SVGID_52_)" d="M667.1,182.313c3.592,0.73,7.492,1.162,11.597,1.292c0.257,1.183,1.31,2.071,2.567,2.071
		c1.259,0,2.313-0.889,2.568-2.072c4.093-0.129,7.992-0.561,11.596-1.291c0.324-0.066,0.535-0.383,0.469-0.707
		c-0.065-0.324-0.382-0.535-0.707-0.469c-3.532,0.717-7.359,1.14-11.379,1.268c-0.289-1.139-1.319-1.985-2.546-1.985
		c-1.228,0-2.259,0.847-2.546,1.985c-4.031-0.128-7.859-0.552-11.381-1.268c-0.324-0.065-0.641,0.145-0.707,0.469
		C666.564,181.931,666.774,182.247,667.1,182.313z M681.264,181.619c0.788,0,1.43,0.641,1.43,1.429s-0.642,1.429-1.43,1.429
		c-0.787,0-1.428-0.641-1.428-1.429S680.477,181.619,681.264,181.619z"/>
	
		<linearGradient id="SVGID_53_" gradientUnits="userSpaceOnUse" x1="593.5352" y1="-95.2944" x2="647.3138" y2="-149.0731" gradientTransform="matrix(1 0 0 -1 94 103)">
		<stop  offset="0" style="stop-color:#FF29D8"/>
		<stop  offset="1" style="stop-color:#2068FF"/>
	</linearGradient>
	<path fill="url(#SVGID_53_)" d="M695.189,191.437c-3.53,0.716-7.357,1.14-11.379,1.269c-0.289-1.14-1.319-1.986-2.547-1.986
		c-1.227,0-2.258,0.847-2.545,1.986c-4.03-0.128-7.857-0.552-11.381-1.268c-0.326-0.067-0.641,0.143-0.707,0.469
		c-0.066,0.324,0.144,0.641,0.469,0.707c3.594,0.73,7.494,1.162,11.597,1.291c0.256,1.184,1.31,2.072,2.568,2.072
		s2.312-0.889,2.567-2.072c4.096-0.129,7.996-0.562,11.596-1.292c0.325-0.065,0.535-0.382,0.469-0.707
		S695.514,191.371,695.189,191.437z M681.264,194.777c-0.787,0-1.429-0.642-1.429-1.43c0-0.787,0.642-1.43,1.429-1.43
		c0.785,0,1.423,0.637,1.428,1.42l0,0c0,0,0,0,0,0.001c0,0.003,0.002,0.005,0.002,0.009
		C682.693,194.136,682.052,194.777,681.264,194.777z"/>
	
		<linearGradient id="SVGID_54_" gradientUnits="userSpaceOnUse" x1="603.834" y1="-84.9946" x2="657.6121" y2="-138.7728" gradientTransform="matrix(1 0 0 -1 94 103)">
		<stop  offset="0" style="stop-color:#FF29D8"/>
		<stop  offset="1" style="stop-color:#2068FF"/>
	</linearGradient>
	<path fill="url(#SVGID_54_)" d="M667.1,172.013c3.597,0.73,7.497,1.162,11.597,1.292c0.256,1.183,1.31,2.072,2.567,2.072
		c1.259,0,2.313-0.889,2.568-2.072c4.094-0.129,7.993-0.562,11.596-1.292c0.324-0.066,0.535-0.382,0.469-0.707
		c-0.066-0.325-0.383-0.535-0.707-0.469c-3.532,0.716-7.359,1.14-11.379,1.269c-0.289-1.139-1.319-1.985-2.546-1.985
		c-1.228,0-2.257,0.847-2.546,1.985c-4.026-0.129-7.854-0.553-11.381-1.269c-0.323-0.066-0.641,0.144-0.707,0.469
		C666.564,171.63,666.774,171.947,667.1,172.013z M681.264,171.32c0.788,0,1.43,0.641,1.43,1.429s-0.642,1.429-1.43,1.429
		c-0.787,0-1.428-0.641-1.428-1.429S680.477,171.32,681.264,171.32z"/>
</g>
<linearGradient id="SVGID_55_" gradientUnits="userSpaceOnUse" x1="294.8091" y1="-96.6909" x2="361.5608" y2="-163.4426" gradientTransform="matrix(1 0 0 -1 94 103)">
	<stop  offset="0" style="stop-color:#FF29D8"/>
	<stop  offset="1" style="stop-color:#2068FF"/>
</linearGradient>
<path fill="url(#SVGID_55_)" d="M464.391,245.045v-47.326c3.589-0.305,6.415-3.32,6.415-6.986c0-3.87-3.147-7.018-7.015-7.018
	c-2.379,0-4.481,1.191-5.751,3.006l-41.189-23.783c0.426-0.903,0.662-1.911,0.662-2.973c0-3.867-3.146-7.014-7.014-7.014
	c-3.87,0-7.017,3.147-7.017,7.014c0,1.062,0.24,2.07,0.666,2.973l-41.19,23.783c-1.269-1.814-3.372-3.006-5.751-3.006
	c-3.867,0-7.014,3.147-7.014,7.018c0,3.666,2.826,6.684,6.414,6.986v47.326c-3.587,0.306-6.414,3.32-6.414,6.986
	c0,3.87,3.147,7.018,7.014,7.018c2.304,0,4.353-1.119,5.634-2.838l41.307,23.853c-0.426,0.903-0.666,1.911-0.666,2.974
	c0,3.866,3.146,7.014,7.018,7.014c3.866,0,7.014-3.147,7.014-7.014c0-1.063-0.237-2.07-0.663-2.974l41.307-23.853
	c1.278,1.722,3.327,2.838,5.631,2.838c3.87,0,7.018-3.147,7.018-7.018C470.806,248.365,467.979,245.351,464.391,245.045z
	 M357.807,245.045v-47.326c2.136-0.18,3.999-1.319,5.157-2.984l16.386,9.426c-2.922,5.229-4.476,11.148-4.476,17.34
	c0,6.207,1.602,12.052,4.413,17.143l-16.323,9.387C361.803,246.364,359.94,245.228,357.807,245.045z M409.899,276.047
	c-2.13,0.183-3.989,1.316-5.151,2.979l-41.276-23.838c0.479-0.948,0.753-2.022,0.753-3.156c0-1.056-0.237-2.061-0.66-2.961
	l16.32-9.387c1.656,2.774,3.678,5.31,6,7.532c0.048,0.082,0.111,0.153,0.195,0.205c0.012,0.009,0.027,0.012,0.042,0.018
	c6.243,5.874,14.595,9.525,23.778,9.678V276.047z M387.174,196.187c0.648-0.601,1.317-1.173,2.004-1.716
	c0.036-0.027,0.069-0.057,0.105-0.084c0.153-0.12,0.306-0.237,0.462-0.352c0.06-0.048,0.123-0.096,0.186-0.144
	c0.135-0.103,0.273-0.201,0.411-0.3c0.081-0.061,0.165-0.121,0.246-0.18c0.126-0.091,0.252-0.175,0.378-0.262
	c0.099-0.068,0.192-0.135,0.291-0.201c0.12-0.084,0.243-0.162,0.366-0.242c0.105-0.07,0.207-0.136,0.309-0.205
	c0.12-0.074,0.24-0.146,0.357-0.222c0.111-0.069,0.219-0.138,0.33-0.207c0.114-0.069,0.229-0.135,0.345-0.204
	c0.117-0.068,0.231-0.138,0.351-0.207c0.111-0.066,0.225-0.125,0.336-0.191c0.123-0.066,0.243-0.139,0.366-0.204
	c0.114-0.06,0.225-0.12,0.339-0.181c0.123-0.065,0.249-0.131,0.372-0.197c0.114-0.057,0.228-0.114,0.339-0.168
	c0.129-0.066,0.255-0.129,0.384-0.192c0.111-0.058,0.225-0.108,0.339-0.162c0.129-0.06,0.258-0.123,0.387-0.183
	c0.114-0.051,0.231-0.102,0.345-0.153c0.132-0.057,0.261-0.116,0.39-0.174c0.117-0.048,0.231-0.097,0.348-0.144
	c0.132-0.055,0.264-0.111,0.396-0.162c0.117-0.049,0.234-0.094,0.351-0.139c0.132-0.051,0.264-0.105,0.399-0.152
	c0.117-0.045,0.237-0.088,0.357-0.133c0.132-0.047,0.264-0.096,0.399-0.144c0.12-0.039,0.24-0.081,0.363-0.12
	c0.132-0.045,0.267-0.09,0.399-0.135c0.123-0.039,0.246-0.075,0.369-0.114c0.132-0.042,0.267-0.084,0.399-0.123l0.378-0.108
	c0.132-0.035,0.264-0.074,0.396-0.11c0.129-0.036,0.258-0.065,0.387-0.103c0.132-0.033,0.264-0.065,0.393-0.099
	c0.132-0.032,0.264-0.063,0.396-0.093c0.129-0.03,0.261-0.063,0.39-0.09c0.136-0.03,0.271-0.057,0.405-0.088
	c0.126-0.026,0.255-0.053,0.387-0.077c0.135-0.027,0.27-0.052,0.408-0.075c0.129-0.023,0.258-0.051,0.387-0.072
	c0.139-0.023,0.276-0.045,0.414-0.066c0.129-0.021,0.256-0.041,0.385-0.063c0.141-0.021,0.281-0.039,0.42-0.057
	c0.129-0.018,0.258-0.036,0.387-0.051c0.138-0.019,0.281-0.033,0.423-0.049c0.126-0.015,0.255-0.029,0.384-0.041
	c0.141-0.016,0.285-0.027,0.43-0.039c0.125-0.013,0.254-0.024,0.383-0.033c0.142-0.012,0.285-0.021,0.427-0.03
	c0.09-0.003,0.18-0.009,0.271-0.015c-6.079,4.238-10.891,9.963-14.022,16.686C391.624,201.775,389.104,199.156,387.174,196.187z
	 M408.537,255.868h-0.012c-0.111-0.006-0.225-0.015-0.336-0.023c-0.178-0.012-0.357-0.021-0.534-0.036
	c-0.114-0.009-0.226-0.021-0.336-0.033c-0.177-0.015-0.354-0.03-0.528-0.051c-0.113-0.012-0.228-0.026-0.342-0.039
	c-0.171-0.021-0.345-0.042-0.516-0.063c-0.114-0.016-0.229-0.033-0.342-0.052c-0.172-0.023-0.34-0.048-0.51-0.075
	c-0.115-0.018-0.231-0.038-0.346-0.057c-0.168-0.029-0.333-0.057-0.498-0.087c-0.117-0.021-0.234-0.045-0.352-0.068
	c-0.161-0.03-0.323-0.063-0.485-0.096c-0.12-0.027-0.237-0.055-0.356-0.079c-0.16-0.035-0.315-0.071-0.472-0.107
	c-0.123-0.03-0.243-0.06-0.363-0.09c-0.153-0.039-0.309-0.075-0.459-0.117c-0.123-0.03-0.246-0.066-0.369-0.099
	c-0.15-0.043-0.297-0.082-0.447-0.126c-0.123-0.036-0.246-0.072-0.369-0.111c-0.147-0.045-0.291-0.087-0.438-0.132
	c-0.123-0.042-0.249-0.084-0.372-0.123c-0.141-0.048-0.285-0.093-0.426-0.141c-0.126-0.045-0.249-0.091-0.375-0.136
	c-0.138-0.048-0.276-0.099-0.414-0.149c-0.126-0.045-0.252-0.097-0.381-0.144c-0.132-0.052-0.267-0.103-0.399-0.157
	c-0.129-0.051-0.258-0.104-0.384-0.158c-0.129-0.055-0.258-0.105-0.387-0.162c-0.129-0.055-0.255-0.111-0.384-0.168
	c-0.126-0.058-0.252-0.111-0.378-0.168c-0.129-0.061-0.258-0.12-0.387-0.184c-0.12-0.057-0.243-0.113-0.366-0.174
	c-0.129-0.063-0.258-0.129-0.387-0.194c-0.12-0.058-0.237-0.117-0.354-0.178c-0.132-0.068-0.261-0.138-0.39-0.206
	c-0.114-0.061-0.228-0.12-0.342-0.184c-0.132-0.071-0.261-0.146-0.39-0.219c-0.111-0.063-0.222-0.126-0.333-0.189
	c-0.129-0.075-0.258-0.152-0.387-0.23c-0.108-0.066-0.216-0.129-0.324-0.192c-0.129-0.081-0.258-0.165-0.387-0.246
	c-0.105-0.065-0.207-0.129-0.312-0.194c-0.129-0.084-0.258-0.171-0.387-0.258c-0.102-0.066-0.201-0.132-0.3-0.201
	c-0.132-0.087-0.258-0.181-0.39-0.271c-0.096-0.065-0.192-0.132-0.288-0.2c-0.129-0.094-0.255-0.189-0.384-0.282
	c-0.093-0.068-0.189-0.139-0.279-0.207c-0.129-0.096-0.255-0.195-0.381-0.294c-0.09-0.068-0.183-0.138-0.273-0.21
	c-0.126-0.099-0.252-0.201-0.375-0.303c-0.09-0.072-0.177-0.144-0.267-0.216c-0.123-0.103-0.243-0.207-0.366-0.313
	c-0.087-0.075-0.174-0.146-0.261-0.222c-0.12-0.107-0.24-0.216-0.36-0.324c-0.084-0.075-0.171-0.149-0.255-0.225
	c-0.039-0.036-0.078-0.075-0.117-0.111c1.923-2.955,4.431-5.564,7.314-7.599C397.569,245.804,402.366,251.566,408.537,255.868z
	 M409.899,255.347c-6.378-4.263-11.298-10.102-14.388-16.827c4.305-2.764,9.255-4.271,14.388-4.38V255.347z M409.899,208.861
	c-5.127-0.111-10.071-1.613-14.37-4.371c3.15-6.846,8.094-12.636,14.37-16.833V208.861z M409.899,185.881
	c-8.94,0.15-17.418,3.606-23.916,9.771c-2.37,2.247-4.386,4.762-6.027,7.471l-16.392-9.43c0.423-0.9,0.66-1.902,0.66-2.961
	c0-1.063-0.24-2.07-0.663-2.973l41.187-23.784c1.162,1.662,3.021,2.796,5.151,2.979V185.881z M411.1,166.955
	c2.13-0.183,3.99-1.317,5.15-2.979l41.188,23.784c-0.423,0.902-0.663,1.91-0.663,2.973c0,1.059,0.237,2.061,0.657,2.961
	l-16.393,9.43c-1.638-2.709-3.653-5.221-6.023-7.471c-3.249-3.084-6.993-5.486-11.04-7.141c-4.05-1.652-8.406-2.555-12.876-2.627
	V166.955z M426.48,203.818c-3.132-6.727-7.95-12.453-14.019-16.686c0.093,0.006,0.186,0.012,0.278,0.018
	c0.138,0.009,0.273,0.016,0.411,0.027c0.135,0.009,0.273,0.023,0.411,0.035c0.132,0.013,0.267,0.021,0.399,0.037
	c0.138,0.012,0.275,0.029,0.413,0.045c0.132,0.014,0.265,0.026,0.396,0.045c0.138,0.018,0.276,0.035,0.417,0.054
	c0.129,0.019,0.258,0.036,0.387,0.054c0.139,0.021,0.279,0.045,0.417,0.066c0.13,0.021,0.256,0.041,0.382,0.063
	c0.141,0.024,0.279,0.051,0.42,0.075c0.126,0.024,0.252,0.045,0.378,0.072c0.141,0.026,0.279,0.057,0.42,0.087
	c0.123,0.023,0.246,0.051,0.369,0.078c0.141,0.029,0.281,0.063,0.423,0.096c0.119,0.029,0.242,0.057,0.362,0.087
	c0.144,0.033,0.285,0.072,0.427,0.108c0.116,0.029,0.236,0.06,0.354,0.093c0.145,0.039,0.285,0.078,0.429,0.12
	c0.114,0.033,0.231,0.066,0.346,0.099c0.144,0.042,0.288,0.087,0.429,0.132c0.114,0.036,0.229,0.069,0.343,0.105
	c0.144,0.048,0.284,0.096,0.429,0.144c0.11,0.036,0.222,0.072,0.333,0.111c0.144,0.051,0.284,0.104,0.429,0.155
	c0.107,0.039,0.219,0.078,0.327,0.117c0.144,0.055,0.285,0.111,0.43,0.168c0.107,0.043,0.212,0.082,0.32,0.123
	c0.141,0.061,0.285,0.117,0.426,0.178c0.105,0.045,0.213,0.087,0.318,0.132c0.141,0.063,0.285,0.126,0.426,0.188
	c0.103,0.045,0.204,0.09,0.31,0.139c0.141,0.066,0.284,0.135,0.426,0.201c0.102,0.047,0.201,0.093,0.3,0.141
	c0.144,0.072,0.285,0.145,0.429,0.216c0.097,0.048,0.195,0.097,0.291,0.147c0.142,0.072,0.282,0.146,0.424,0.222
	c0.096,0.054,0.194,0.103,0.29,0.155c0.139,0.076,0.276,0.154,0.415,0.232c0.096,0.053,0.191,0.107,0.288,0.161
	c0.138,0.081,0.272,0.162,0.407,0.243c0.097,0.057,0.192,0.111,0.288,0.171c0.132,0.081,0.268,0.165,0.399,0.249
	c0.096,0.061,0.191,0.117,0.288,0.18c0.132,0.084,0.264,0.174,0.396,0.262c0.093,0.06,0.187,0.119,0.279,0.183
	c0.132,0.091,0.264,0.183,0.396,0.276c0.09,0.063,0.181,0.123,0.27,0.186c0.133,0.094,0.262,0.189,0.391,0.285
	c0.09,0.063,0.18,0.129,0.268,0.195c0.129,0.096,0.258,0.195,0.384,0.293c0.09,0.066,0.177,0.133,0.264,0.201
	c0.132,0.103,0.261,0.207,0.39,0.313c0.085,0.066,0.165,0.132,0.246,0.198c0.135,0.11,0.268,0.225,0.399,0.336
	c0.075,0.063,0.153,0.126,0.228,0.192c0.142,0.119,0.279,0.246,0.417,0.369c0.066,0.057,0.133,0.113,0.195,0.174
	c0.081,0.072,0.162,0.146,0.24,0.222C431.898,199.156,429.375,201.775,426.48,203.818z M433.813,246.794
	c-0.039,0.032-0.075,0.068-0.111,0.104l-0.306,0.271c-0.102,0.093-0.204,0.186-0.309,0.279c-0.103,0.087-0.208,0.173-0.31,0.264
	c-0.107,0.09-0.213,0.18-0.32,0.27c-0.103,0.084-0.207,0.168-0.313,0.252c-0.107,0.091-0.216,0.181-0.327,0.268
	c-0.104,0.084-0.213,0.165-0.318,0.245c-0.11,0.088-0.222,0.175-0.336,0.258c-0.104,0.082-0.216,0.159-0.323,0.24
	c-0.114,0.082-0.226,0.169-0.34,0.249c-0.11,0.078-0.222,0.156-0.333,0.231c-0.113,0.081-0.228,0.162-0.344,0.243
	c-0.111,0.075-0.223,0.146-0.337,0.222c-0.116,0.078-0.233,0.159-0.354,0.234c-0.111,0.071-0.225,0.144-0.336,0.213
	c-0.12,0.078-0.243,0.156-0.363,0.23c-0.113,0.069-0.228,0.136-0.342,0.205c-0.123,0.071-0.246,0.146-0.369,0.219
	c-0.117,0.065-0.231,0.132-0.345,0.194c-0.126,0.072-0.252,0.144-0.381,0.214c-0.114,0.063-0.231,0.126-0.346,0.186
	c-0.129,0.068-0.257,0.138-0.387,0.204c-0.117,0.063-0.233,0.12-0.351,0.18c-0.132,0.066-0.261,0.132-0.391,0.195
	c-0.119,0.057-0.239,0.114-0.356,0.168c-0.132,0.063-0.264,0.126-0.399,0.189c-0.117,0.054-0.236,0.104-0.356,0.158l-0.405,0.181
	c-0.12,0.051-0.24,0.099-0.363,0.15c-0.135,0.056-0.272,0.113-0.411,0.167c-0.119,0.049-0.24,0.097-0.362,0.142
	c-0.139,0.055-0.279,0.11-0.417,0.162c-0.123,0.045-0.246,0.087-0.369,0.132c-0.142,0.051-0.282,0.102-0.423,0.15
	c-0.123,0.044-0.249,0.084-0.375,0.126c-0.141,0.044-0.282,0.093-0.423,0.138c-0.126,0.042-0.252,0.078-0.378,0.117
	c-0.145,0.042-0.285,0.087-0.433,0.129c-0.123,0.036-0.252,0.072-0.378,0.105c-0.144,0.042-0.291,0.081-0.438,0.12
	c-0.126,0.032-0.252,0.065-0.382,0.096c-0.146,0.039-0.293,0.074-0.44,0.11c-0.129,0.03-0.255,0.058-0.384,0.087
	c-0.15,0.033-0.297,0.066-0.447,0.1c-0.129,0.026-0.258,0.051-0.387,0.078c-0.153,0.03-0.304,0.06-0.454,0.086
	c-0.129,0.024-0.261,0.046-0.39,0.069c-0.152,0.024-0.303,0.051-0.456,0.075c-0.132,0.021-0.261,0.039-0.394,0.061
	c-0.152,0.021-0.306,0.044-0.458,0.065c-0.132,0.019-0.265,0.033-0.396,0.048c-0.152,0.019-0.309,0.039-0.465,0.054
	c-0.132,0.016-0.264,0.027-0.396,0.04c-0.156,0.015-0.313,0.03-0.468,0.042c-0.136,0.012-0.268,0.021-0.402,0.029
	c-0.153,0.013-0.307,0.021-0.459,0.03c6.177-4.305,10.971-10.067,14.04-16.674C429.378,241.226,431.887,243.836,433.813,246.794z
	 M411.1,187.657c6.272,4.194,11.22,9.987,14.37,16.833c-4.299,2.758-9.243,4.26-14.37,4.371V187.657z M411.1,234.14
	c5.133,0.107,10.083,1.616,14.388,4.38c-3.087,6.723-8.01,12.561-14.388,16.827V234.14z M416.25,279.025
	c-1.163-1.662-3.021-2.796-5.15-2.979v-18.931c9.18-0.152,17.528-3.804,23.771-9.672c0.016-0.009,0.033-0.015,0.049-0.023
	c0.083-0.055,0.149-0.126,0.197-0.207c2.319-2.224,4.342-4.755,5.997-7.53l16.32,9.384c-0.424,0.903-0.66,1.905-0.66,2.964
	c0,1.138,0.272,2.208,0.753,3.156L416.25,279.025z M463.191,245.045c-2.133,0.18-3.996,1.319-5.157,2.984l-16.322-9.387
	c2.811-5.091,4.412-10.935,4.412-17.143c0-6.191-1.554-12.111-4.479-17.34l16.386-9.426c1.161,1.665,3.027,2.805,5.16,2.984V245.045
	z"/>
<g>
	<polygon fill="#707070" points="516.666,222.238 516.666,217.237 604.668,217.237 604.668,222.238 516.666,222.238 	"/>
</g>
<g>
	<g>
		<line fill="none" x1="603.667" y1="220.264" x2="611.667" y2="220.213"/>
		<g>
			<g>
				<polygon fill="#828282" points="599.362,232.775 595.621,229.081 604.331,220.26 595.51,211.549 599.204,207.807 
					611.769,220.212 				"/>
			</g>
		</g>
	</g>
</g>
<g>
	<g>
		<line fill="none" x1="521.333" y1="219.738" x2="513.333" y2="219.789"/>
		<g>
			<g>
				<polygon fill="#828282" points="525.638,207.227 529.379,210.921 520.669,219.743 529.49,228.453 525.796,232.195 
					513.231,219.79 				"/>
			</g>
		</g>
	</g>
</g>
<g>
	<g>
		<line fill="none" x1="296.167" y1="220.264" x2="304.167" y2="220.213"/>
		<g>
			<g>
				<polygon fill="#828282" points="284.651,230.108 288.738,220.312 284.527,210.565 307.745,220.19 				"/>
			</g>
		</g>
	</g>
</g>
<g>
	<path d="M5.541,295.506v7.297h8.905v-7.297h2.832v16.802h-2.832v-6.961H5.541v6.961H2.708v-16.802H5.541z"/>
	<path d="M33.645,305.899c0,3.864-2.712,6.504-6.648,6.504c-3.96,0-6.673-2.64-6.673-6.504c0-3.841,2.712-6.457,6.673-6.457
		C30.933,299.442,33.645,302.059,33.645,305.899z M23.083,305.947c0,2.472,1.608,4.152,3.913,4.152c2.28,0,3.888-1.681,3.888-4.152
		c0-2.448-1.608-4.152-3.888-4.152C24.692,301.795,23.083,303.499,23.083,305.947z"/>
	<path d="M40.124,301.627c-1.08,0-1.872,0.359-1.872,1.271c0,2.353,6.792,1.08,6.769,5.713c0,2.616-2.329,3.792-4.896,3.792
		c-1.872,0-3.864-0.624-5.137-1.775l0.984-1.969c1.104,0.984,2.88,1.584,4.272,1.584c1.176,0,2.088-0.408,2.088-1.368
		c0-2.616-6.721-1.151-6.696-5.76c0-2.593,2.256-3.696,4.704-3.696c1.608,0,3.313,0.479,4.464,1.296l-1.008,2.04
		C42.668,302.059,41.252,301.627,40.124,301.627z"/>
	<path d="M55.028,311.491c-1.008,0.601-2.064,0.937-3.144,0.937c-1.92,0-3.576-1.104-3.576-3.721v-6.624h-1.8v-2.064h1.8v-3.504
		h2.736v3.504h3.769v2.064h-3.769v6.12c0,1.32,0.504,1.729,1.368,1.729c0.576,0,1.176-0.192,1.92-0.553L55.028,311.491z"/>
	<path d="M60.428,312.428c-2.016,0-3.696-0.889-4.944-2.424l1.344-2.161c1.104,1.2,2.424,1.849,3.577,1.849
		c1.512,0,2.4-0.937,2.4-2.664v-8.977h-5.808v-2.545h8.665v11.617C65.66,310.508,63.668,312.428,60.428,312.428z"/>
	<path d="M77.204,312.308v-1.561c-0.912,1.129-2.376,1.681-4.224,1.681c-2.76,0-4.489-1.704-4.489-3.961
		c0-2.328,1.752-3.815,4.825-3.84h3.864v-0.384c0-1.608-1.032-2.568-3.048-2.568c-1.224,0-2.496,0.432-3.768,1.296l-1.128-1.92
		c1.776-1.057,3.072-1.608,5.497-1.608c3.288,0,5.136,1.681,5.161,4.488l0.024,8.377H77.204z M77.18,307.819v-1.176h-3.457
		c-1.8,0-2.64,0.479-2.64,1.704c0,1.151,0.936,1.896,2.472,1.896C75.523,310.243,77.036,309.211,77.18,307.819z"/>
	<path d="M95.828,304.363v7.944h-2.76v-7.177c0-1.92-1.152-3.096-3.072-3.096c-2.112,0.023-3.432,1.487-3.625,3.479v6.793h-2.76
		v-12.77h2.76v2.448c0.912-1.775,2.544-2.544,4.705-2.544C94.052,299.442,95.828,301.314,95.828,304.363z"/>
	<path d="M110.755,306.979h-9.648c0.432,1.968,1.944,3.192,3.96,3.192c1.392,0,2.665-0.528,3.601-1.488l1.464,1.56
		c-1.248,1.368-3.072,2.16-5.28,2.16c-3.937,0-6.529-2.616-6.529-6.456c0-3.864,2.665-6.48,6.457-6.505
		C109.268,299.442,111.092,302.371,110.755,306.979z M108.355,304.963c-0.096-2.064-1.464-3.313-3.552-3.313
		c-2.016,0-3.457,1.272-3.745,3.313H108.355z"/>
	<path d="M115.675,297.019c0,0.479-0.168,0.888-0.432,1.271l-1.368,2.064h-1.416l0.912-2.088c-0.432-0.288-0.648-0.744-0.648-1.248
		c0-0.889,0.624-1.536,1.488-1.536C114.979,295.482,115.675,296.059,115.675,297.019z"/>
	<path d="M122.371,301.627c-1.08,0-1.872,0.359-1.872,1.271c0,2.353,6.792,1.08,6.769,5.713c0,2.616-2.329,3.792-4.896,3.792
		c-1.872,0-3.864-0.624-5.137-1.775l0.984-1.969c1.104,0.984,2.88,1.584,4.272,1.584c1.176,0,2.088-0.408,2.088-1.368
		c0-2.616-6.721-1.151-6.697-5.76c0-2.593,2.256-3.696,4.705-3.696c1.608,0,3.313,0.479,4.464,1.296l-1.008,2.04
		C124.915,302.059,123.499,301.627,122.371,301.627z"/>
	<path d="M8.013,326.851c-1.656,0-2.736,0.624-2.736,1.752c0,3.672,9.073,1.704,9.049,7.753c0,3-2.64,4.848-6.336,4.848
		c-2.64,0-5.137-1.08-6.865-2.664l1.224-2.448c1.728,1.584,3.888,2.448,5.688,2.448c1.968,0,3.145-0.744,3.145-2.04
		c0-3.744-9.073-1.656-9.073-7.633c0-2.88,2.473-4.681,6.121-4.681c2.185,0,4.32,0.696,5.881,1.729l-1.176,2.496
		C11.109,327.307,9.285,326.851,8.013,326.851z"/>
	<path d="M28.701,335.779h-9.648c0.432,1.968,1.944,3.192,3.96,3.192c1.392,0,2.665-0.528,3.601-1.488l1.464,1.56
		c-1.248,1.368-3.072,2.16-5.28,2.16c-3.937,0-6.529-2.616-6.529-6.456c0-3.864,2.665-6.48,6.457-6.505
		C27.213,328.242,29.037,331.171,28.701,335.779z M26.301,333.763c-0.096-2.064-1.464-3.313-3.552-3.313
		c-2.016,0-3.457,1.272-3.745,3.313H26.301z"/>
	<path d="M38.756,328.242v2.641c-2.568-0.145-4.2,1.368-4.417,3.552v6.673h-2.76v-12.77h2.76v2.545
		C35.204,329.154,36.74,328.242,38.756,328.242z"/>
	<path d="M42.523,328.338l3.552,10.058l3.504-10.058h2.76l-4.896,12.77h-2.856l-4.944-12.77H42.523z"/>
	<path d="M65.013,335.779h-9.648c0.432,1.968,1.944,3.192,3.96,3.192c1.392,0,2.665-0.528,3.601-1.488l1.464,1.56
		c-1.248,1.368-3.072,2.16-5.28,2.16c-3.937,0-6.529-2.616-6.529-6.456c0-3.864,2.665-6.48,6.457-6.505
		C63.525,328.242,65.349,331.171,65.013,335.779z M62.613,333.763c-0.096-2.064-1.464-3.313-3.552-3.313
		c-2.016,0-3.457,1.272-3.745,3.313H62.613z"/>
	<path d="M75.068,328.242v2.641c-2.568-0.145-4.2,1.368-4.417,3.552v6.673h-2.76v-12.77h2.76v2.545
		C71.516,329.154,73.052,328.242,75.068,328.242z"/>
</g>
<g>
	<path d="M106.597,136.715v5.592h-2.808v-5.497l-6.265-11.305h2.856l4.8,8.185l4.705-8.185h2.88L106.597,136.715z"/>
	<path d="M125.653,135.899c0,3.864-2.712,6.505-6.648,6.505c-3.96,0-6.673-2.641-6.673-6.505c0-3.84,2.712-6.457,6.673-6.457
		C122.941,129.442,125.653,132.059,125.653,135.899z M115.092,135.947c0,2.472,1.608,4.152,3.913,4.152
		c2.28,0,3.888-1.68,3.888-4.152c0-2.448-1.608-4.152-3.888-4.152C116.701,131.795,115.092,133.499,115.092,135.947z"/>
	<path d="M140.125,129.539v12.769h-2.76v-2.496c-0.864,1.776-2.472,2.568-4.561,2.592c-2.928,0-4.68-1.873-4.68-4.92v-7.945h2.76
		v7.177c0,1.92,1.128,3.096,2.976,3.096c2.208-0.048,3.504-1.752,3.504-3.984v-6.289H140.125z"/>
	<path d="M151.381,129.442v2.64c-2.568-0.144-4.2,1.368-4.417,3.553v6.672h-2.76v-12.769h2.76v2.544
		C147.829,130.354,149.365,129.442,151.381,129.442z"/>
	<path d="M165.781,124.378c0.864,0,1.704,0.192,2.376,0.576l-0.096,2.4c-0.744-0.336-1.536-0.552-2.208-0.552
		c-0.984,0-1.728,0.456-1.728,1.704v1.512h3.336v2.064h-3.336v10.225h-2.736v-10.225h-1.68v-2.064h1.68v-1.248
		C161.389,125.722,163.645,124.378,165.781,124.378z M168.853,125.89c0-0.96,0.696-1.656,1.608-1.656s1.608,0.696,1.608,1.656
		c0,0.936-0.696,1.632-1.608,1.632S168.853,126.826,168.853,125.89z M169.093,129.539h2.736v12.769h-2.736V129.539z"/>
	<path d="M178.789,124.498v17.81h-2.76v-17.81H178.789z"/>
	<path d="M194.221,136.979h-9.648c0.432,1.968,1.944,3.192,3.96,3.192c1.392,0,2.665-0.528,3.601-1.488l1.464,1.561
		c-1.248,1.368-3.072,2.16-5.28,2.16c-3.937,0-6.529-2.616-6.529-6.457c0-3.865,2.665-6.481,6.457-6.505
		C192.733,129.442,194.558,132.371,194.221,136.979z M191.821,134.963c-0.096-2.064-1.464-3.312-3.552-3.312
		c-2.016,0-3.457,1.272-3.745,3.312H191.821z"/>
	<path d="M200.7,131.626c-1.08,0-1.872,0.36-1.872,1.272c0,2.352,6.792,1.08,6.769,5.712c0,2.616-2.329,3.792-4.896,3.792
		c-1.872,0-3.864-0.624-5.137-1.776l0.984-1.968c1.104,0.984,2.88,1.584,4.272,1.584c1.176,0,2.088-0.408,2.088-1.368
		c0-2.616-6.721-1.152-6.696-5.761c0-2.592,2.256-3.696,4.704-3.696c1.608,0,3.313,0.48,4.464,1.296l-1.008,2.04
		C203.244,132.059,201.828,131.626,200.7,131.626z"/>
</g>
<g>
	<path d="M351.181,308.506v2.545h-5.329v14.257h-2.832v-14.257h-5.305v-2.545H351.181z"/>
	<path d="M364.525,317.363v7.944h-2.76v-7.177c0-1.92-1.152-3.096-3.072-3.096c-2.28,0.023-3.648,1.728-3.648,3.984v6.288h-2.76
		v-17.81h2.76v7.537c0.912-1.801,2.544-2.593,4.729-2.593C362.749,312.442,364.525,314.314,364.525,317.363z"/>
	<path d="M379.453,319.979h-9.648c0.432,1.968,1.944,3.192,3.96,3.192c1.392,0,2.665-0.528,3.601-1.488l1.464,1.56
		c-1.248,1.368-3.072,2.16-5.28,2.16c-3.937,0-6.529-2.616-6.529-6.456c0-3.864,2.665-6.48,6.457-6.505
		C377.965,312.442,379.789,315.371,379.453,319.979z M377.053,317.963c-0.096-2.064-1.464-3.313-3.552-3.313
		c-2.016,0-3.457,1.272-3.745,3.313H377.053z"/>
	<path d="M392.508,308.891c0,0.936-0.696,1.632-1.608,1.632s-1.608-0.696-1.608-1.632c0-0.961,0.696-1.656,1.608-1.656
		S392.508,307.93,392.508,308.891z M392.268,312.538v12.77h-2.736v-12.77H392.268z"/>
	<path d="M408.564,317.363v7.944h-2.76v-7.177c0-1.92-1.152-3.096-3.072-3.096c-2.112,0.023-3.432,1.487-3.625,3.479v6.793h-2.76
		v-12.77h2.76v2.448c0.912-1.775,2.544-2.544,4.705-2.544C406.788,312.442,408.564,314.314,408.564,317.363z"/>
	<path d="M419.484,324.491c-1.008,0.601-2.064,0.937-3.144,0.937c-1.92,0-3.576-1.104-3.576-3.721v-6.624h-1.8v-2.064h1.8v-3.504
		h2.736v3.504h3.769v2.064H415.5v6.12c0,1.32,0.504,1.729,1.368,1.729c0.576,0,1.176-0.192,1.92-0.553L419.484,324.491z"/>
	<path d="M433.117,319.979h-9.649c0.432,1.968,1.944,3.192,3.96,3.192c1.392,0,2.665-0.528,3.6-1.488l1.465,1.56
		c-1.248,1.368-3.073,2.16-5.281,2.16c-3.937,0-6.529-2.616-6.529-6.456c0-3.864,2.665-6.48,6.457-6.505
		C431.629,312.442,433.453,315.371,433.117,319.979z M430.717,317.963c-0.096-2.064-1.464-3.313-3.552-3.313
		c-2.016,0-3.457,1.272-3.745,3.313H430.717z"/>
	<path d="M443.172,312.442v2.641c-2.568-0.145-4.2,1.368-4.416,3.552v6.673h-2.761v-12.77h2.761v2.545
		C439.619,313.354,441.155,312.442,443.172,312.442z"/>
	<path d="M457.668,317.363v7.944h-2.76v-7.177c0-1.92-1.152-3.096-3.072-3.096c-2.112,0.023-3.433,1.487-3.624,3.479v6.793h-2.761
		v-12.77h2.761v2.448c0.912-1.775,2.544-2.544,4.704-2.544C455.893,312.442,457.668,314.314,457.668,317.363z"/>
	<path d="M472.597,319.979h-9.649c0.433,1.968,1.944,3.192,3.961,3.192c1.392,0,2.664-0.528,3.6-1.488l1.465,1.56
		c-1.248,1.368-3.072,2.16-5.281,2.16c-3.936,0-6.528-2.616-6.528-6.456c0-3.864,2.664-6.48,6.457-6.505
		C471.108,312.442,472.933,315.371,472.597,319.979z M470.196,317.963c-0.096-2.064-1.464-3.313-3.553-3.313
		c-2.016,0-3.456,1.272-3.744,3.313H470.196z"/>
	<path d="M482.7,324.491c-1.008,0.601-2.064,0.937-3.145,0.937c-1.92,0-3.576-1.104-3.576-3.721v-6.624h-1.8v-2.064h1.8v-3.504
		h2.736v3.504h3.769v2.064h-3.769v6.12c0,1.32,0.504,1.729,1.368,1.729c0.576,0,1.176-0.192,1.92-0.553L482.7,324.491z"/>
</g>
<g>
	<path d="M551.597,13.715v5.592h-2.808v-5.497l-6.266-11.305h2.857l4.8,8.185l4.704-8.185h2.881L551.597,13.715z"/>
	<path d="M570.653,12.899c0,3.864-2.712,6.505-6.648,6.505c-3.96,0-6.673-2.641-6.673-6.505c0-3.84,2.713-6.457,6.673-6.457
		C567.941,6.442,570.653,9.059,570.653,12.899z M560.093,12.947c0,2.472,1.607,4.152,3.912,4.152c2.28,0,3.889-1.68,3.889-4.152
		c0-2.448-1.608-4.152-3.889-4.152C561.7,8.795,560.093,10.499,560.093,12.947z"/>
	<path d="M585.125,6.539v12.769h-2.76v-2.496c-0.864,1.776-2.473,2.568-4.561,2.592c-2.928,0-4.681-1.873-4.681-4.92V6.539h2.761
		v7.177c0,1.92,1.128,3.096,2.976,3.096c2.209-0.048,3.505-1.752,3.505-3.984V6.539H585.125z"/>
	<path d="M596.381,6.442v2.64c-2.568-0.144-4.2,1.368-4.416,3.553v6.672h-2.761V6.539h2.761v2.544
		C592.828,7.354,594.364,6.442,596.381,6.442z"/>
	<path d="M606.676,6.539l3.313,10.033l3.216-10.033h2.856l3.24,10.033l3.265-10.033h2.808l-4.656,12.769h-2.856l-3.24-9.457
		l-3.24,9.457h-2.832l-4.704-12.769H606.676z"/>
	<path d="M638.045,13.979h-9.649c0.433,1.968,1.944,3.192,3.961,3.192c1.392,0,2.664-0.528,3.6-1.488l1.465,1.561
		c-1.248,1.368-3.072,2.16-5.281,2.16c-3.936,0-6.528-2.616-6.528-6.457c0-3.865,2.664-6.481,6.457-6.505
		C636.557,6.442,638.381,9.371,638.045,13.979z M635.645,11.963c-0.096-2.064-1.464-3.312-3.553-3.312
		c-2.016,0-3.456,1.272-3.744,3.312H635.645z"/>
	<path d="M654.365,12.971c0,3.816-2.4,6.433-6.049,6.433c-2.04,0-3.576-0.816-4.512-2.304v2.208h-2.761V1.498h2.761v7.249
		c0.936-1.488,2.472-2.304,4.464-2.304C651.893,6.442,654.365,9.083,654.365,12.971z M651.581,12.875
		c0-2.376-1.608-4.128-3.889-4.128s-3.888,1.728-3.888,4.128c0,2.472,1.607,4.176,3.888,4.176S651.581,15.323,651.581,12.875z"/>
	<path d="M660.844,8.626c-1.08,0-1.872,0.36-1.872,1.272c0,2.352,6.792,1.08,6.769,5.712c0,2.616-2.328,3.792-4.896,3.792
		c-1.872,0-3.864-0.624-5.137-1.776l0.984-1.968c1.104,0.984,2.88,1.584,4.272,1.584c1.176,0,2.088-0.408,2.088-1.368
		c0-2.616-6.721-1.152-6.696-5.761c0-2.592,2.256-3.696,4.704-3.696c1.608,0,3.313,0.48,4.465,1.296l-1.009,2.04
		C663.388,9.059,661.972,8.626,660.844,8.626z"/>
	<path d="M671.499,2.89c0,0.936-0.696,1.632-1.608,1.632s-1.608-0.696-1.608-1.632c0-0.96,0.696-1.656,1.608-1.656
		S671.499,1.93,671.499,2.89z M671.259,6.539v12.769h-2.736V6.539H671.259z"/>
	<path d="M682.563,18.492c-1.008,0.6-2.064,0.936-3.145,0.936c-1.92,0-3.576-1.104-3.576-3.72V9.083h-1.8V7.019h1.8V3.514h2.736
		v3.504h3.769v2.064h-3.769v6.121c0,1.32,0.504,1.729,1.368,1.729c0.576,0,1.176-0.192,1.92-0.552L682.563,18.492z"/>
	<path d="M696.196,13.979h-9.649c0.433,1.968,1.944,3.192,3.961,3.192c1.392,0,2.664-0.528,3.6-1.488l1.465,1.561
		c-1.248,1.368-3.072,2.16-5.281,2.16c-3.936,0-6.528-2.616-6.528-6.457c0-3.865,2.664-6.481,6.457-6.505
		C694.708,6.442,696.532,9.371,696.196,13.979z M693.796,11.963c-0.096-2.064-1.464-3.312-3.553-3.312
		c-2.016,0-3.456,1.272-3.744,3.312H693.796z"/>
	<path d="M701.115,4.018c0,0.48-0.168,0.888-0.432,1.272l-1.368,2.064h-1.416l0.912-2.088c-0.433-0.288-0.648-0.744-0.648-1.249
		c0-0.888,0.624-1.536,1.488-1.536C700.42,2.482,701.115,3.058,701.115,4.018z"/>
	<path d="M707.812,8.626c-1.08,0-1.872,0.36-1.872,1.272c0,2.352,6.792,1.08,6.769,5.712c0,2.616-2.328,3.792-4.896,3.792
		c-1.872,0-3.864-0.624-5.137-1.776l0.984-1.968c1.104,0.984,2.88,1.584,4.272,1.584c1.176,0,2.088-0.408,2.088-1.368
		c0-2.616-6.721-1.152-6.696-5.761c0-2.592,2.256-3.696,4.704-3.696c1.608,0,3.313,0.48,4.465,1.296l-1.009,2.04
		C710.355,9.059,708.939,8.626,707.812,8.626z"/>
	<path d="M730.347,19.308v-1.56c-0.912,1.128-2.377,1.68-4.225,1.68c-2.761,0-4.488-1.704-4.488-3.96
		c0-2.328,1.752-3.816,4.824-3.84h3.864v-0.384c0-1.608-1.032-2.568-3.048-2.568c-1.225,0-2.497,0.432-3.769,1.296l-1.128-1.92
		c1.775-1.056,3.072-1.608,5.496-1.608c3.288,0,5.137,1.68,5.16,4.488l0.024,8.377H730.347z M730.322,14.819v-1.176h-3.456
		c-1.801,0-2.641,0.48-2.641,1.704c0,1.152,0.937,1.896,2.473,1.896C728.666,17.244,730.179,16.211,730.322,14.819z"/>
	<path d="M748.923,1.498v17.81h-2.76v-2.184c-0.912,1.488-2.448,2.304-4.488,2.304c-3.673,0-6.121-2.665-6.121-6.553
		c0-3.84,2.473-6.457,6.073-6.457c2.063,0,3.6,0.84,4.536,2.328V1.498H748.923z M746.163,12.971c0-2.472-1.608-4.201-3.912-4.201
		c-2.305,0-3.913,1.752-3.937,4.201c0.023,2.424,1.607,4.152,3.937,4.152C744.555,17.124,746.163,15.396,746.163,12.971z"/>
	<path d="M765.291,1.498v17.81h-2.76v-2.184c-0.912,1.488-2.448,2.304-4.488,2.304c-3.673,0-6.121-2.665-6.121-6.553
		c0-3.84,2.473-6.457,6.072-6.457c2.064,0,3.601,0.84,4.537,2.328V1.498H765.291z M762.531,12.971c0-2.472-1.608-4.201-3.912-4.201
		c-2.305,0-3.913,1.752-3.937,4.201c0.023,2.424,1.607,4.152,3.937,4.152C760.923,17.124,762.531,15.396,762.531,12.971z"/>
	<path d="M776.667,6.442v2.64c-2.568-0.144-4.2,1.368-4.416,3.553v6.672h-2.761V6.539h2.761v2.544
		C773.114,7.354,774.65,6.442,776.667,6.442z"/>
	<path d="M790.18,13.979h-9.649c0.433,1.968,1.944,3.192,3.961,3.192c1.392,0,2.664-0.528,3.6-1.488l1.465,1.561
		c-1.248,1.368-3.072,2.16-5.281,2.16c-3.936,0-6.528-2.616-6.528-6.457c0-3.865,2.664-6.481,6.457-6.505
		C788.691,6.442,790.516,9.371,790.18,13.979z M787.779,11.963c-0.096-2.064-1.464-3.312-3.553-3.312
		c-2.016,0-3.456,1.272-3.744,3.312H787.779z"/>
	<path d="M796.659,8.626c-1.08,0-1.872,0.36-1.872,1.272c0,2.352,6.792,1.08,6.769,5.712c0,2.616-2.328,3.792-4.896,3.792
		c-1.872,0-3.864-0.624-5.137-1.776l0.984-1.968c1.104,0.984,2.88,1.584,4.272,1.584c1.176,0,2.088-0.408,2.088-1.368
		c0-2.616-6.721-1.152-6.696-5.761c0-2.592,2.256-3.696,4.704-3.696c1.608,0,3.313,0.48,4.465,1.296l-1.009,2.04
		C799.203,9.059,797.787,8.626,796.659,8.626z"/>
	<path d="M807.938,8.626c-1.08,0-1.872,0.36-1.872,1.272c0,2.352,6.792,1.08,6.769,5.712c0,2.616-2.328,3.792-4.896,3.792
		c-1.872,0-3.864-0.624-5.137-1.776l0.984-1.968c1.104,0.984,2.88,1.584,4.272,1.584c1.176,0,2.088-0.408,2.088-1.368
		c0-2.616-6.721-1.152-6.696-5.761c0-2.592,2.256-3.696,4.704-3.696c1.608,0,3.313,0.48,4.465,1.296l-1.009,2.04
		C810.482,9.059,809.066,8.626,807.938,8.626z"/>
</g>
<g>
	<path d="M597.972,58.132v6.95h-2.415v-6.278c0-1.68-1.008-2.708-2.688-2.708c-1.848,0.021-3.002,1.302-3.17,3.044v5.942h-2.414
		v-11.17h2.414v2.142c0.798-1.554,2.226-2.226,4.115-2.226C596.418,53.828,597.972,55.465,597.972,58.132z"/>
	<path d="M604.357,55.738c-0.945,0-1.639,0.315-1.639,1.113c0,2.058,5.942,0.945,5.922,4.997c0,2.289-2.037,3.317-4.283,3.317
		c-1.639,0-3.381-0.546-4.494-1.554l0.861-1.722c0.966,0.861,2.52,1.386,3.737,1.386c1.028,0,1.827-0.357,1.827-1.197
		c0-2.289-5.879-1.008-5.858-5.039c0-2.268,1.974-3.233,4.115-3.233c1.407,0,2.897,0.42,3.905,1.134l-0.882,1.785
		C606.582,56.116,605.344,55.738,604.357,55.738z"/>
	<path d="M617.166,50.363v14.718h-2.478V52.589h-3.171v-2.226H617.166z"/>
	<path d="M625.86,63.864c0,0.819-0.567,1.407-1.323,1.407s-1.322-0.588-1.322-1.407c0-0.798,0.566-1.365,1.322-1.365
		S625.86,63.066,625.86,63.864z"/>
	<path d="M639.424,58.132v6.95h-2.414v-6.278c0-1.68-1.008-2.708-2.688-2.708c-1.994,0.021-3.191,1.512-3.191,3.485v5.501h-2.414
		V49.502h2.414v6.593c0.798-1.575,2.226-2.268,4.137-2.268C637.871,53.828,639.424,55.465,639.424,58.132z"/>
	<path d="M653.264,59.476c0,3.38-2.373,5.69-5.816,5.69c-3.465,0-5.837-2.31-5.837-5.69c0-3.359,2.372-5.648,5.837-5.648
		C650.891,53.828,653.264,56.116,653.264,59.476z M644.025,59.518c0,2.163,1.406,3.632,3.422,3.632c1.994,0,3.401-1.47,3.401-3.632
		c0-2.142-1.407-3.632-3.401-3.632C645.432,55.885,644.025,57.376,644.025,59.518z"/>
	<path d="M658.935,55.738c-0.944,0-1.638,0.315-1.638,1.113c0,2.058,5.941,0.945,5.921,4.997c0,2.289-2.036,3.317-4.283,3.317
		c-1.638,0-3.38-0.546-4.493-1.554l0.861-1.722c0.965,0.861,2.52,1.386,3.736,1.386c1.029,0,1.827-0.357,1.827-1.197
		c0-2.289-5.879-1.008-5.858-5.039c0-2.268,1.975-3.233,4.115-3.233c1.407,0,2.898,0.42,3.906,1.134l-0.883,1.785
		C661.16,56.116,659.922,55.738,658.935,55.738z"/>
	<path d="M671.975,64.368c-0.882,0.525-1.806,0.819-2.75,0.819c-1.68,0-3.129-0.966-3.129-3.254v-5.795h-1.574v-1.806h1.574v-3.065
		h2.394v3.065h3.296v1.806h-3.296v5.354c0,1.155,0.44,1.512,1.196,1.512c0.504,0,1.029-0.168,1.68-0.483L671.975,64.368z"/>
	<path d="M672.963,69.26c-0.84,0-1.68-0.273-2.33-0.756l0.797-1.869c0.441,0.315,0.967,0.504,1.428,0.504
		c0.735,0,1.323-0.441,1.323-1.512V53.912h2.394v11.485C676.574,68.042,674.748,69.26,672.963,69.26z M676.868,50.72
		c0,0.84-0.608,1.47-1.491,1.47c-0.84,0-1.469-0.63-1.469-1.47c0-0.861,0.629-1.47,1.469-1.47
		C676.26,49.25,676.868,49.859,676.868,50.72z"/>
	<path d="M686.926,65.082v-1.365c-0.797,0.987-2.078,1.47-3.695,1.47c-2.414,0-3.926-1.491-3.926-3.464
		c0-2.037,1.533-3.338,4.221-3.359h3.38v-0.336c0-1.407-0.903-2.247-2.667-2.247c-1.07,0-2.184,0.378-3.296,1.134l-0.987-1.68
		c1.555-0.924,2.688-1.407,4.809-1.407c2.877,0,4.493,1.47,4.514,3.926l0.021,7.328H686.926z M686.905,61.155v-1.029h-3.023
		c-1.575,0-2.31,0.42-2.31,1.491c0,1.008,0.818,1.659,2.162,1.659C685.457,63.276,686.779,62.373,686.905,61.155z"/>
	<path d="M703.222,58.132v6.95h-2.415v-6.278c0-1.68-1.008-2.708-2.688-2.708c-1.848,0.021-3.002,1.302-3.17,3.044v5.942h-2.414
		v-11.17h2.414v2.142c0.798-1.554,2.226-2.226,4.115-2.226C701.668,53.828,703.222,55.465,703.222,58.132z"/>
	<path d="M716.283,60.42h-8.439c0.377,1.722,1.7,2.792,3.464,2.792c1.218,0,2.331-0.462,3.149-1.302l1.281,1.365
		c-1.092,1.197-2.688,1.89-4.619,1.89c-3.443,0-5.711-2.289-5.711-5.648c0-3.38,2.33-5.669,5.647-5.69
		C714.982,53.828,716.578,56.389,716.283,60.42z M714.184,58.657c-0.084-1.806-1.28-2.897-3.107-2.897
		c-1.764,0-3.023,1.113-3.275,2.897H714.184z"/>
	<path d="M720.633,63.864c0,0.819-0.567,1.407-1.323,1.407s-1.323-0.588-1.323-1.407c0-0.798,0.567-1.365,1.323-1.365
		S720.633,63.066,720.633,63.864z"/>
	<path d="M728.065,55.948c-1.932,0-3.317,1.449-3.317,3.569s1.386,3.569,3.317,3.569c1.407,0,2.54-0.462,3.296-1.344l1.344,1.344
		c-1.008,1.323-2.624,2.079-4.744,2.079c-3.318,0-5.627-2.289-5.627-5.648c0-3.38,2.309-5.69,5.627-5.69
		c2.016,0,3.59,0.651,4.619,1.827l-1.323,1.554C730.48,56.41,729.409,55.927,728.065,55.948z"/>
	<path d="M745.389,59.476c0,3.38-2.372,5.69-5.815,5.69c-3.464,0-5.837-2.31-5.837-5.69c0-3.359,2.373-5.648,5.837-5.648
		C743.017,53.828,745.389,56.116,745.389,59.476z M736.15,59.518c0,2.163,1.407,3.632,3.423,3.632c1.995,0,3.401-1.47,3.401-3.632
		c0-2.142-1.406-3.632-3.401-3.632C737.558,55.885,736.15,57.376,736.15,59.518z"/>
	<path d="M766.576,58.132v6.95h-2.414v-6.278c0-1.701-1.008-2.729-2.646-2.729c-1.911,0.063-3.065,1.533-3.065,3.485v5.522h-2.414
		v-6.278c0-1.701-0.987-2.729-2.625-2.729c-1.932,0.063-3.107,1.533-3.107,3.485v5.522h-2.394v-11.17h2.394v2.163
		c0.777-1.575,2.205-2.247,4.053-2.247c1.994,0,3.359,0.987,3.884,2.688c0.714-1.869,2.204-2.688,4.241-2.688
		C765.044,53.828,766.576,55.465,766.576,58.132z"/>
	<path d="M597.972,83.332v6.95h-2.415v-6.278c0-1.68-1.008-2.708-2.688-2.708c-1.848,0.021-3.002,1.302-3.17,3.044v5.942h-2.414
		v-11.17h2.414v2.142c0.798-1.554,2.226-2.226,4.115-2.226C596.418,79.028,597.972,80.666,597.972,83.332z"/>
	<path d="M604.357,80.938c-0.945,0-1.639,0.315-1.639,1.113c0,2.058,5.942,0.945,5.922,4.997c0,2.289-2.037,3.317-4.283,3.317
		c-1.639,0-3.381-0.546-4.494-1.554l0.861-1.722c0.966,0.861,2.52,1.386,3.737,1.386c1.028,0,1.827-0.357,1.827-1.197
		c0-2.289-5.879-1.008-5.858-5.039c0-2.268,1.974-3.233,4.115-3.233c1.407,0,2.897,0.42,3.905,1.134l-0.882,1.785
		C606.582,81.316,605.344,80.938,604.357,80.938z"/>
	<path d="M617.859,79.532c0-1.197-0.967-1.89-2.583-1.89c-1.323,0-2.876,0.693-4.136,1.827l-1.008-1.911
		c1.637-1.302,3.548-2.1,5.479-2.1c2.876,0,4.829,1.449,4.829,3.716c0,1.47-1.154,3.128-2.771,4.808l-4.031,4.073h7.517v2.226
		h-10.771v-1.827l5.605-5.795C617.104,81.547,617.859,80.372,617.859,79.532z"/>
	<path d="M625.86,89.064c0,0.819-0.567,1.407-1.323,1.407s-1.322-0.588-1.322-1.407c0-0.798,0.566-1.365,1.322-1.365
		S625.86,88.266,625.86,89.064z"/>
	<path d="M639.424,83.332v6.95h-2.414v-6.278c0-1.68-1.008-2.708-2.688-2.708c-1.994,0.021-3.191,1.512-3.191,3.485v5.501h-2.414
		V74.703h2.414v6.593c0.798-1.575,2.226-2.268,4.137-2.268C637.871,79.028,639.424,80.666,639.424,83.332z"/>
	<path d="M653.264,84.676c0,3.38-2.373,5.69-5.816,5.69c-3.465,0-5.837-2.31-5.837-5.69c0-3.359,2.372-5.648,5.837-5.648
		C650.891,79.028,653.264,81.316,653.264,84.676z M644.025,84.718c0,2.163,1.406,3.632,3.422,3.632c1.994,0,3.401-1.47,3.401-3.632
		c0-2.142-1.407-3.632-3.401-3.632C645.432,81.085,644.025,82.576,644.025,84.718z"/>
	<path d="M658.935,80.938c-0.944,0-1.638,0.315-1.638,1.113c0,2.058,5.941,0.945,5.921,4.997c0,2.289-2.036,3.317-4.283,3.317
		c-1.638,0-3.38-0.546-4.493-1.554l0.861-1.722c0.965,0.861,2.52,1.386,3.736,1.386c1.029,0,1.827-0.357,1.827-1.197
		c0-2.289-5.879-1.008-5.858-5.039c0-2.268,1.975-3.233,4.115-3.233c1.407,0,2.898,0.42,3.906,1.134l-0.883,1.785
		C661.16,81.316,659.922,80.938,658.935,80.938z"/>
	<path d="M671.975,89.568c-0.882,0.525-1.806,0.819-2.75,0.819c-1.68,0-3.129-0.966-3.129-3.254v-5.795h-1.574v-1.806h1.574v-3.065
		h2.394v3.065h3.296v1.806h-3.296v5.354c0,1.155,0.44,1.512,1.196,1.512c0.504,0,1.029-0.168,1.68-0.483L671.975,89.568z"/>
	<path d="M672.963,94.46c-0.84,0-1.68-0.273-2.33-0.756l0.797-1.869c0.441,0.315,0.967,0.504,1.428,0.504
		c0.735,0,1.323-0.441,1.323-1.512V79.112h2.394v11.485C676.574,93.242,674.748,94.46,672.963,94.46z M676.868,75.92
		c0,0.84-0.608,1.47-1.491,1.47c-0.84,0-1.469-0.63-1.469-1.47c0-0.861,0.629-1.47,1.469-1.47
		C676.26,74.451,676.868,75.06,676.868,75.92z"/>
	<path d="M686.926,90.282v-1.365c-0.797,0.987-2.078,1.47-3.695,1.47c-2.414,0-3.926-1.491-3.926-3.464
		c0-2.037,1.533-3.338,4.221-3.359h3.38v-0.336c0-1.407-0.903-2.247-2.667-2.247c-1.07,0-2.184,0.378-3.296,1.134l-0.987-1.68
		c1.555-0.924,2.688-1.407,4.809-1.407c2.877,0,4.493,1.47,4.514,3.926l0.021,7.328H686.926z M686.905,86.355v-1.029h-3.023
		c-1.575,0-2.31,0.42-2.31,1.491c0,1.008,0.818,1.659,2.162,1.659C685.457,88.476,686.779,87.573,686.905,86.355z"/>
	<path d="M703.222,83.332v6.95h-2.415v-6.278c0-1.68-1.008-2.708-2.688-2.708c-1.848,0.021-3.002,1.302-3.17,3.044v5.942h-2.414
		v-11.17h2.414v2.142c0.798-1.554,2.226-2.226,4.115-2.226C701.668,79.028,703.222,80.666,703.222,83.332z"/>
	<path d="M716.283,85.621h-8.439c0.377,1.722,1.7,2.792,3.464,2.792c1.218,0,2.331-0.462,3.149-1.302l1.281,1.365
		c-1.092,1.197-2.688,1.89-4.619,1.89c-3.443,0-5.711-2.289-5.711-5.648c0-3.38,2.33-5.669,5.647-5.69
		C714.982,79.028,716.578,81.589,716.283,85.621z M714.184,83.857c-0.084-1.806-1.28-2.897-3.107-2.897
		c-1.764,0-3.023,1.113-3.275,2.897H714.184z"/>
	<path d="M720.633,89.064c0,0.819-0.567,1.407-1.323,1.407s-1.323-0.588-1.323-1.407c0-0.798,0.567-1.365,1.323-1.365
		S720.633,88.266,720.633,89.064z"/>
	<path d="M728.065,81.148c-1.932,0-3.317,1.449-3.317,3.569s1.386,3.569,3.317,3.569c1.407,0,2.54-0.462,3.296-1.344l1.344,1.344
		c-1.008,1.323-2.624,2.079-4.744,2.079c-3.318,0-5.627-2.289-5.627-5.648c0-3.38,2.309-5.69,5.627-5.69
		c2.016,0,3.59,0.651,4.619,1.827l-1.323,1.554C730.48,81.61,729.409,81.127,728.065,81.148z"/>
	<path d="M745.389,84.676c0,3.38-2.372,5.69-5.815,5.69c-3.464,0-5.837-2.31-5.837-5.69c0-3.359,2.373-5.648,5.837-5.648
		C743.017,79.028,745.389,81.316,745.389,84.676z M736.15,84.718c0,2.163,1.407,3.632,3.423,3.632c1.995,0,3.401-1.47,3.401-3.632
		c0-2.142-1.406-3.632-3.401-3.632C737.558,81.085,736.15,82.576,736.15,84.718z"/>
	<path d="M766.576,83.332v6.95h-2.414v-6.278c0-1.701-1.008-2.729-2.646-2.729c-1.911,0.063-3.065,1.533-3.065,3.485v5.522h-2.414
		v-6.278c0-1.701-0.987-2.729-2.625-2.729c-1.932,0.063-3.107,1.533-3.107,3.485v5.522h-2.394v-11.17h2.394v2.163
		c0.777-1.575,2.205-2.247,4.053-2.247c1.994,0,3.359,0.987,3.884,2.688c0.714-1.869,2.204-2.688,4.241-2.688
		C765.044,79.028,766.576,80.666,766.576,83.332z"/>
</g>
<g>
	<path d="M800.499,33.499v-2h5.001v2H800.499L800.499,33.499z M780.498,33.499v-2h10v2H780.498L780.498,33.499z M760.499,33.499v-2
		h10v2H760.499L760.499,33.499z M740.498,33.499v-2h10v2H740.498L740.498,33.499z M720.499,33.499v-2h10v2H720.499L720.499,33.499z
		 M700.498,33.499v-2h10v2H700.498L700.498,33.499z M680.499,33.499v-2h10v2H680.499L680.499,33.499z M660.498,33.499v-2h10v2
		H660.498L660.498,33.499z M640.499,33.499v-2h10v2H640.499L640.499,33.499z M620.498,33.499v-2h10v2H620.498L620.498,33.499z
		 M600.499,33.499v-2h10v2H600.499L600.499,33.499z M580.498,33.499v-2h10v2H580.498L580.498,33.499z M560.499,33.499v-2h10v2
		H560.499L560.499,33.499z"/>
</g>
<g>
	<path d="M615.986,120.318c0,2.917,0.865,5.671,2.179,7.796h-2.881c-1.494-2.125-2.305-4.879-2.305-7.796
		c0-2.917,0.811-5.672,2.305-7.796h2.881C616.852,114.646,615.986,117.401,615.986,120.318z"/>
	<path d="M629.344,119.742v6.14h-3.187v-5.222c0-1.098-0.647-1.782-1.656-1.782c-1.08,0.018-1.782,0.756-1.909,1.854v5.149h-3.204
		v-9.741h3.204v1.584c0.685-1.117,1.801-1.711,3.224-1.711C627.939,116.015,629.344,117.455,629.344,119.742z"/>
	<path d="M640.18,119.544v6.338h-3.15v-1.098c-0.631,0.81-1.621,1.242-2.936,1.242c-2.088,0-3.33-1.26-3.33-3.043
		c0-1.854,1.314-2.917,3.727-2.953h2.539v-0.108c0-0.918-0.631-1.458-1.855-1.458c-0.81,0-1.872,0.27-2.916,0.774l-0.883-2.161
		c1.531-0.684,2.936-1.063,4.537-1.063C638.596,116.015,640.162,117.312,640.18,119.544z M637.029,122.587v-0.846h-1.909
		c-0.899,0-1.351,0.324-1.351,1.008c0,0.666,0.486,1.098,1.314,1.098C636.039,123.847,636.831,123.325,637.029,122.587z"/>
	<path d="M658.83,119.742v6.14h-3.205v-5.222c0-1.116-0.612-1.782-1.603-1.782c-1.134,0.018-1.837,0.918-1.837,2.196v4.808h-3.205
		v-5.222c0-1.116-0.611-1.782-1.602-1.782c-1.135,0.018-1.855,0.918-1.855,2.196v4.808h-3.187v-9.741h3.187v1.602
		c0.667-1.134,1.766-1.729,3.17-1.729c1.584,0,2.754,0.811,3.24,2.179c0.631-1.44,1.818-2.179,3.403-2.179
		C657.443,116.015,658.83,117.455,658.83,119.742z"/>
	<path d="M670.203,121.867h-6.77c0.306,1.098,1.116,1.71,2.215,1.71c0.828,0,1.639-0.342,2.286-0.99l1.675,1.674
		c-0.99,1.117-2.449,1.729-4.25,1.729c-3.187,0-5.148-1.962-5.148-4.933c0-3.025,2.034-5.024,5.077-5.024
		C668.691,116.033,670.42,118.319,670.203,121.867z M667.106,120.156c0-1.116-0.72-1.873-1.8-1.873
		c-1.045,0-1.729,0.756-1.945,1.873H667.106z"/>
	<path d="M675.26,118.229c-0.54,0-0.918,0.198-0.918,0.612c0,1.278,5.113,0.666,5.096,4.051c0,1.999-1.747,3.133-4.124,3.133
		c-1.638,0-3.204-0.468-4.394-1.386l1.009-2.071c1.116,0.774,2.377,1.207,3.457,1.207c0.595,0,1.026-0.198,1.026-0.594
		c0-1.333-5.023-0.667-5.023-4.033c0-2.035,1.711-3.151,3.997-3.151c1.404,0,2.827,0.396,4.052,1.134l-1.081,2.088
		C677.15,118.59,676.052,118.229,675.26,118.229z"/>
	<path d="M690.363,121.867h-6.77c0.306,1.098,1.116,1.71,2.215,1.71c0.828,0,1.639-0.342,2.286-0.99l1.675,1.674
		c-0.99,1.117-2.449,1.729-4.25,1.729c-3.187,0-5.148-1.962-5.148-4.933c0-3.025,2.034-5.024,5.077-5.024
		C688.852,116.033,690.58,118.319,690.363,121.867z M687.267,120.156c0-1.116-0.72-1.873-1.8-1.873
		c-1.045,0-1.729,0.756-1.945,1.873H687.267z"/>
	<path d="M698.354,116.015v2.935c-1.782-0.18-2.971,0.612-3.133,1.962v4.97h-3.205v-9.741h3.205v1.62
		C695.889,116.645,696.986,116.015,698.354,116.015z"/>
	<path d="M702.151,116.141l2.034,6.77l2.053-6.77h3.205l-3.655,9.741h-3.295l-3.637-9.741H702.151z"/>
	<path d="M719.416,121.867h-6.771c0.306,1.098,1.116,1.71,2.214,1.71c0.829,0,1.639-0.342,2.287-0.99l1.675,1.674
		c-0.99,1.117-2.448,1.729-4.249,1.729c-3.188,0-5.15-1.962-5.15-4.933c0-3.025,2.035-5.024,5.078-5.024
		C717.902,116.033,719.631,118.319,719.416,121.867z M716.318,120.156c0-1.116-0.721-1.873-1.801-1.873
		c-1.044,0-1.729,0.756-1.944,1.873H716.318z"/>
	<path d="M727.406,116.015v2.935c-1.782-0.18-2.971,0.612-3.133,1.962v4.97h-3.205v-9.741h3.205v1.62
		C724.939,116.645,726.038,116.015,727.406,116.015z"/>
	<path d="M732.211,118.229c-0.539,0-0.918,0.198-0.918,0.612c0,1.278,5.113,0.666,5.096,4.051c0,1.999-1.746,3.133-4.123,3.133
		c-1.639,0-3.205-0.468-4.394-1.386l1.009-2.071c1.115,0.774,2.376,1.207,3.457,1.207c0.594,0,1.025-0.198,1.025-0.594
		c0-1.333-5.023-0.667-5.023-4.033c0-2.035,1.711-3.151,3.998-3.151c1.404,0,2.826,0.396,4.051,1.134l-1.08,2.088
		C734.102,118.59,733.004,118.229,732.211,118.229z"/>
	<path d="M740.563,112.522c1.494,2.125,2.305,4.879,2.305,7.796c0,2.917-0.811,5.671-2.305,7.796h-2.881
		c1.313-2.125,2.179-4.879,2.179-7.796c0-2.917-0.865-5.672-2.179-7.796H740.563z"/>
</g>
<g>
	<path d="M718.62,302.506l5.185,13.657l5.232-13.657h2.952l-6.792,16.802h-2.929l-6.696-16.802H718.62z"/>
	<path d="M737.076,302.891c0,0.936-0.696,1.632-1.608,1.632s-1.608-0.696-1.608-1.632c0-0.961,0.696-1.656,1.608-1.656
		S737.076,301.93,737.076,302.891z M736.836,306.538v12.77H734.1v-12.77H736.836z"/>
	<path d="M744.516,308.627c-1.08,0-1.872,0.359-1.872,1.271c0,2.353,6.792,1.08,6.769,5.713c0,2.616-2.328,3.792-4.896,3.792
		c-1.872,0-3.864-0.624-5.137-1.775l0.984-1.969c1.104,0.984,2.88,1.584,4.272,1.584c1.176,0,2.088-0.408,2.088-1.368
		c0-2.616-6.721-1.151-6.696-5.76c0-2.593,2.256-3.696,4.704-3.696c1.608,0,3.313,0.479,4.465,1.296l-1.009,2.04
		C747.06,309.059,745.644,308.627,744.516,308.627z"/>
	<path d="M755.171,302.891c0,0.936-0.696,1.632-1.608,1.632s-1.608-0.696-1.608-1.632c0-0.961,0.696-1.656,1.608-1.656
		S755.171,301.93,755.171,302.891z M754.931,306.538v12.77h-2.736v-12.77H754.931z"/>
	<path d="M766.235,318.491c-1.008,0.601-2.064,0.937-3.145,0.937c-1.92,0-3.576-1.104-3.576-3.721v-6.624h-1.8v-2.064h1.8v-3.504
		h2.736v3.504h3.769v2.064h-3.769v6.12c0,1.32,0.504,1.729,1.368,1.729c0.576,0,1.176-0.192,1.92-0.553L766.235,318.491z"/>
	<path d="M780.756,312.899c0,3.864-2.712,6.504-6.648,6.504c-3.96,0-6.673-2.64-6.673-6.504c0-3.841,2.713-6.457,6.673-6.457
		C778.044,306.442,780.756,309.059,780.756,312.899z M770.195,312.947c0,2.472,1.607,4.152,3.912,4.152
		c2.28,0,3.889-1.681,3.889-4.152c0-2.448-1.608-4.152-3.889-4.152C771.803,308.795,770.195,310.499,770.195,312.947z"/>
	<path d="M790.812,306.442v2.641c-2.568-0.145-4.2,1.368-4.416,3.552v6.673h-2.761v-12.77h2.761v2.545
		C787.259,307.354,788.795,306.442,790.812,306.442z"/>
	<path d="M796.691,308.627c-1.08,0-1.872,0.359-1.872,1.271c0,2.353,6.792,1.08,6.769,5.713c0,2.616-2.328,3.792-4.896,3.792
		c-1.872,0-3.864-0.624-5.137-1.775l0.984-1.969c1.104,0.984,2.88,1.584,4.272,1.584c1.176,0,2.088-0.408,2.088-1.368
		c0-2.616-6.721-1.151-6.696-5.76c0-2.593,2.256-3.696,4.704-3.696c1.608,0,3.313,0.479,4.465,1.296l-1.009,2.04
		C799.235,309.059,797.819,308.627,796.691,308.627z"/>
	<path d="M730.646,335.506c0,1.873-1.128,3.289-2.952,3.745c2.256,0.384,3.6,1.992,3.6,4.248c0,2.88-2.328,4.608-6.12,4.608h-7.465
		v-16.802h7.297C728.485,331.306,730.646,332.89,730.646,335.506z M727.741,336.011c0-1.393-1.08-2.185-2.881-2.16h-4.32v4.416h4.32
		C726.661,338.267,727.741,337.45,727.741,336.011z M728.389,343.139c0-1.488-1.319-2.399-3.528-2.376h-4.32v4.801h4.32
		C727.069,345.587,728.389,344.699,728.389,343.139z"/>
	<path d="M746.604,341.699c0,3.864-2.712,6.504-6.648,6.504c-3.96,0-6.673-2.64-6.673-6.504c0-3.841,2.713-6.457,6.673-6.457
		C743.893,335.242,746.604,337.858,746.604,341.699z M736.044,341.747c0,2.472,1.607,4.152,3.912,4.152
		c2.28,0,3.889-1.681,3.889-4.152c0-2.448-1.608-4.152-3.889-4.152C737.651,337.595,736.044,339.299,736.044,341.747z"/>
	<path d="M756.708,347.291c-1.008,0.601-2.064,0.937-3.145,0.937c-1.92,0-3.576-1.104-3.576-3.721v-6.624h-1.8v-2.064h1.8v-3.504
		h2.736v3.504h3.769v2.064h-3.769v6.12c0,1.32,0.504,1.729,1.368,1.729c0.576,0,1.176-0.192,1.92-0.553L756.708,347.291z"/>
	<path d="M762.852,337.427c-1.08,0-1.872,0.359-1.872,1.271c0,2.353,6.792,1.08,6.769,5.713c0,2.616-2.328,3.792-4.896,3.792
		c-1.872,0-3.864-0.624-5.137-1.775l0.984-1.969c1.104,0.984,2.88,1.584,4.272,1.584c1.176,0,2.088-0.408,2.088-1.368
		c0-2.616-6.721-1.151-6.696-5.76c0-2.593,2.256-3.696,4.704-3.696c1.608,0,3.313,0.479,4.465,1.296l-1.009,2.04
		C765.396,337.858,763.979,337.427,762.852,337.427z"/>
	<path d="M790.019,348.563c-0.936-0.937-1.824-1.776-2.616-2.568c-1.488,1.416-3.216,2.232-5.064,2.232c-3,0-5.28-1.992-5.28-4.704
		c0-2.377,1.729-3.648,3.624-4.657c-1.104-1.487-1.607-2.688-1.607-3.888c0-2.232,1.752-3.793,4.368-3.793
		c2.52,0,4.248,1.465,4.248,3.528c0,2.305-2.017,3.505-4.08,4.585c0.912,1.032,2.088,2.232,3.528,3.648
		c0.576-0.864,1.08-1.872,1.512-3.024l1.801,1.344c-0.505,1.2-1.08,2.28-1.753,3.192l2.736,2.664L790.019,348.563z M785.891,344.507
		c-1.681-1.68-3.024-3.048-4.081-4.248c-1.392,0.792-2.472,1.68-2.472,3.048c0,1.681,1.368,2.833,3.096,2.833
		C783.658,346.14,784.834,345.539,785.891,344.507z M782.506,337.931c1.633-0.84,3-1.704,3-3.192c0-1.104-0.792-1.824-2.04-1.824
		c-1.344,0-2.208,0.888-2.208,2.04C781.258,335.843,781.666,336.778,782.506,337.931z"/>
	<path d="M806.193,337.667c-2.208,0-3.792,1.655-3.792,4.08c0,2.424,1.584,4.08,3.792,4.08c1.608,0,2.904-0.528,3.769-1.536
		l1.536,1.536c-1.152,1.513-3,2.376-5.425,2.376c-3.792,0-6.433-2.616-6.433-6.456c0-3.864,2.641-6.505,6.433-6.505
		c2.305,0,4.104,0.744,5.28,2.088l-1.512,1.776C808.954,338.194,807.729,337.643,806.193,337.667z"/>
	<path d="M821.554,335.242v2.641c-2.568-0.145-4.2,1.368-4.416,3.552v6.673h-2.761v-12.77h2.761v2.545
		C818.001,336.154,819.537,335.242,821.554,335.242z"/>
	<path d="M830.986,348.107v-1.561c-0.912,1.129-2.377,1.681-4.225,1.681c-2.761,0-4.488-1.704-4.488-3.96
		c0-2.329,1.752-3.816,4.824-3.841h3.864v-0.384c0-1.608-1.032-2.568-3.048-2.568c-1.225,0-2.497,0.432-3.769,1.296l-1.128-1.92
		c1.775-1.057,3.072-1.608,5.496-1.608c3.288,0,5.137,1.681,5.16,4.488l0.024,8.377H830.986z M830.962,343.619v-1.176h-3.456
		c-1.801,0-2.641,0.479-2.641,1.704c0,1.151,0.937,1.896,2.473,1.896C829.306,346.043,830.818,345.011,830.962,343.619z"/>
	<path d="M837.826,335.338l3.313,10.033l3.216-10.033h2.856l3.24,10.033l3.265-10.033h2.808l-4.656,12.77h-2.856l-3.24-9.457
		l-3.24,9.457h-2.832l-4.704-12.77H837.826z"/>
	<path d="M861.322,330.298v17.81h-2.761v-17.81H861.322z"/>
	<path d="M876.755,342.779h-9.649c0.433,1.968,1.944,3.192,3.961,3.192c1.392,0,2.664-0.528,3.6-1.488l1.465,1.56
		c-1.248,1.368-3.072,2.16-5.281,2.16c-3.936,0-6.528-2.616-6.528-6.456c0-3.864,2.664-6.48,6.457-6.505
		C875.267,335.242,877.091,338.171,876.755,342.779z M874.354,340.763c-0.096-2.064-1.464-3.313-3.553-3.313
		c-2.016,0-3.456,1.272-3.744,3.313H874.354z"/>
	<path d="M886.811,335.242v2.641c-2.568-0.145-4.2,1.368-4.416,3.552v6.673h-2.761v-12.77h2.761v2.545
		C883.258,336.154,884.794,335.242,886.811,335.242z"/>
	<path d="M892.69,337.427c-1.08,0-1.872,0.359-1.872,1.271c0,2.353,6.792,1.08,6.769,5.713c0,2.616-2.328,3.792-4.896,3.792
		c-1.872,0-3.864-0.624-5.137-1.775l0.984-1.969c1.104,0.984,2.88,1.584,4.272,1.584c1.176,0,2.088-0.408,2.088-1.368
		c0-2.616-6.721-1.151-6.696-5.76c0-2.593,2.256-3.696,4.704-3.696c1.608,0,3.313,0.479,4.465,1.296l-1.009,2.04
		C895.234,337.858,893.818,337.427,892.69,337.427z"/>
</g>
<g>
	<path fill="#707070" d="M248,189.999c0-9.389,7.611-17,17-17l0,0c9.389,0,17,7.611,17,17l0,0c0,9.389-7.611,16.999-17,17.001l0,0
		C255.611,206.998,248,199.388,248,189.999L248,189.999z M249,189.999c0.017,8.837,7.163,15.983,16,16l0,0
		c8.835-0.017,15.984-7.163,15.999-16l0,0c-0.015-8.836-7.163-15.984-15.999-15.999l0,0
		C256.163,174.015,249.016,181.163,249,189.999L249,189.999z"/>
</g>
<g>
	<path fill="#707070" d="M544.999,244.999c0-9.389,7.611-17,17-17l0,0c9.388,0,16.999,7.611,17.001,17l0,0
		c-0.002,9.39-7.613,16.999-17.001,17.001l0,0C552.61,261.998,544.999,254.389,544.999,244.999L544.999,244.999z M546,244.999
		c0.015,8.838,7.162,15.983,15.999,16l0,0c8.836-0.017,15.983-7.162,16-16l0,0c-0.017-8.837-7.164-15.984-16-15.999l0,0
		C553.162,229.015,546.015,236.162,546,244.999L546,244.999z"/>
</g>
<g>
	<path d="M267.108,182.363v14.719h-3.842v-11.569h-2.834v-3.149H267.108z"/>
</g>
<g>
	<path d="M562.227,241.625c0-0.797-0.609-1.26-1.68-1.26c-1.197,0-2.709,0.715-4.073,1.869l-1.448-2.834
		c1.889-1.387,3.947-2.227,6.088-2.227c2.982,0,5.145,1.555,5.145,3.885c0,1.596-1.218,3.254-2.855,4.913l-3.023,3.023h6.299v3.087
		h-11.212l-0.021-2.541l5.354-5.501C561.617,243.2,562.227,242.256,562.227,241.625z"/>
</g>
</svg>
