<?xml version="1.0" encoding="iso-8859-1"?>
<!-- Generator: Adobe Illustrator 13.0.0, SVG Export Plug-In . SVG Version: 6.00 Build 14948)  -->
<!DOCTYPE svg PUBLIC "-//W3C//DTD SVG 1.1//EN" "http://www.w3.org/Graphics/SVG/1.1/DTD/svg11.dtd">
<svg version="1.1" id="Layer_1" xmlns="http://www.w3.org/2000/svg" xmlns:xlink="http://www.w3.org/1999/xlink" x="0px" y="0px"
	 width="172px" height="31px" viewBox="0 0 172 31" enable-background="new 0 0 172 31" xml:space="preserve">
<g>
	<title>Layer 1</title>
	<g>
		<path fill="#283D60" d="M37.763,29.096l1.128-3.109c0.645,0.547,1.359,0.822,2.143,0.822c0.666,0,1.195-0.219,1.587-0.652
			c0.392-0.436,0.588-1.084,0.588-1.943V7.843h4.189v16.37c0,1.869-0.478,3.342-1.434,4.416s-2.369,1.611-4.238,1.611
			c-0.967,0-1.716-0.084-2.248-0.25C38.947,29.824,38.375,29.525,37.763,29.096z M43.54,5.385c-0.489-0.488-0.733-1.077-0.733-1.764
			s0.244-1.273,0.733-1.756c0.488-0.483,1.071-0.725,1.748-0.725c0.698,0,1.292,0.242,1.78,0.725s0.733,1.069,0.733,1.756
			s-0.245,1.276-0.733,1.764c-0.489,0.489-1.082,0.733-1.78,0.733C44.611,6.119,44.028,5.875,43.54,5.385z"/>
		<path fill="#283D60" d="M50.541,15.787c0-2.546,0.658-4.573,1.974-6.083c1.316-1.509,3.011-2.264,5.084-2.264
			c1.998,0,3.636,0.816,4.915,2.449V7.843h4.189v15.937h-4.189v-2.047c-1.3,1.633-2.938,2.449-4.915,2.449
			c-2.063,0-3.754-0.746-5.076-2.24C51.201,20.449,50.541,18.396,50.541,15.787z M54.859,15.787c0,1.385,0.376,2.508,1.128,3.368
			s1.729,1.289,2.933,1.289c0.698,0,1.386-0.17,2.063-0.508s1.187-0.77,1.531-1.297v-5.624c-0.344-0.526-0.854-0.964-1.531-1.313
			c-0.677-0.349-1.364-0.523-2.063-0.523c-1.203,0-2.181,0.424-2.933,1.273C55.235,13.3,54.859,14.412,54.859,15.787z"/>
		<path fill="#283D60" d="M70.892,23.779V7.843h4.189v2.046c0.58-0.677,1.356-1.254,2.329-1.732
			c0.972-0.478,2.054-0.717,3.247-0.717c1.708,0,3,0.449,3.875,1.346c0.875,0.897,1.313,2.146,1.313,3.746v11.248h-4.189v-9.636
			c0-1.053-0.255-1.81-0.765-2.272c-0.511-0.462-1.238-0.693-2.184-0.693c-0.763,0-1.456,0.175-2.079,0.523
			c-0.623,0.35-1.139,0.787-1.547,1.313v10.764H70.892z"/>
		<path fill="#283D60" d="M88.971,15.787c0-1.536,0.35-2.938,1.047-4.206c0.699-1.268,1.682-2.274,2.949-3.021
			s2.686-1.12,4.254-1.12c2.385,0,4.311,0.809,5.777,2.425c1.465,1.617,2.199,3.726,2.199,6.325v0.982H93.354
			c0.15,1.031,0.629,1.885,1.434,2.563c0.807,0.676,1.859,1.016,3.158,1.016c0.709,0,1.469-0.143,2.281-0.428
			c0.811-0.285,1.457-0.662,1.941-1.137l1.869,2.771c-0.773,0.709-1.744,1.258-2.908,1.645c-1.166,0.387-2.383,0.58-3.65,0.58
			c-2.46,0-4.493-0.771-6.1-2.313C89.773,20.328,88.971,18.301,88.971,15.787z M93.321,14.272h7.847
			c-0.031-0.408-0.129-0.8-0.289-1.176c-0.162-0.376-0.391-0.736-0.686-1.08s-0.701-0.62-1.217-0.83
			c-0.516-0.209-1.101-0.314-1.756-0.314c-0.623,0-1.182,0.102-1.676,0.306s-0.892,0.476-1.192,0.813
			c-0.301,0.339-0.537,0.698-0.709,1.08C93.472,13.453,93.364,13.853,93.321,14.272z"/>
		<path fill="#283D60" d="M107.211,15.787c0-2.546,0.658-4.573,1.975-6.083c1.314-1.509,3.01-2.264,5.083-2.264
			c0.967,0,1.874,0.207,2.724,0.62c0.848,0.414,1.578,1.023,2.191,1.829V1.768h4.189v22.011h-4.189v-2.047
			c-1.301,1.633-2.938,2.449-4.915,2.449c-2.063,0-3.755-0.746-5.075-2.24C107.871,20.449,107.211,18.396,107.211,15.787z
			 M111.529,15.787c0,1.385,0.376,2.508,1.128,3.368s1.729,1.289,2.933,1.289c0.698,0,1.386-0.17,2.063-0.508
			s1.188-0.77,1.531-1.297v-5.656c-0.344-0.526-0.854-0.959-1.531-1.297c-0.677-0.339-1.364-0.508-2.063-0.508
			c-1.203,0-2.181,0.424-2.933,1.273C111.905,13.3,111.529,14.412,111.529,15.787z"/>
		<path fill="#283D60" d="M126.547,15.787c0-1.536,0.35-2.938,1.047-4.206c0.699-1.268,1.682-2.274,2.949-3.021
			s2.686-1.12,4.254-1.12c2.385,0,4.311,0.809,5.777,2.425c1.465,1.617,2.199,3.726,2.199,6.325v0.982H130.93
			c0.15,1.031,0.629,1.885,1.434,2.563c0.807,0.676,1.859,1.016,3.158,1.016c0.709,0,1.469-0.143,2.281-0.428
			c0.811-0.285,1.457-0.662,1.941-1.137l1.869,2.771c-0.773,0.709-1.744,1.258-2.908,1.645c-1.166,0.387-2.383,0.58-3.65,0.58
			c-2.46,0-4.493-0.771-6.1-2.313C127.35,20.328,126.547,18.301,126.547,15.787z M130.897,14.272h7.847
			c-0.031-0.408-0.129-0.8-0.289-1.176c-0.162-0.376-0.391-0.736-0.686-1.08s-0.701-0.62-1.217-0.83
			c-0.516-0.209-1.101-0.314-1.756-0.314c-0.623,0-1.182,0.102-1.676,0.306s-0.892,0.476-1.192,0.813
			c-0.301,0.339-0.537,0.698-0.709,1.08C131.048,13.453,130.94,13.853,130.897,14.272z"/>
		<path fill="#283D60" d="M144.787,15.787c0-2.546,0.658-4.573,1.975-6.083c1.314-1.509,3.01-2.264,5.084-2.264
			c0.967,0,1.873,0.207,2.723,0.62c0.848,0.414,1.578,1.023,2.191,1.829V1.768h4.189v22.011h-4.189v-2.047
			c-1.301,1.633-2.939,2.449-4.914,2.449c-2.063,0-3.756-0.746-5.076-2.24C145.447,20.449,144.787,18.396,144.787,15.787z
			 M149.105,15.787c0,1.385,0.375,2.508,1.129,3.368c0.75,0.859,1.729,1.289,2.932,1.289c0.697,0,1.387-0.17,2.063-0.508
			c0.678-0.338,1.188-0.77,1.531-1.297v-5.656c-0.344-0.526-0.854-0.959-1.531-1.297c-0.676-0.339-1.365-0.508-2.063-0.508
			c-1.203,0-2.182,0.424-2.932,1.273C149.48,13.3,149.105,14.412,149.105,15.787z"/>
		<path fill="#283D60" d="M165.469,5.385c-0.488-0.488-0.732-1.077-0.732-1.764s0.244-1.273,0.732-1.756s1.072-0.725,1.748-0.725
			c0.699,0,1.293,0.242,1.781,0.725s0.732,1.069,0.732,1.756s-0.244,1.276-0.732,1.764c-0.488,0.489-1.082,0.733-1.781,0.733
			C166.541,6.119,165.957,5.875,165.469,5.385z M165.139,23.779V7.843h4.189v15.937H165.139z"/>
	</g>
	<g>
		<title>Layer 1</title>
		<g id="svg_1_1_">
			<circle fill="#0052CC" cx="16.236" cy="15.523" r="7.331"/>
		</g>
		<g id="svg_2_1_">
			<path fill="#C2E3FF" d="M4.449,24.224c0.649-0.352,1.264-0.757,1.843-1.22c-1.25-1.658-2.069-3.604-2.379-5.662
				c-0.748,0.095-1.461,0.36-2.096,0.771C2.213,20.323,3.117,22.413,4.449,24.224z"/>
		</g>
		<g id="svg_3">
			<path fill="#48ACFF" d="M3.913,17.342C2.886,10.504,7.594,4.124,14.427,3.095c6.841-1.031,13.217,3.677,14.248,10.514
				c1.03,6.839-3.678,13.217-10.514,14.249c-4.545,0.688-9.1-1.178-11.868-4.854c-0.579,0.463-1.194,0.868-1.843,1.22
				c4.828,6.561,14.058,7.969,20.624,3.143c6.561-4.824,7.968-14.06,3.143-20.624C23.39,0.182,14.157-1.226,7.592,3.6
				c-4.537,3.336-6.777,8.968-5.775,14.514C2.452,17.702,3.166,17.437,3.913,17.342z"/>
		</g>
		<g id="svg_4">
			<path fill="#003F7F" d="M4.09,25.293c-1.593-0.282-2.657-1.802-2.376-3.396c0.281-1.598,1.802-2.661,3.396-2.381
				c1.597,0.282,2.662,1.802,2.38,3.398C7.208,24.509,5.687,25.574,4.09,25.293z"/>
		</g>
	</g>
</g>
</svg>
