<svg viewBox="0 0 256 256" xmlns="http://www.w3.org/2000/svg"><path fill="none" d="M0 0h256v256H0z"></path><path d="M128 24a104 104 0 1 0 104 104A104.2 104.2 0 0 0 128 24Zm24 150a33.9 33.9 0 1 1-48-48 26.6 26.6 0 0 1 3.1-2.6l-.3-.2a29.9 29.9 0 0 1 0-42.4c11.3-11.3 31.1-11.3 42.4 0a29.9 29.9 0 0 1 0 42.4l-.3.2a26.6 26.6 0 0 1 3.1 2.6 33.8 33.8 0 0 1 0 48Z" fill="#fcbc05" class="fill-000000"></path><path d="M137.9 111.9a14 14 0 1 0-19.8 0 14.3 14.3 0 0 0 19.8 0ZM128 132a18 18 0 0 0-12.7 30.7 18.4 18.4 0 0 0 25.4 0A18 18 0 0 0 128 132Z" fill="#fcbc05" class="fill-000000"></path></svg>