<svg xmlns="http://www.w3.org/2000/svg" xml:space="preserve" viewBox="0 0 200 43">
  <path fill="#E41937" d="M10.055 20.785c-3.991-1.166-5.607-4.858-5.444-8.333.071-1.44.65-2.788 1.636-3.832-.183.784-.04 3.3 1.346 4.426-.292-1.217-.268-2.49.083-3.683 1.018-2.774 3.92-3.517 3.612-6.053-.075-.822-.328-1.621-.741-2.342 1.655.56 3.126 1.592 4.2 2.967.87 1.106 1.335 2.472 1.332 3.875-.002.501-.064.991-.175 1.485.232-.599.559-1.14.992-1.605.75-.734 1.665-1.282 2.668-1.587-.58 1.127-.785 2.411-.588 3.674.228 1.403 1.314 3.264 1.045 5.461-.188 2.604-1.993 4.81-4.504 5.528-1.8-.412-3.661-.408-5.462.019z"/>
  <path fill="#98012E" d="M15.519 20.768c1.111-1.356 1.914-3.893.618-5.348-.108.863-.485 1.651-1.08 2.255.221-.428.303-.927.228-1.398-.188-1.787-1.826-2.11-1.88-3.24-.059-.495.036-.986.271-1.408-.79.287-1.474.822-1.964 1.485-.401.56-.621 1.249-.618 1.948 0 .239.035.505.08.74-.101-.303-.261-.564-.461-.794-.344-.368-.767-.649-1.25-.815.857 2.17-.336 2.32-.584 3.613-.301 1.221.798 2.562 1.181 2.979.885.283 1.799.46 2.722.521.928-.053 1.847-.239 2.737-.538z"/>
  <path fill="#000000" d="M28.66 20.749V1.646h5.775v6.769h6.853V1.646h5.775v19.103h-5.775v-7.3h-6.853v7.3H28.66z"/>
  <path fill="#000000" d="M51.369 15.232c-.536-1.235-.804-2.575-.804-4.021s.268-2.785.804-4.021 1.271-2.28 2.203-3.133 2.04-1.522 3.321-2.007c1.282-.484 2.655-.727 4.119-.727 1.463 0 2.839.243 4.125.727 1.287.485 2.394 1.154 3.321 2.007s1.662 1.897 2.203 3.133.811 2.575.811 4.021-.271 2.785-.811 4.021-1.275 2.279-2.203 3.132c-.928.854-2.035 1.522-3.321 2.007-1.286.485-2.662.728-4.125.728-1.464 0-2.837-.242-4.119-.728-1.282-.484-2.389-1.153-3.321-2.007-.932-.852-1.667-1.896-2.203-3.132zm6.335-7.433c-.844.914-1.266 2.051-1.266 3.413s.422 2.498 1.266 3.412 1.946 1.37 3.308 1.37c1.361 0 2.466-.456 3.314-1.37.849-.914 1.273-2.051 1.273-3.412s-.424-2.499-1.273-3.413c-.848-.914-1.953-1.37-3.314-1.37-1.362 0-2.464.457-3.308 1.37z"/>
  <path fill="#000000" d="m74.182 18.05 3.006-4.289c.765.735 1.678 1.329 2.741 1.78 1.063.451 2.205.677 3.426.677.606 0 1.109-.083 1.51-.251.4-.167.601-.422.601-.767 0-.194-.122-.357-.364-.487-.243-.13-.569-.242-.978-.338-.409-.094-.876-.202-1.403-.324s-1.083-.251-1.668-.387c-.586-.136-1.178-.273-1.778-.412s-1.167-.366-1.703-.683-1.009-.684-1.419-1.103c-.41-.418-.736-.951-.979-1.597-.242-.646-.363-1.37-.363-2.17 0-.822.17-1.609.51-2.361s.832-1.424 1.476-2.018c.643-.593 1.477-1.067 2.503-1.422 1.025-.355 2.172-.533 3.44-.533 3.246 0 5.958.888 8.137 2.665l-3.105 4.101c-.804-.605-1.708-1.07-2.711-1.396-1.004-.326-1.978-.489-2.921-.489-.97 0-1.455.279-1.455.835 0 .183.122.342.366.479.244.137.572.255.985.354.413.1.879.212 1.401.337s1.075.259 1.659.399c.585.141 1.176.283 1.775.427.598.144 1.165.371 1.699.68.534.31 1.008.668 1.42 1.076.413.408.741.921.985 1.541.244.618.366 1.308.366 2.067 0 2.097-.734 3.73-2.203 4.9-1.469 1.169-3.494 1.754-6.076 1.754-3.673.004-6.633-1.012-8.88-3.045z"/>
  <path fill="#000000" d="M94.446 6.681V1.646h16.026V6.68h-5.119v14.068h-5.775V6.681h-5.132z"/>
  <path fill="#000000" d="m111.126 19.546 2.35-4.404c.829.568 1.65.853 2.461.853.634 0 1.146-.193 1.538-.58s.588-.911.588-1.573V1.646h5.775v12.292c0 2.378-.657 4.165-1.972 5.363s-3.119 1.797-5.412 1.797c-2.219.001-3.995-.517-5.328-1.552z"/>
  <path fill="#000000" d="m126.673 20.749 7.048-19.103h7.272l7.048 19.103h-6.559l-.686-2.237h-6.88l-.686 2.237h-6.557zm8.796-7.271h3.776l-1.888-6.167-1.888 6.167z"/>
  <path fill="#000000" d="M151.083 20.749V1.646h5.957l6.643 9.048V1.646h5.775v19.103h-5.552l-7.048-9.677v9.677h-5.775z"/>
  <path fill="#000000" d="M173.994 20.749V1.646h14.487V6.68h-8.712v1.902h8.517v5.035h-8.517v2.098h8.712v5.034h-14.487z"/>
  <path fill="#020202" d="M28.767 41.299V27.824h2.871v5.277H38v-5.277h2.871v13.475H38v-5.672h-6.362v5.672h-2.871zm17.695 0V27.824h9.539v2.525h-6.668v2.831h6.521v2.525h-6.521v3.067h6.668v2.525h-9.539zm14.58 0V27.824h2.871v10.949h5.711v2.525h-8.582zm13.444 0V27.824h6.292c.709 0 1.354.115 1.935.346.581.229 1.057.542 1.428.937s.656.854.856 1.376c.2.523.301 1.084.301 1.682 0 .593-.1 1.148-.3 1.668s-.487.978-.861 1.376c-.374.397-.85.712-1.427.941-.578.23-1.22.346-1.929.346h-3.424V41.3h-2.871zm2.871-7.329h3.028c.579 0 1.057-.164 1.435-.493.378-.329.567-.767.567-1.313 0-.552-.189-.992-.567-1.321-.378-.329-.856-.493-1.435-.493h-3.028v3.62zm20.162.596c0-1.36.315-2.572.947-3.638.631-1.064 1.492-1.886 2.584-2.464s2.312-.867 3.66-.867c.71 0 1.369.09 1.978.269.608.18 1.138.428 1.588.744s.842.659 1.174 1.028c.332.368.623.777.873 1.228l-2.466 1.221c-.289-.569-.72-1.038-1.292-1.409-.572-.37-1.19-.555-1.854-.555-1.23 0-2.244.42-3.043 1.26-.8.84-1.199 1.9-1.199 3.184s.399 2.346 1.199 3.189c.799.843 1.813 1.265 3.043 1.265.664 0 1.282-.188 1.854-.561.572-.374 1.003-.845 1.292-1.414l2.466 1.2c-.256.452-.547.862-.873 1.232-.325.37-.715.716-1.169 1.036-.453.32-.984.572-1.593.756s-1.268.275-1.978.275c-1.007 0-1.952-.172-2.836-.514-.885-.342-1.647-.814-2.289-1.417-.641-.602-1.146-1.339-1.514-2.211s-.552-1.816-.552-2.837zm17.44 6.733V27.824h9.538v2.525h-6.668v2.831h6.521v2.525h-6.521v3.067h6.668v2.525h-9.538zm14.696 0V27.824h2.949l6.244 8.464v-8.464h2.87v13.475h-2.771l-6.422-8.789v8.789h-2.87zm16.809-10.949v-2.525h10.762v2.525h-3.936v10.949h-2.87V30.35h-3.956zm15.515 10.949V27.824h9.538v2.525h-6.668v2.831h6.521v2.525h-6.521v3.067h6.668v2.525h-9.538zm14.698 0V27.824h6.303c1.381 0 2.484.404 3.31 1.213.825.81 1.238 1.852 1.238 3.127 0 .566-.086 1.089-.257 1.569-.171.479-.401.879-.69 1.198s-.604.582-.942.789-.698.356-1.08.448l3.049 5.13h-3.314l-2.644-4.784h-2.102v4.784h-2.871zm2.87-7.31h3.028c.579 0 1.057-.166 1.436-.498.378-.332.567-.781.567-1.347 0-.546-.189-.981-.567-1.307-.379-.325-.856-.488-1.436-.488h-3.028v3.64z"/>
  <path fill="none" d="M0 0h200v43H0z"/>
</svg>