<svg xmlns="http://www.w3.org/2000/svg" xml:space="preserve" viewBox="0 0 200 33">
  <path fill="#82B541" d="M145.455.432h53.271v32h-53.271z"/>
  <path fill="#E41937" d="M65.427 25.883c-3.777-1.132-5.292-4.608-5.149-7.889.065-1.36.604-2.626 1.553-3.607-.181.73-.051 3.102 1.257 4.162-.27-1.141-.253-2.33.074-3.478.971-2.62 3.71-3.304 3.409-5.705-.072-.781-.293-1.52-.682-2.213 1.566.526 2.942 1.501 3.949 2.801.83 1.047 1.251 2.343 1.25 3.663-.002.465-.062.928-.152 1.387.206-.545.527-1.063.928-1.508.712-.679 1.571-1.197 2.531-1.505-.564 1.085-.761 2.287-.571 3.471.211 1.344 1.245 3.084.988 5.168-.185 2.443-1.861 4.525-4.254 5.192-1.696-.396-3.461-.392-5.131.061z"/>
  <path fill="#98012E" d="M70.56 25.821c1.05-1.247 1.815-3.662.583-5.023-.083.799-.453 1.549-1.002 2.119.207-.401.279-.855.211-1.324-.185-1.688-1.714-1.976-1.775-3.05-.058-.466.024-.928.258-1.326-.757.268-1.405.77-1.867 1.389-.361.545-.588 1.179-.586 1.834 0 .246.042.49.097.717-.109-.271-.251-.529-.445-.752-.324-.362-.723-.622-1.175-.766.794 2.047-.327 2.181-.544 3.402-.305 1.157.738 2.442 1.112 2.842.815.262 1.673.413 2.561.454.869-.037 1.73-.192 2.572-.516z"/>
  <path fill="#11172B" d="M1.261 25.04V7.782h5.23v6.11h6.207v-6.11h5.229V25.04h-5.229v-6.582H6.491v6.582h-5.23zm18.979-3.746c-.322-.789-.471-1.642-.471-2.499 0-.877.148-1.717.471-2.504.322-.787.776-1.492 1.362-2.09.586-.598 1.316-1.094 2.217-1.438.875-.344 1.86-.528 2.954-.528 1.069 0 2.082.184 2.962.528.905.344 1.638.84 2.224 1.438.586.598 1.04 1.303 1.362 2.09.322.788.471 1.627.471 2.504 0 .857-.148 1.71-.471 2.499s-.776 1.487-1.362 2.107c-.585.582-1.319 1.08-2.224 1.45-.881.372-1.893.533-2.962.533-1.094 0-2.079-.161-2.954-.533-.9-.37-1.631-.868-2.217-1.45-.586-.62-1.04-1.318-1.362-2.107zm4.302-2.499c0 .714.196 1.314.589 1.765.393.469.932.69 1.641.69.714 0 1.256-.222 1.652-.69.396-.45.594-1.051.594-1.765 0-.728-.198-1.314-.594-1.768-.396-.454-.938-.669-1.652-.669-.704 0-1.241.217-1.637.673-.395.457-.593 1.042-.593 1.764zm9.955 4.651 1.882-3.139c.493.394 1.206.77 2.114 1.106.908.318 1.698.485 2.371.485.841 0 1.274-.177 1.274-.551 0-.136-.113-.238-.313-.324-.201-.089-.466-.144-.797-.201-.331-.023-.715-.072-1.153-.151-.414-.079-.858-.159-1.31-.248-.452-.091-.872-.246-1.31-.437-.414-.209-.798-.441-1.129-.729-.331-.273-.596-.659-.797-1.13-.225-.504-.312-1.047-.312-1.683 0-.548.126-1.08.38-1.592.229-.513.598-.965 1.058-1.358.458-.392 1.047-.684 1.766-.925.718-.215 1.513-.335 2.411-.335 1.98 0 3.796.531 5.397 1.592l-1.706 3.052c-.411-.369-.974-.658-1.641-.917s-1.362-.389-2.035-.389c-.338 0-.637.055-.845.141-.208.109-.324.241-.324.396 0 .123.112.234.312.308.201.075.466.137.797.161.331.048.716.109 1.129.184.438.075.881.177 1.305.26.449.107.892.252 1.305.461.438.207.823.463 1.154.761.331.298.597.688.797 1.167.2.484.313 1.027.313 1.665 0 1.271-.529 2.32-1.614 3.119-1.06.793-2.502 1.188-4.329 1.188-1.128 0-2.284-.161-3.415-.533-1.156-.369-2.068-.807-2.735-1.404zm12.637-6.871v-4.021h2.083V9.11h4.661v3.444h2.547v4.021h-2.547V20.1c0 .32.11.59.305.828.195.223.423.322.736.322.195 0 .387-.029.577-.059.19-.043.288-.11.344-.163l.841 3.54c-.267.2-.67.425-1.234.572-.539.146-1.188.244-1.921.244-1.41 0-2.469-.356-3.2-1.018-.731-.661-1.109-1.629-1.109-2.938v-4.854h-2.083zm30.295 7.393 2.139-3.98c.739.52 1.498.777 2.226.777.579 0 1.041-.193 1.385-.523.344-.353.528-.831.528-1.431V7.782h5.23v11.113c0 2.167-.593 3.765-1.778 4.839-1.185 1.116-2.819 1.651-4.901 1.651-2.015 0-3.608-.489-4.829-1.417zm13.343-5.181c0-2.029.522-3.613 1.565-4.789 1.044-1.176 2.359-1.764 3.944-1.764 1.437 0 2.608.535 3.516 1.628v-1.308h4.702V25.04h-4.686v-1.311c-.949 1.118-2.126 1.655-3.531 1.655-.75 0-1.467-.14-2.125-.417-.659-.327-1.246-.734-1.758-1.271-.513-.537-.908-1.229-1.185-2.088-.303-.837-.442-1.774-.442-2.821zm5.434-1.781c-.449.414-.66 1.006-.66 1.781 0 .731.213 1.354.664 1.782.451.461 1.018.681 1.675.681.329 0 .672-.064 1.057-.226.385-.166.667-.362.872-.624v-3.205c-.205-.258-.486-.458-.868-.624-.382-.142-.727-.213-1.061-.213-.688 0-1.231.208-1.679.648zm10.867 8.034V12.555h4.649v1.401c.417-.478 1.014-.882 1.71-1.238.746-.331 1.584-.483 2.6-.483 1.403 0 2.442.351 3.131 1.105.683.729 1.049 1.665 1.049 2.834v8.866h-4.686v-6.899c0-1.189-.572-1.782-1.813-1.782-.448 0-.836.082-1.129.269-.321.187-.601.409-.862.716v7.696h-4.649zm14.861-6.245c0-.918.199-1.769.51-2.564.353-.795.791-1.5 1.405-2.09.566-.59 1.311-1.053 2.137-1.39.876-.361 1.795-.516 2.755-.516 1.919 0 3.481.643 4.686 1.906 1.206 1.262 1.834 2.995 1.834 5.14v.965h-8.497c.134.435.421.816.913 1.107.492.323 1.059.469 1.803.469.401 0 .915-.087 1.493-.24.626-.171 1.057-.386 1.382-.642l1.889 2.885c-.566.512-1.352.899-2.363 1.165-.958.264-1.972.396-2.938.396-1.309 0-2.485-.26-3.534-.781-1.099-.521-1.915-1.293-2.547-2.278-.59-1.025-.928-2.204-.928-3.532zm4.797-1.508h4.091c-.025-.148-.11-.32-.159-.464-.097-.144-.215-.318-.356-.473-.14-.179-.37-.313-.638-.425-.266-.087-.559-.144-.929-.144-1.072.001-1.741.511-2.009 1.506z"/>
  <path fill="#FFF" d="m150.17 24.154 2.266-18.599h3.078l-.963 7.947c.625-.809 1.303-1.409 2.033-1.802.73-.392 1.475-.588 2.234-.588.484 0 .922.085 1.314.257.393.171.727.421 1.002.751.275.329.486.733.637 1.214.15.479.227 1.032.227 1.658 0 .158-.006.319-.02.481-.012.163-.027.332-.043.507l-.965 8.173h-3.092l.965-8.173c.016-.149.031-.292.043-.426.014-.133.02-.258.02-.375 0-.551-.105-.946-.313-1.189-.209-.241-.525-.362-.951-.362-.318 0-.646.09-.99.269-.342.18-.67.435-.988.764-.316.33-.613.729-.889 1.196-.275.467-.51.988-.701 1.565l-.813 6.732h-3.091zm24.318-9.862c0 .575-.115 1.102-.344 1.577-.23.476-.641.901-1.232 1.276-.594.377-1.396.699-2.41.971s-2.305.486-3.873.645v.162c0 2.02.855 3.029 2.564 3.029.367 0 .693-.035.977-.105.283-.072.533-.156.744-.258.213-.1.406-.213.576-.338.172-.125.33-.236.477-.338.146-.1.289-.186.432-.256.141-.07.297-.105.463-.105.1 0 .201.021.301.068.1.045.184.113.25.205l.789.951c-.443.443-.877.826-1.303 1.152s-.859.592-1.301.801c-.443.209-.91.363-1.402.463-.492.102-1.031.15-1.615.15-.75 0-1.43-.127-2.039-.381s-1.131-.613-1.564-1.076c-.434-.465-.77-1.023-1.008-1.678s-.357-1.387-.357-2.197c0-.676.074-1.34.219-1.99.146-.651.357-1.268.633-1.852s.613-1.122 1.014-1.614.854-.918 1.359-1.276c.504-.358 1.059-.639 1.664-.839.604-.2 1.254-.3 1.945-.3.676 0 1.266.096 1.771.287.504.191.926.44 1.264.744.338.306.59.646.758 1.021.164.375.248.742.248 1.101zm-4.217-1.001c-.418 0-.807.085-1.164.257-.359.171-.684.41-.971.72-.287.308-.539.678-.752 1.107s-.381.898-.506 1.408c1.035-.142 1.867-.296 2.496-.463.631-.167 1.119-.352 1.465-.551.346-.2.576-.414.689-.639.111-.226.168-.468.168-.727 0-.125-.027-.254-.082-.388-.053-.133-.137-.252-.25-.356-.111-.104-.258-.192-.438-.263-.178-.07-.397-.105-.655-.105zm5.381 10.863 2.254-18.599h3.041l-2.254 18.599h-3.041zm5.571 4.194 2.076-17.047h1.566c.283 0 .525.061.725.182.201.121.301.319.301.595 0 .05-.004.14-.012.269-.01.13-.018.334-.025.613-.01.279-.025.674-.051 1.183.617-.926 1.316-1.662 2.096-2.209.781-.547 1.605-.819 2.473-.819.535 0 1.021.098 1.459.294s.811.49 1.119.882c.309.393.547.889.713 1.49.168.601.252 1.306.252 2.115 0 .726-.076 1.44-.227 2.139-.148.701-.361 1.365-.637 1.99-.275.627-.604 1.203-.984 1.729-.379.525-.803.98-1.27 1.363-.467.385-.965.686-1.496.9-.529.219-1.078.326-1.645.326-.576 0-1.1-.102-1.572-.307-.471-.203-.877-.49-1.219-.857l-.639 5.17h-3.003zm7.947-14.807c-.342 0-.688.115-1.039.345-.35.229-.688.547-1.014.95-.326.406-.627.883-.908 1.434-.279.551-.52 1.143-.719 1.778l-.375 3.117c.283.299.605.512.969.637s.725.188 1.084.188c.551 0 1.051-.17 1.502-.512.449-.342.836-.789 1.156-1.34.322-.551.57-1.17.746-1.859.174-.688.262-1.377.262-2.071 0-.9-.145-1.571-.438-2.009-.292-.44-.701-.658-1.226-.658z"/>
  <path fill="none" d="M0 0h200v33H0z"/>
</svg>
