<svg xmlns="http://www.w3.org/2000/svg" width="36" height="36">
  <path fill="#1DBF73" d="M16.125 25.785c-.716073-1.959051-2.3763-3.421632-4.41-3.885-.178428-.0300495-.35905845-.045102-.54-.0449985-.7775085-.017868-1.50033645.398481-1.875 1.08-.3762225.682434-.55295025 1.4569155-.51000045 2.2349985-.16464405 2.1266055.8264694 4.177578 2.595 5.37 1.20707445.738834 2.65543095.975741 4.03500045.6600015.7199985-.1650015.7949985-.5699985.8549985-1.6800015l.0300015-.405c.1057095-1.112151.050133-2.233749-.165-3.33h-.015z"/>
  <path fill="#484848" d="M9.075 6.33c-.18519375-.3687405-.0377355-.81781875.33-1.00500045C12.63 3.71999925 18.3299985 4.4399997 20.8349985 7.8c.248529.331371.1813725.8014725-.1499985 1.05-.331371.24852795-.8014725.181371-1.0500015-.15000045-2.055-2.74499985-6.9149985-3.36-9.57-2.02499955-.3687399.18519375-.81781755.0377355-1.005-.33L9.075 6.33zm.25500045 2.04c-.2250774.147372-.35443545.4036266-.33934605.6722355.0150891.2686089.1723341.508764.41250015.63000045.2401665.1212366.52676895.10513605.7518462-.04223595l.0150003-.015c2.12194095-1.1025369 4.69544295-.84342 6.55500045.66.1818015.215223.4688835.310407.743256.24643125.2743725-.06397545.4897485-.2763177.5576085-.54975525.0678615-.27343695-.023241-.5618394-.2358645-.746676L17.775 9.21c-2.370669-1.99888755-5.72702925-2.3327346-8.44499955-.84zm.75-4.7100003C12.434691 2.66348715 15.075762 2.5779462 17.49 3.41999955 19.936731 4.061805 22.0327005 5.6405175 23.325 7.815c.186396.37279275.639708.52389705 1.0125.3375006.372792-.1863966.5238975-.63970755.3375-1.0125006C22.2450015 2.2950003 14.4-.19499946 9.42000105 2.3100003c-.24115455.12057705-.39966255.36064905-.4158168.6297834-.0161547.26913435.1124997.52644285.33749985.675.2249994.1485573.5121624.1657935.75331665.0452163zM29.115 22.5149985c-.255.285-6.51 7.1249985-7.965 8.535-1.8569745 1.9654455-4.3954305 3.146124-7.0949985 3.3000015-.448443.000783-.895791-.0444525-1.33500075-.135-1.66916025-.3387315-3.20541-1.1511195-4.4249997-2.34-1.8682881-1.8646035-2.76113535-4.4932365-2.41500015-7.11.2544801-1.507479.67711605-2.9816715 1.26000015-4.395.61499985-1.62 1.29000045-3.21 1.94999955-4.815l.94500015-2.28c.3299997-.81.7049997-1.605 1.4849997-1.7699991C12.159465 11.444262 12.7878255 11.7023385 13.2 12.195c.9017535 1.0088505 1.1305005 2.4517095.5850015 3.69C13.695 16.23 13.575 16.6650015 13.455 17.13l6.615-6.795c.567903-.58825005 1.3935705-.85145775 2.197146-.7004094.803577.1510479 1.4773155.6960984 1.792854 1.4504094.4240845-.3330195.94584-.5174784 1.485-.525.6890325-.021384 1.3582545.23227275 1.86.7049997.899964.8998443.9650175 2.3375553.15 3.3149988.3011355.121506.57612.2997375.810003.5250015.932316.9411615.938985 2.45566275.015 3.405l-.0749985.075c.2791185.1091535.5339775.272262.75.48.9565935.93567.9833355 2.466492.0600015 3.435zm-1.11-2.37c-.336711-.303474-.8482905-.303474-1.185 0h-.0150015l-4.9050015 5.145c-.2919405.2625525-.73696875.2555055-1.0204485-.0161625-.283479-.271668-.3094515-.7159935-.0595515-1.018839l6.4650015-6.78c.3606225-.3578775.3673005-.938928.015-1.305-.296214-.3200715-.7836315-.371379-1.14-.12l-.0300015.015-5.3399985 5.46c-.2899515.29823375-.766767.30495-1.0650015.015-.298233-.28995-.30495-.7667655-.015-1.0649985L26.325 13.709997c.36804-.378264.3746385-.9787365.015-1.3649985-.215676-.188418-.493659-.2899875-.7800015-.285-.2516955-.0019695-.4940985.0949905-.6750015.27l-1.26 1.32c-.03.0300015-.045.06-.06.0900015-.015.015-.03.015-.045.03l-5.42999925 5.685c-.29194125.2625495-.73696575.255498-1.0204425-.016167-.28347825-.27166725-.30945225-.7159875-.05955825-1.0188315l5.505-5.7750015c.32469225-.3836385.2985255-.952773-.06-1.3049994-.176298-.1727376-.4131825-.2696442-.6599985-.2699997-.249309.00268935-.487095.1053711-.66.285L12.735 19.9950015h-.015l-.24.96c2.792112 1.110132 4.711317 3.7097865 4.95 6.7049985.0502545.40605-.234192.77745-.639306.834735-.405114.0572895-.7813905-.2206755-.845694-.624735-.1712025-2.648211-1.9723725-4.910145-4.515-5.67-.1949535-.0397455-.366126-.155328-.47584125-.3213075-.10971585-.1659795-.1489827-.368754-.10915875-.5636925v-.03c.045-.165.99-4.125 1.47-5.8350015.21-.735.345-1.71-.18-2.205-.111825-.1216335-.24375105-.2231145-.39-.3.045.0300015-.1050003.225-.36.87l-.945 2.295c-.6656355 1.581612-1.31063595 3.1716315-1.935 4.77C7.957536 22.185822 7.559994 23.549544 7.32 24.945c-.286173 2.1473565.4460715 4.305261 1.98000045 5.8349985C10.31811195 31.766727 11.599392 32.438616 12.99 32.714997c2.669277.269868 5.305017-.7632105 7.0799985-2.7750015 1.425-1.38 7.845-8.415 7.9050015-8.49.363981-.373002.35727-.9702675-.015-1.335z"/>
</svg>
